{
.appVersion = "1064";
DisplayStrings = (
"/ve-cy.loclBGR/ze-cy.loclBGR/softsign-cy.loclBGR/hardsign-cy.loclBGR",
"/be-cy.loclSRB"
);
classes = (
{
automatic = 1;

glyphs = (
{
glyphname = A;
lastChange = "2017-09-15 19:18:46 +0000";
layers = (
{
anchors = (
{
name = bottom;
position = "{344, 0}";
},
{
name = ogonek;
position = "{679, 0}";
},
{
name = top;
position = "{344, 700}";
},
{
name = topleft;
position = "{106, 700}";
}
);
background = {
paths = (
{
closed = 1;
nodes = (
"32 0 LINE",
"349 684 LINE",
"339 684 LINE",
"656 0 LINE",
"679 0 LINE",
"354 700 LINE",
"334 700 LINE",
"9 0 LINE"
);
},
{
closed = 1;
nodes = (
"581 187 LINE",
"571 206 LINE",
"116 206 LINE",
"106 187 LINE"
);
}
);
};
layerId = UUID0;
paths = (
{
closed = 1;
nodes = (
"32 0 LINE",
"349 684 LINE",
"339 684 LINE",
"656 0 LINE",
"679 0 LINE",
"354 700 LINE",
"334 700 LINE",
"9 0 LINE"
);
},
{
closed = 1;
nodes = (
"571 211 LINE",
"561 230 LINE",
"126 230 LINE",
"116 211 LINE"
);
}
);
width = 688;
},
{
anchors = (
{
name = bottom;
position = "{403, 0}";
},
{
name = ogonek;
position = "{825, 0}";
},
{
name = top;
position = "{403, 700}";
},
{
name = topleft;
position = "{121, 701}";
}
);
background = {
paths = (
{
closed = 1;
nodes = (
"221 0 LINE",
"447 588 LINE",
"355 588 LINE",
"581 0 LINE",
"825 0 LINE",
"519 700 LINE",
"287 700 LINE",
"-19 0 LINE"
);
},
{
closed = 1;
nodes = (
"605 102 LINE",
"545 272 LINE",
"223 272 LINE",
"163 102 LINE"
);
}
);
};
guideLines = (
{
angle = 245.556;
position = "{234, 56}";
}
);
layerId = "5DA6E103-6A94-47F2-987D-4952DB8EA68E";
paths = (
{
closed = 1;
nodes = (
"221 0 LINE",
"447 588 LINE",
"355 588 LINE",
"581 0 LINE",
"825 0 LINE",
"519 700 LINE",
"287 700 LINE",
"-19 0 LINE"
);
},
{
closed = 1;
nodes = (
"605 104 LINE",
"545 277 LINE",
"223 277 LINE",
"163 104 LINE"
);
}
);
width = 806;
}
);
leftKerningGroup = A;
rightKerningGroup = A;
rightMetricsKey = "=|";
unicode = 0041;
},
{
glyphname = B;
lastChange = "2017-09-15 19:18:46 +0000";
layers = (
{
anchors = (
{
name = bottom;
position = "{370, 0}";
},
{
name = top;
position = "{370, 700}";
}
);
background = {
paths = (
{
closed = 1;
nodes = (
"851 700 LINE",
"851 0 LINE",
"1132 0 LINE SMOOTH",
"1291 0 OFFCURVE",
"1382 68 OFFCURVE",
"1382 187 CURVE SMOOTH",
"1382 286 OFFCURVE",
"1318 351 OFFCURVE",
"1207 364 CURVE",
"1295 379 OFFCURVE",
"1345 438 OFFCURVE",
"1345 526 CURVE SMOOTH",
"1345 636 OFFCURVE",
"1267 700 OFFCURVE",
"1132 700 CURVE SMOOTH"
);
},
{
closed = 1;
nodes = (
"871 372 LINE",
"871 680 LINE",
"1132 680 LINE SMOOTH",
"1255 680 OFFCURVE",
"1325 623 OFFCURVE",
"1325 526 CURVE SMOOTH",
"1325 428 OFFCURVE",
"1255 372 OFFCURVE",
"1132 372 CURVE SMOOTH"
);
},
{
closed = 1;
nodes = (
"871 20 LINE",
"871 353 LINE",
"1132 353 LINE SMOOTH",
"1279 353 OFFCURVE",
"1363 293 OFFCURVE",
"1363 188 CURVE SMOOTH",
"1363 81 OFFCURVE",
"1279 20 OFFCURVE",
"1132 20 CURVE SMOOTH"
);
},
{
closed = 1;
nodes = (
"133 700 LINE",
"133 0 LINE",
"433 0 LINE SMOOTH",
"600 0 OFFCURVE",
"683 65 OFFCURVE",
"683 183 CURVE SMOOTH",
"683 301 OFFCURVE",
"600 364 OFFCURVE",
"441 364 CURVE",
"420 350 LINE",
"554 350 OFFCURVE",
"645 406 OFFCURVE",
"645 523 CURVE SMOOTH",
"645 640 OFFCURVE",
"554 700 OFFCURVE",
"413 700 CURVE SMOOTH"
);
},
{
closed = 1;
nodes = (
"153 365 LINE",
"153 681 LINE",
"416 681 LINE SMOOTH",
"547 681 OFFCURVE",
"625 627 OFFCURVE",
"625 523 CURVE SMOOTH",
"625 419 OFFCURVE",
"547 365 OFFCURVE",
"416 365 CURVE SMOOTH"
);
},
{
closed = 1;
nodes = (
"153 19 LINE",
"153 346 LINE",
"436 346 LINE SMOOTH",
"583 346 OFFCURVE",
"663 296 OFFCURVE",
"663 183 CURVE SMOOTH",
"663 70 OFFCURVE",
"583 19 OFFCURVE",
"436 19 CURVE SMOOTH"
);
}
);
};
layerId = UUID0;
paths = (
{
closed = 1;
nodes = (
"417 0 LINE SMOOTH",
"582 0 OFFCURVE",
"662 65 OFFCURVE",
"662 183 CURVE SMOOTH",
"662 301 OFFCURVE",
"583 363 OFFCURVE",
"428 363 CURVE",
"411 350 LINE",
"537 350 OFFCURVE",
"625 406 OFFCURVE",
"625 523 CURVE SMOOTH",
"625 640 OFFCURVE",
"537 700 OFFCURVE",
"398 700 CURVE SMOOTH",
"129 700 LINE",
"129 0 LINE"
);
},
{
closed = 1;
nodes = (
"149 346 LINE",
"421 346 LINE SMOOTH",
"565 346 OFFCURVE",
"642 296 OFFCURVE",
"642 183 CURVE SMOOTH",
"642 70 OFFCURVE",
"565 19 OFFCURVE",
"421 19 CURVE SMOOTH",
"149 19 LINE"
);
},
{
closed = 1;
nodes = (
"149 681 LINE",
"401 681 LINE SMOOTH",
"530 681 OFFCURVE",
"605 627 OFFCURVE",
"605 523 CURVE SMOOTH",
"605 419 OFFCURVE",
"530 365 OFFCURVE",
"401 365 CURVE SMOOTH",
"149 365 LINE"
);
}
);
width = 742;
},
{
anchors = (
{
name = bottom;
position = "{371, 0}";
},
{
name = top;
position = "{371, 700}";
}
);
background = {
paths = (
{
closed = 1;
nodes = (
"857 700 LINE",
"857 0 LINE",
"1229 0 LINE SMOOTH",
"1400 0 OFFCURVE",
"1511 77 OFFCURVE",
"1511 197 CURVE SMOOTH",
"1511 285 OFFCURVE",
"1456 355 OFFCURVE",
"1372 374 CURVE",
"1444 396 OFFCURVE",
"1490 455 OFFCURVE",
"1490 524 CURVE SMOOTH",
"1490 631 OFFCURVE",
"1381 700 OFFCURVE",
"1212 700 CURVE SMOOTH"
);
},
{
closed = 1;
nodes = (
"1088 431 LINE",
"1088 530 LINE",
"1199 530 LINE SMOOTH",
"1231 530 OFFCURVE",
"1252 512 OFFCURVE",
"1252 482 CURVE SMOOTH",
"1252 451 OFFCURVE",
"1231 431 OFFCURVE",
"1199 431 CURVE SMOOTH"
);
},
{
closed = 1;
nodes = (
"1088 170 LINE",
"1088 277 LINE",
"1199 277 LINE SMOOTH",
"1242 277 OFFCURVE",
"1270 257 OFFCURVE",
"1270 226 CURVE SMOOTH",
"1270 192 OFFCURVE",
"1242 170 OFFCURVE",
"1199 170 CURVE SMOOTH"
);
},
{
closed = 1;
nodes = (
"57 700 LINE",
"57 0 LINE",
"471 0 LINE SMOOTH",
"644 0 OFFCURVE",
"747 71 OFFCURVE",
"747 193 CURVE SMOOTH",
"747 315 OFFCURVE",
"644 387 OFFCURVE",
"481 387 CURVE",
"461 333 LINE",
"624 333 OFFCURVE",
"714 411 OFFCURVE",
"714 517 CURVE SMOOTH",
"714 623 OFFCURVE",
"624 700 OFFCURVE",
"451 700 CURVE SMOOTH"
);
},
{
closed = 1;
nodes = (
"289 431 LINE",
"289 535 LINE",
"409 535 LINE SMOOTH",
"452 535 OFFCURVE",
"476 517 OFFCURVE",
"476 483 CURVE SMOOTH",
"476 449 OFFCURVE",
"452 431 OFFCURVE",
"409 431 CURVE SMOOTH"
);
},
{
closed = 1;
nodes = (
"289 165 LINE",
"289 275 LINE",
"441 275 LINE SMOOTH",
"483 275 OFFCURVE",
"509 256 OFFCURVE",
"509 220 CURVE SMOOTH",
"509 184 OFFCURVE",
"483 165 OFFCURVE",
"441 165 CURVE SMOOTH"
);
}
);
};
layerId = "5DA6E103-6A94-47F2-987D-4952DB8EA68E";
paths = (
{
closed = 1;
nodes = (
"422 0 LINE SMOOTH",
"608 0 OFFCURVE",
"707 71 OFFCURVE",
"707 193 CURVE SMOOTH",
"707 315 OFFCURVE",
"608 387 OFFCURVE",
"452 387 CURVE",
"432 333 LINE",
"590 333 OFFCURVE",
"676 411 OFFCURVE",
"676 517 CURVE SMOOTH",
"676 623 OFFCURVE",
"590 700 OFFCURVE",
"403 700 CURVE SMOOTH",
"48 700 LINE",
"48 0 LINE"
);
},
{
closed = 1;
nodes = (
"280 275 LINE",
"402 275 LINE SMOOTH",
"447 275 OFFCURVE",
"469 256 OFFCURVE",
"469 220 CURVE SMOOTH",
"469 184 OFFCURVE",
"447 165 OFFCURVE",
"402 165 CURVE SMOOTH",
"280 165 LINE"
);
},
{
closed = 1;
nodes = (
"280 535 LINE",
"371 535 LINE SMOOTH",
"417 535 OFFCURVE",
"438 517 OFFCURVE",
"438 483 CURVE SMOOTH",
"438 449 OFFCURVE",
"417 431 OFFCURVE",
"371 431 CURVE SMOOTH",
"280 431 LINE"
);
}
);
width = 732;
}
);
leftKerningGroup = H;
leftMetricsKey = H;
rightKerningGroup = B;
unicode = 0042;
},
{
glyphname = C;
lastChange = "2017-09-28 14:23:09 +0000";
layers = (
{
anchors = (
{
name = bottom;
position = "{408, 0}";
},
{
name = top;
position = "{408, 700}";
}
);
background = {
paths = (
{
closed = 1;
nodes = (
"1356 614 LINE",
"1296 674 OFFCURVE",
"1210 703 OFFCURVE",
"1118 703 CURVE SMOOTH",
"913 703 OFFCURVE",
"759 552 OFFCURVE",
"759 350 CURVE SMOOTH",
"759 148 OFFCURVE",
"913 -3 OFFCURVE",
"1118 -3 CURVE SMOOTH",
"1210 -3 OFFCURVE",
"1296 27 OFFCURVE",
"1356 87 CURVE",
"1344 101 LINE",
"1280 40 OFFCURVE",
"1203 16 OFFCURVE",
"1118 16 CURVE SMOOTH",
"925 16 OFFCURVE",
"779 161 OFFCURVE",
"779 350 CURVE SMOOTH",
"779 539 OFFCURVE",
"925 684 OFFCURVE",
"1118 684 CURVE SMOOTH",
"1203 684 OFFCURVE",
"1280 661 OFFCURVE",
"1344 600 CURVE"
);
},
{
closed = 1;
nodes = (
"213 703 OFFCURVE",
"59 552 OFFCURVE",
"59 350 CURVE SMOOTH",
"59 148 OFFCURVE",
"213 -3 OFFCURVE",
"418 -3 CURVE SMOOTH",
"623 -3 OFFCURVE",
"777 148 OFFCURVE",
"777 350 CURVE SMOOTH",
"777 552 OFFCURVE",
"623 703 OFFCURVE",
"418 703 CURVE SMOOTH"
);
},
{
closed = 1;
nodes = (
"611 684 OFFCURVE",
"757 539 OFFCURVE",
"757 350 CURVE SMOOTH",
"757 161 OFFCURVE",
"611 16 OFFCURVE",
"418 16 CURVE SMOOTH",
"225 16 OFFCURVE",
"79 161 OFFCURVE",
"79 350 CURVE SMOOTH",
"79 539 OFFCURVE",
"225 684 OFFCURVE",
"418 684 CURVE SMOOTH"
);
}
);
};
layerId = UUID0;
paths = (
{
closed = 1;
nodes = (
"510 -3 OFFCURVE",
"596 27 OFFCURVE",
"656 87 CURVE",
"644 101 LINE",
"580 40 OFFCURVE",
"503 16 OFFCURVE",
"418 16 CURVE SMOOTH",
"225 16 OFFCURVE",
"79 161 OFFCURVE",
"79 350 CURVE SMOOTH",
"79 539 OFFCURVE",
"225 684 OFFCURVE",
"418 684 CURVE SMOOTH",
"503 684 OFFCURVE",
"580 661 OFFCURVE",
"644 600 CURVE",
"656 614 LINE",
"596 674 OFFCURVE",
"510 703 OFFCURVE",
"418 703 CURVE SMOOTH",
"213 703 OFFCURVE",
"59 552 OFFCURVE",
"59 350 CURVE SMOOTH",
"59 148 OFFCURVE",
"213 -3 OFFCURVE",
"418 -3 CURVE SMOOTH"
);
}
);
width = 711;
},
{
anchors = (
{
name = bottom;
position = "{416, 0}";
},
{
name = top;
position = "{418, 701}";
}
);
background = {
paths = (
{
closed = 1;
nodes = (
"196 716 OFFCURVE",
"29 562 OFFCURVE",
"29 350 CURVE SMOOTH",
"29 138 OFFCURVE",
"196 -16 OFFCURVE",
"424 -16 CURVE SMOOTH",
"652 -16 OFFCURVE",
"819 138 OFFCURVE",
"819 350 CURVE SMOOTH",
"819 562 OFFCURVE",
"652 716 OFFCURVE",
"424 716 CURVE SMOOTH"
);
},
{
closed = 1;
nodes = (
"511 525 OFFCURVE",
"581 459 OFFCURVE",
"581 350 CURVE SMOOTH",
"581 241 OFFCURVE",
"511 175 OFFCURVE",
"424 175 CURVE SMOOTH",
"337 175 OFFCURVE",
"267 241 OFFCURVE",
"267 350 CURVE SMOOTH",
"267 459 OFFCURVE",
"337 525 OFFCURVE",
"424 525 CURVE SMOOTH"
);
}
);
};
layerId = "5DA6E103-6A94-47F2-987D-4952DB8EA68E";
paths = (
{
closed = 1;
nodes = (
"556 -16 OFFCURVE",
"664 34 OFFCURVE",
"733 124 CURVE",
"584 257 LINE",
"543 205 OFFCURVE",
"494 175 OFFCURVE",
"431 175 CURVE SMOOTH",
"333 175 OFFCURVE",
"267 243 OFFCURVE",
"267 350 CURVE SMOOTH",
"267 457 OFFCURVE",
"333 525 OFFCURVE",
"431 525 CURVE SMOOTH",
"494 525 OFFCURVE",
"543 495 OFFCURVE",
"584 443 CURVE",
"733 576 LINE",
"664 666 OFFCURVE",
"556 716 OFFCURVE",
"419 716 CURVE SMOOTH",
"194 716 OFFCURVE",
"29 565 OFFCURVE",
"29 350 CURVE SMOOTH",
"29 135 OFFCURVE",
"194 -16 OFFCURVE",
"419 -16 CURVE SMOOTH"
);
}
);
width = 735;
}
);
leftKerningGroup = O;
leftMetricsKey = O;
rightKerningGroup = C;
unicode = 0043;
},
{
glyphname = D;
lastChange = "2017-09-15 19:18:46 +0000";
layers = (
{
anchors = (
{
name = bottom;
position = "{396, 0}";
},
{
name = center;
position = "{200, 356}";
},
{
name = top;
position = "{391, 699}";
}
);
background = {
paths = (
{
closed = 1;
nodes = (
"153 0 LINE",
"153 346 LINE",
"663 346 LINE",
"663 0 LINE",
"683 0 LINE",
"683 700 LINE",
"663 700 LINE",
"663 365 LINE",
"153 365 LINE",
"153 700 LINE",
"133 700 LINE",
"133 0 LINE"
);
}
);
};
layerId = UUID0;
paths = (
{
closed = 1;
nodes = (
"398 0 LINE SMOOTH",
"619 0 OFFCURVE",
"767 148 OFFCURVE",
"767 350 CURVE SMOOTH",
"767 552 OFFCURVE",
"619 700 OFFCURVE",
"398 700 CURVE SMOOTH",
"133 700 LINE",
"133 0 LINE"
);
},
{
closed = 1;
nodes = (
"153 681 LINE",
"396 681 LINE SMOOTH",
"610 681 OFFCURVE",
"747 541 OFFCURVE",
"747 350 CURVE SMOOTH",
"747 159 OFFCURVE",
"610 19 OFFCURVE",
"396 19 CURVE SMOOTH",
"153 19 LINE"
);
}
);
width = 826;
},
{
anchors = (
{
name = bottom;
position = "{361, 0}";
},
{
name = center;
position = "{206, 355}";
},
{
name = top;
position = "{359, 700}";
}
);
background = {
paths = (
{
closed = 1;
nodes = (
"1074 716 OFFCURVE",
"907 562 OFFCURVE",
"907 350 CURVE SMOOTH",
"907 138 OFFCURVE",
"1074 -16 OFFCURVE",
"1302 -16 CURVE SMOOTH",
"1530 -16 OFFCURVE",
"1697 138 OFFCURVE",
"1697 350 CURVE SMOOTH",
"1697 562 OFFCURVE",
"1530 716 OFFCURVE",
"1302 716 CURVE SMOOTH"
);
},
{
closed = 1;
nodes = (
"1389 525 OFFCURVE",
"1459 459 OFFCURVE",
"1459 350 CURVE SMOOTH",
"1459 241 OFFCURVE",
"1389 175 OFFCURVE",
"1302 175 CURVE SMOOTH",
"1215 175 OFFCURVE",
"1145 241 OFFCURVE",
"1145 350 CURVE SMOOTH",
"1145 459 OFFCURVE",
"1215 525 OFFCURVE",
"1302 525 CURVE SMOOTH"
);
},
{
closed = 1;
nodes = (
"957 0 LINE",
"1193 0 LINE",
"1193 244 LINE",
"1411 244 LINE",
"1411 0 LINE",
"1647 0 LINE",
"1647 700 LINE",
"1411 700 LINE",
"1411 438 LINE",
"1193 438 LINE",
"1193 700 LINE",
"957 700 LINE"
);
},
{
closed = 1;
nodes = (
"57 700 LINE",
"57 0 LINE",
"402 0 LINE SMOOTH",
"636 0 OFFCURVE",
"797 133 OFFCURVE",
"797 350 CURVE SMOOTH",
"797 567 OFFCURVE",
"636 700 OFFCURVE",
"402 700 CURVE SMOOTH"
);
},
{
closed = 1;
nodes = (
"293 184 LINE",
"293 516 LINE",
"392 516 LINE SMOOTH",
"491 516 OFFCURVE",
"559 457 OFFCURVE",
"559 350 CURVE SMOOTH",
"559 243 OFFCURVE",
"491 184 OFFCURVE",
"392 184 CURVE SMOOTH"
);
}
);
};
layerId = "5DA6E103-6A94-47F2-987D-4952DB8EA68E";
paths = (
{
closed = 1;
nodes = (
"402 0 LINE SMOOTH",
"636 0 OFFCURVE",
"797 133 OFFCURVE",
"797 350 CURVE SMOOTH",
"797 567 OFFCURVE",
"636 700 OFFCURVE",
"402 700 CURVE SMOOTH",
"57 700 LINE",
"57 0 LINE"
);
},
{
closed = 1;
nodes = (
"293 516 LINE",
"392 516 LINE SMOOTH",
"491 516 OFFCURVE",
"559 457 OFFCURVE",
"559 350 CURVE SMOOTH",
"559 243 OFFCURVE",
"491 184 OFFCURVE",
"392 184 CURVE SMOOTH",
"293 184 LINE"
);
}
);
width = 826;
}
);
leftKerningGroup = H;
leftMetricsKey = H;
rightKerningGroup = O;
rightMetricsKey = O;
unicode = 0044;
},
{
glyphname = E;
lastChange = "2017-09-18 17:48:03 +0000";
layers = (
{
anchors = (
{
name = bottom;
position = "{376, 0}";
},
{
name = ogonek;
position = "{599, 0}";
},
{
name = top;
position = "{359, 700}";
},
{
name = topleft;
position = "{41, 700}";
}
);
background = {
paths = (
{
closed = 1;
nodes = (
"833 0 LINE",
"1294 0 LINE",
"1294 19 LINE",
"853 19 LINE",
"853 348 LINE",
"1234 348 LINE",
"1234 367 LINE",
"853 367 LINE",
"853 681 LINE",
"1279 681 LINE",
"1279 700 LINE",
"833 700 LINE"
);
},
{
closed = 1;
nodes = (
"133 0 LINE",
"153 0 LINE",
"153 348 LINE",
"664 348 LINE",
"664 0 LINE",
"684 0 LINE",
"684 700 LINE",
"664 700 LINE",
"664 367 LINE",
"153 367 LINE",
"153 700 LINE",
"133 700 LINE"
);
},
{
closed = 1;
nodes = (
"133 0 LINE",
"594 0 LINE",
"594 19 LINE",
"153 19 LINE",
"153 348 LINE",
"534 348 LINE",
"534 367 LINE",
"153 367 LINE",
"153 681 LINE",
"579 681 LINE",
"579 700 LINE",
"133 700 LINE"
);
}
);
};
layerId = UUID0;
paths = (
{
closed = 1;
nodes = (
"599 0 LINE",
"599 19 LINE",
"153 19 LINE",
"153 346 LINE",
"539 346 LINE",
"539 365 LINE",
"153 365 LINE",
"153 681 LINE",
"584 681 LINE",
"584 700 LINE",
"133 700 LINE",
"133 0 LINE"
);
}
);
width = 668;
},
{
anchors = (
{
name = bottom;
position = "{342, 0}";
},
{
name = ogonek;
position = "{639, 0}";
},
{
name = top;
position = "{342, 700}";
},
{
name = topleft;
position = "{-9, 700}";
}
);
background = {
paths = (
{
closed = 1;
nodes = (
"57 0 LINE",
"639 0 LINE",
"639 178 LINE",
"289 178 LINE",
"289 270 LINE",
"585 270 LINE",
"585 440 LINE",
"289 440 LINE",
"289 522 LINE",
"626 522 LINE",
"626 700 LINE",
"57 700 LINE"
);
}
);
};
layerId = "5DA6E103-6A94-47F2-987D-4952DB8EA68E";
paths = (
{
closed = 1;
nodes = (
"639 0 LINE",
"639 178 LINE",
"289 178 LINE",
"289 270 LINE",
"585 270 LINE",
"585 440 LINE",
"289 440 LINE",
"289 522 LINE",
"626 522 LINE",
"626 700 LINE",
"57 700 LINE",
"57 0 LINE"
);
}
);
width = 673;
}
);
leftKerningGroup = H;
leftMetricsKey = H;
rightKerningGroup = E;
unicode = 0045;
},
{
glyphname = F;
lastChange = "2017-09-15 19:18:46 +0000";
layers = (
{
background = {
paths = (
{
closed = 1;
nodes = (
"133 0 LINE",
"153 0 LINE",
"153 323 LINE",
"494 323 LINE",
"494 343 LINE",
"153 343 LINE",
"153 679 LINE",
"540 679 LINE",
"540 699 LINE",
"133 699 LINE"
);
}
);
};
layerId = UUID0;
paths = (
{
closed = 1;
nodes = (
"153 0 LINE",
"153 326 LINE",
"539 326 LINE",
"539 345 LINE",
"153 345 LINE",
"153 681 LINE",
"584 681 LINE",
"584 700 LINE",
"133 700 LINE",
"133 0 LINE"
);
}
);
width = 629;
},
{
background = {
paths = (
{
closed = 1;
nodes = (
"69 0 LINE",
"651 0 LINE",
"651 178 LINE",
"301 178 LINE",
"301 270 LINE",
"597 270 LINE",
"597 440 LINE",
"301 440 LINE",
"301 522 LINE",
"638 522 LINE",
"638 700 LINE",
"69 700 LINE"
);
}
);
};
layerId = "5DA6E103-6A94-47F2-987D-4952DB8EA68E";
paths = (
{
closed = 1;
nodes = (
"305 0 LINE",
"305 224 LINE",
"597 224 LINE",
"597 402 LINE",
"305 402 LINE",
"305 517 LINE",
"638 517 LINE",
"638 700 LINE",
"69 700 LINE",
"69 0 LINE"
);
}
);
width = 656;
}
);
leftKerningGroup = H;
leftMetricsKey = H;
rightKerningGroup = F;
unicode = 0046;
},
{
glyphname = G;
lastChange = "2017-09-15 19:18:46 +0000";
layers = (
{
anchors = (
{
name = bottom;
position = "{402, 0}";
},
{
name = top;
position = "{402, 699}";
}
);
background = {
paths = (
{
closed = 1;
nodes = (
"658 612 LINE",
"594 669 OFFCURVE",
"510 703 OFFCURVE",
"418 703 CURVE SMOOTH",
"221 703 OFFCURVE",
"59 544 OFFCURVE",
"59 351 CURVE SMOOTH",
"59 157 OFFCURVE",
"221 -3 OFFCURVE",
"418 -3 CURVE SMOOTH",
"510 -3 OFFCURVE",
"595 32 OFFCURVE",
"659 89 CURVE",
"645 102 LINE",
"585 48 OFFCURVE",
"505 16 OFFCURVE",
"418 16 CURVE SMOOTH",
"231 16 OFFCURVE",
"78 167 OFFCURVE",
"78 351 CURVE SMOOTH",
"78 534 OFFCURVE",
"231 684 OFFCURVE",
"418 684 CURVE SMOOTH",
"505 684 OFFCURVE",
"585 653 OFFCURVE",
"645 599 CURVE"
);
},
{
closed = 1;
nodes = (
"639 89 LINE",
"659 89 LINE",
"659 343 LINE",
"639 343 LINE"
);
}
);
};
layerId = UUID0;
paths = (
{
closed = 1;
nodes = (
"516 -3 OFFCURVE",
"602 27 OFFCURVE",
"662 87 CURVE",
"650 102 LINE",
"589 40 OFFCURVE",
"509 16 OFFCURVE",
"421 16 CURVE SMOOTH",
"225 16 OFFCURVE",
"79 161 OFFCURVE",
"79 350 CURVE SMOOTH",
"79 539 OFFCURVE",
"225 684 OFFCURVE",
"421 684 CURVE SMOOTH",
"509 684 OFFCURVE",
"586 661 OFFCURVE",
"650 600 CURVE",
"662 614 LINE",
"602 674 OFFCURVE",
"516 703 OFFCURVE",
"421 703 CURVE SMOOTH",
"213 703 OFFCURVE",
"59 552 OFFCURVE",
"59 350 CURVE SMOOTH",
"59 148 OFFCURVE",
"213 -3 OFFCURVE",
"421 -3 CURVE SMOOTH"
);
},
{
closed = 1;
nodes = (
"662 87 LINE",
"662 343 LINE",
"643 343 LINE",
"643 87 LINE"
);
}
);
width = 774;
},
{
anchors = (
{
name = bottom;
position = "{410, 0}";
},
{
name = top;
position = "{424, 701}";
}
);
background = {
paths = (
{
closed = 1;
nodes = (
"1426 -16 OFFCURVE",
"1535 15 OFFCURVE",
"1628 73 CURVE",
"1496 235 LINE",
"1439 192 OFFCURVE",
"1390 175 OFFCURVE",
"1334 175 CURVE SMOOTH",
"1233 175 OFFCURVE",
"1167 246 OFFCURVE",
"1167 350 CURVE SMOOTH",
"1167 457 OFFCURVE",
"1233 523 OFFCURVE",
"1337 523 CURVE SMOOTH",
"1399 523 OFFCURVE",
"1450 498 OFFCURVE",
"1494 448 CURVE",
"1645 581 LINE",
"1574 668 OFFCURVE",
"1463 716 OFFCURVE",
"1325 716 CURVE SMOOTH",
"1094 716 OFFCURVE",
"929 565 OFFCURVE",
"929 350 CURVE SMOOTH",
"929 135 OFFCURVE",
"1094 -16 OFFCURVE",
"1320 -16 CURVE SMOOTH"
);
},
{
closed = 1;
nodes = (
"1628 73 LINE",
"1628 369 LINE",
"1428 369 LINE",
"1428 103 LINE"
);
},
{
closed = 1;
nodes = (
"652 -16 OFFCURVE",
"819 138 OFFCURVE",
"819 350 CURVE SMOOTH",
"819 562 OFFCURVE",
"652 716 OFFCURVE",
"424 716 CURVE SMOOTH",
"196 716 OFFCURVE",
"29 562 OFFCURVE",
"29 350 CURVE SMOOTH",
"29 138 OFFCURVE",
"196 -16 OFFCURVE",
"424 -16 CURVE SMOOTH"
);
},
{
closed = 1;
nodes = (
"337 175 OFFCURVE",
"267 241 OFFCURVE",
"267 350 CURVE SMOOTH",
"267 459 OFFCURVE",
"337 525 OFFCURVE",
"424 525 CURVE SMOOTH",
"511 525 OFFCURVE",
"581 459 OFFCURVE",
"581 350 CURVE SMOOTH",
"581 241 OFFCURVE",
"511 175 OFFCURVE",
"424 175 CURVE SMOOTH"
);
}
);
};
layerId = "5DA6E103-6A94-47F2-987D-4952DB8EA68E";
paths = (
{
closed = 1;
nodes = (
"523 -16 OFFCURVE",
"640 15 OFFCURVE",
"725 73 CURVE",
"593 235 LINE",
"536 191 OFFCURVE",
"487 175 OFFCURVE",
"434 175 CURVE SMOOTH",
"333 175 OFFCURVE",
"267 245 OFFCURVE",
"267 350 CURVE SMOOTH",
"267 458 OFFCURVE",
"333 525 OFFCURVE",
"437 525 CURVE SMOOTH",
"499 525 OFFCURVE",
"550 499 OFFCURVE",
"594 448 CURVE",
"745 581 LINE",
"674 668 OFFCURVE",
"563 716 OFFCURVE",
"425 716 CURVE SMOOTH",
"194 716 OFFCURVE",
"29 565 OFFCURVE",
"29 350 CURVE SMOOTH",
"29 135 OFFCURVE",
"194 -16 OFFCURVE",
"420 -16 CURVE SMOOTH"
);
},
{
closed = 1;
nodes = (
"725 73 LINE",
"725 369 LINE",
"520 369 LINE",
"520 103 LINE"
);
}
);
width = 769;
}
);
leftKerningGroup = O;
leftMetricsKey = O;
rightKerningGroup = G;
unicode = 0047;
},
{
color = 1;
glyphname = H;
lastChange = "2017-09-28 17:38:49 +0000";
layers = (
{
anchors = (
{
name = bottom;
position = "{420, 0}";
},
{
name = center;
position = "{420, 538}";
},
{
name = top;
position = "{420, 700}";
}
);
background = {
paths = (
{
closed = 1;
nodes = (
"165 0 LINE",
"165 346 LINE",
"675 346 LINE",
"675 0 LINE",
"695 0 LINE",
"695 700 LINE",
"675 700 LINE",
"675 365 LINE",
"165 365 LINE",
"165 700 LINE",
"145 700 LINE",
"145 0 LINE"
);
}
);
};
layerId = UUID0;
paths = (
{
closed = 1;
nodes = (
"169 0 LINE",
"169 344 LINE",
"672 344 LINE",
"672 0 LINE",
"692 0 LINE",
"692 700 LINE",
"672 700 LINE",
"672 364 LINE",
"169 364 LINE",
"169 700 LINE",
"149 700 LINE",
"149 0 LINE"
);
}
);
width = 841;
},
{
anchors = (
{
name = bottom;
position = "{398, 0}";
},
{
name = center;
position = "{398, 576}";
},
{
name = top;
position = "{398, 700}";
}
);
background = {
paths = (
{
closed = 1;
nodes = (
"293 0 LINE",
"293 252 LINE",
"511 252 LINE",
"511 0 LINE",
"747 0 LINE",
"747 700 LINE",
"511 700 LINE",
"511 435 LINE",
"293 435 LINE",
"293 700 LINE",
"57 700 LINE",
"57 0 LINE"
);
}
);
};
layerId = "5DA6E103-6A94-47F2-987D-4952DB8EA68E";
paths = (
{
closed = 1;
nodes = (
"286 0 LINE",
"286 252 LINE",
"510 252 LINE",
"510 0 LINE",
"742 0 LINE",
"742 700 LINE",
"510 700 LINE",
"510 435 LINE",
"286 435 LINE",
"286 700 LINE",
"54 700 LINE",
"54 0 LINE"
);
}
);
width = 796;
}
);
leftKerningGroup = H;
rightKerningGroup = H;
unicode = 0048;
},
{
glyphname = I;
lastChange = "2017-09-15 19:18:46 +0000";
layers = (
{
anchors = (
{
name = bottom;
position = "{143, 0}";
},
{
name = ogonek;
position = "{153, 0}";
},
{
name = top;
position = "{143, 700}";
},
{
name = topleft;
position = "{41, 699}";
}
);
layerId = UUID0;
paths = (
{
closed = 1;
nodes = (
"153 0 LINE",
"153 700 LINE",
"133 700 LINE",
"133 0 LINE"
);
}
);
width = 286;
},
{
anchors = (
{
name = bottom;
position = "{175, 0}";
},
{
name = ogonek;
position = "{293, 0}";
},
{
name = top;
position = "{175, 700}";
},
{
name = topleft;
position = "{-9, 700}";
}
);
layerId = "5DA6E103-6A94-47F2-987D-4952DB8EA68E";
paths = (
{
closed = 1;
nodes = (
"293 0 LINE",
"293 700 LINE",
"57 700 LINE",
"57 0 LINE"
);
}
);
width = 350;
}
);
leftKerningGroup = H;
leftMetricsKey = H;
rightKerningGroup = H;
rightMetricsKey = H;
unicode = 0049;
},
{
glyphname = IJ;
lastChange = "2017-09-15 19:18:46 +0000";
layers = (
{
anchors = (
{
name = top;
position = "{167, 700}";
}
);
background = {
paths = (
{
closed = 1;
nodes = (
"504 -3 OFFCURVE",
"607 95 OFFCURVE",
"607 293 CURVE SMOOTH",
"607 700 LINE",
"587 700 LINE",
"587 294 LINE SMOOTH",
"587 107 OFFCURVE",
"496 16 OFFCURVE",
"338 16 CURVE SMOOTH",
"253 16 OFFCURVE",
"185 39 OFFCURVE",
"132 78 CURVE",
"120 62 LINE",
"174 24 OFFCURVE",
"247 -3 OFFCURVE",
"337 -3 CURVE SMOOTH"
);
},
{
closed = 1;
nodes = (
"147 270 LINE",
"147 700 LINE",
"127 700 LINE",
"127 270 LINE"
);
}
);
};
guideLines = (
{
angle = 90;
position = "{117, 186}";
}
);
layerId = UUID0;
paths = (
{
closed = 1;
nodes = (
"484 -3 OFFCURVE",
"587 95 OFFCURVE",
"587 293 CURVE SMOOTH",
"587 700 LINE",
"567 700 LINE",
"567 294 LINE SMOOTH",
"567 107 OFFCURVE",
"476 16 OFFCURVE",
"328 16 CURVE SMOOTH",
"253 16 OFFCURVE",
"185 39 OFFCURVE",
"132 78 CURVE",
"120 62 LINE",
"174 24 OFFCURVE",
"247 -3 OFFCURVE",
"327 -3 CURVE SMOOTH"
);
},
{
closed = 1;
nodes = (
"147 290 LINE",
"147 700 LINE",
"127 700 LINE",
"127 290 LINE"
);
}
);
width = 714;
},
{
anchors = (
{
name = top;
position = "{169, 700}";
}
);
background = {
paths = (
{
closed = 1;
nodes = (
"558 -116 OFFCURVE",
"698 5 OFFCURVE",
"698 225 CURVE SMOOTH",
"698 700 LINE",
"462 700 LINE",
"462 212 LINE SMOOTH",
"462 115 OFFCURVE",
"424 72 OFFCURVE",
"327 72 CURVE SMOOTH",
"258 72 OFFCURVE",
"183 94 OFFCURVE",
"117 136 CURVE",
"31 -31 LINE",
"104 -83 OFFCURVE",
"208 -116 OFFCURVE",
"338 -116 CURVE SMOOTH"
);
},
{
closed = 1;
nodes = (
"287 230 LINE",
"287 700 LINE",
"51 700 LINE",
"51 230 LINE"
);
}
);
};
layerId = "5DA6E103-6A94-47F2-987D-4952DB8EA68E";
paths = (
{
closed = 1;
nodes = (
"538 -10 OFFCURVE",
"678 111 OFFCURVE",
"678 331 CURVE SMOOTH",
"678 700 LINE",
"442 700 LINE",
"442 318 LINE SMOOTH",
"442 221 OFFCURVE",
"404 178 OFFCURVE",
"317 178 CURVE SMOOTH",
"258 178 OFFCURVE",
"183 200 OFFCURVE",
"117 242 CURVE",
"31 75 LINE",
"104 23 OFFCURVE",
"208 -10 OFFCURVE",
"328 -10 CURVE SMOOTH"
);
},
{
closed = 1;
nodes = (
"287 336 LINE",
"287 700 LINE",
"51 700 LINE",
"51 336 LINE"
);
}
);
width = 729;
}
);
leftKerningGroup = H;
rightKerningGroup = U;
rightMetricsKey = U;
unicode = 0132;
},
{
glyphname = J;
lastChange = "2017-09-19 11:09:12 +0000";
layers = (
{
anchors = (
{
name = top;
position = "{209, 700}";
}
);
background = {
paths = (
{
closed = 1;
nodes = (
"350 699 LINE",
"68 699 LINE",
"68 679 LINE",
"330 679 LINE",
"330 197 LINE",
"330 82 OFFCURVE",
"276 20 OFFCURVE",
"178 20 CURVE",
"115 20 OFFCURVE",
"59 52 OFFCURVE",
"18 112 CURVE",
"4 98 LINE",
"48 35 OFFCURVE",
"110 0 OFFCURVE",
"178 0 CURVE",
"289 0 OFFCURVE",
"350 70 OFFCURVE",
"350 197 CURVE"
);
}
);
};
layerId = UUID0;
paths = (
{
closed = 1;
nodes = (
"292 -3 OFFCURVE",
"350 63 OFFCURVE",
"350 194 CURVE SMOOTH",
"350 700 LINE",
"68 700 LINE",
"68 681 LINE",
"330 681 LINE",
"330 196 LINE SMOOTH",
"330 74 OFFCURVE",
"281 16 OFFCURVE",
"179 16 CURVE SMOOTH",
"113 16 OFFCURVE",
"56 49 OFFCURVE",
"18 108 CURVE",
"4 96 LINE",
"41 34 OFFCURVE",
"107 -3 OFFCURVE",
"178 -3 CURVE SMOOTH"
);
}
);
width = 477;
},
{
anchors = (
{
name = top;
position = "{288, 700}";
}
);
background = {
paths = (
{
closed = 1;
nodes = (
"422 -16 OFFCURVE",
"523 78 OFFCURVE",
"523 270 CURVE SMOOTH",
"523 700 LINE",
"52 700 LINE",
"52 522 LINE",
"290 522 LINE",
"290 260 LINE SMOOTH",
"290 203 OFFCURVE",
"263 175 OFFCURVE",
"214 175 CURVE SMOOTH",
"175 175 OFFCURVE",
"140 194 OFFCURVE",
"103 238 CURVE",
"-24 88 LINE",
"34 20 OFFCURVE",
"125 -16 OFFCURVE",
"234 -16 CURVE SMOOTH"
);
}
);
};
layerId = "5DA6E103-6A94-47F2-987D-4952DB8EA68E";
paths = (
{
closed = 1;
nodes = (
"422 -16 OFFCURVE",
"522 78 OFFCURVE",
"522 270 CURVE SMOOTH",
"522 700 LINE",
"52 700 LINE",
"52 522 LINE",
"290 522 LINE",
"290 256 LINE SMOOTH",
"290 199 OFFCURVE",
"263 169 OFFCURVE",
"214 169 CURVE SMOOTH",
"175 169 OFFCURVE",
"140 192 OFFCURVE",
"103 238 CURVE",
"-24 88 LINE",
"34 20 OFFCURVE",
"125 -16 OFFCURVE",
"234 -16 CURVE SMOOTH"
);
}
);
width = 574;
}
);
leftKerningGroup = J;
rightKerningGroup = U;
rightMetricsKey = U;
unicode = 004A;
},
{
glyphname = K;
lastChange = "2017-09-15 19:18:46 +0000";
layers = (
{
anchors = (
{
name = bottom;
position = "{372, 0}";
},
{
name = top;
position = "{372, 701}";
}
);
background = {
paths = (
{
closed = 1;
nodes = (
"330 366 LINE",
"342 377 LINE",
"656 700 LINE",
"629 700 LINE",
"151 209 LINE",
"151 182 LINE"
);
},
{
closed = 1;
nodes = (
"155 0 LINE",
"155 700 LINE",
"135 700 LINE",
"135 0 LINE"
);
},
{
closed = 1;
nodes = (
"679 0 LINE",
"334 390 LINE",
"319 377 LINE",
"652 0 LINE"
);
}
);
};
layerId = UUID0;
paths = (
{
closed = 1;
nodes = (
"330 366 LINE",
"342 377 LINE",
"656 700 LINE",
"629 700 LINE",
"151 209 LINE",
"151 182 LINE"
);
},
{
closed = 1;
nodes = (
"155 0 LINE",
"155 700 LINE",
"135 700 LINE",
"135 0 LINE"
);
},
{
closed = 1;
nodes = (
"679 0 LINE",
"334 390 LINE",
"319 377 LINE",
"652 0 LINE"
);
}
);
width = 669;
},
{
anchors = (
{
name = bottom;
position = "{384, 0}";
},
{
name = top;
position = "{384, 700}";
}
);
background = {
paths = (
{
closed = 1;
nodes = (
"349 240 LINE",
"480 374 LINE",
"776 700 LINE",
"519 700 LINE",
"255 409 LINE",
"268 150 LINE"
);
},
{
closed = 1;
nodes = (
"289 0 LINE",
"289 700 LINE",
"57 700 LINE",
"57 0 LINE"
);
},
{
closed = 1;
nodes = (
"790 0 LINE",
"464 434 LINE",
"311 272 LINE",
"517 0 LINE"
);
}
);
};
layerId = "5DA6E103-6A94-47F2-987D-4952DB8EA68E";
paths = (
{
closed = 1;
nodes = (
"349 240 LINE",
"480 374 LINE",
"776 700 LINE",
"519 700 LINE",
"255 409 LINE",
"268 150 LINE"
);
},
{
closed = 1;
nodes = (
"289 0 LINE",
"289 700 LINE",
"57 700 LINE",
"57 0 LINE"
);
},
{
closed = 1;
nodes = (
"790 0 LINE",
"464 434 LINE",
"311 272 LINE",
"517 0 LINE"
);
}
);
width = 784;
},
{
anchors = (
{
name = bottom;
position = "{370, 0}";
},
{
name = top;
position = "{370, 700}";
}
);
associatedMasterId = UUID0;
background = {
paths = (
{
closed = 1;
nodes = (
"143 184 LINE",
"321 371 LINE",
"332 382 LINE",
"635 700 LINE",
"607 700 LINE",
"142 212 LINE"
);
},
{
closed = 1;
nodes = (
"313 377 LINE",
"639 0 LINE",
"666 0 LINE",
"328 390 LINE"
);
},
{
closed = 1;
nodes = (
"153 700 LINE",
"133 700 LINE",
"133 0 LINE",
"153 0 LINE"
);
},
{
closed = 1;
nodes = (
"133 0 LINE",
"153 0 LINE",
"153 346 LINE",
"663 346 LINE",
"663 0 LINE",
"683 0 LINE",
"683 700 LINE",
"663 700 LINE",
"663 365 LINE",
"153 365 LINE",
"153 700 LINE",
"133 700 LINE"
);
}
);
};
layerId = "5361F362-C848-4DCE-B59D-BDD7436A6925";
name = "Sep 14 17, 15:04";
paths = (
{
closed = 1;
nodes = (
"328 366 LINE",
"340 377 LINE",
"654 700 LINE",
"627 700 LINE",
"149 209 LINE",
"149 182 LINE"
);
},
{
closed = 1;
nodes = (
"153 0 LINE",
"153 700 LINE",
"133 700 LINE",
"133 0 LINE"
);
},
{
closed = 1;
nodes = (
"677 0 LINE",
"332 390 LINE",
"317 377 LINE",
"650 0 LINE"
);
}
);
width = 693;
},
{
anchors = (
{
name = bottom;
position = "{384, 0}";
},
{
name = top;
position = "{384, 700}";
}
);
associatedMasterId = "5DA6E103-6A94-47F2-987D-4952DB8EA68E";
background = {
paths = (
{
closed = 1;
nodes = (
"274 154 LINE",
"355 253 LINE",
"478 387 LINE",
"737 700 LINE",
"486 700 LINE",
"249 413 LINE"
);
},
{
closed = 1;
nodes = (
"319 262 LINE",
"501 0 LINE",
"767 0 LINE",
"465 428 LINE"
);
},
{
closed = 1;
nodes = (
"289 700 LINE",
"57 700 LINE",
"57 0 LINE",
"289 0 LINE"
);
},
{
closed = 1;
nodes = (
"57 0 LINE",
"293 0 LINE",
"293 258 LINE",
"511 258 LINE",
"511 0 LINE",
"747 0 LINE",
"747 700 LINE",
"511 700 LINE",
"511 452 LINE",
"293 452 LINE",
"293 700 LINE",
"57 700 LINE"
);
}
);
};
guideLines = (
{
angle = 48.4917;
position = "{625, 544}";
}
);
layerId = "5ED6980B-9D4E-4B0D-A77A-F3332AD98EB8";
name = "Sep 14 17, 15:04";
paths = (
{
closed = 1;
nodes = (
"349 240 LINE",
"480 374 LINE",
"776 700 LINE",
"519 700 LINE",
"255 409 LINE",
"268 150 LINE"
);
},
{
closed = 1;
nodes = (
"289 0 LINE",
"289 700 LINE",
"57 700 LINE",
"57 0 LINE"
);
},
{
closed = 1;
nodes = (
"790 0 LINE",
"464 434 LINE",
"311 272 LINE",
"517 0 LINE"
);
}
);
width = 765;
}
);
leftKerningGroup = H;
leftMetricsKey = H;
rightKerningGroup = K;
unicode = 004B;
},
{
glyphname = L;
lastChange = "2017-09-15 19:18:46 +0000";
layers = (
{
anchors = (
{
name = bottom;
position = "{333, 0}";
},
{
name = center;
position = "{143, 360}";
},
{
name = dot;
position = "{395, 360}";
},
{
name = top;
position = "{143, 700}";
},
{
name = topright;
position = "{405, 700}";
}
);
background = {
paths = (
{
closed = 1;
nodes = (
"128 0 LINE",
"461 0 LINE",
"461 20 LINE",
"148 20 LINE",
"148 699 LINE",
"128 699 LINE"
);
},
{
closed = 1;
nodes = (
"570 0 LINE",
"570 19 LINE",
"153 19 LINE",
"153 700 LINE",
"133 700 LINE",
"133 0 LINE"
);
}
);
};
guideLines = (
{
angle = 90;
position = "{466, 20}";
}
);
layerId = UUID0;
paths = (
{
closed = 1;
nodes = (
"514 0 LINE",
"514 19 LINE",
"153 19 LINE",
"153 700 LINE",
"133 700 LINE",
"133 0 LINE"
);
}
);
width = 520;
},
{
anchors = (
{
name = bottom;
position = "{340, 0}";
},
{
name = center;
position = "{175, 400}";
},
{
name = dot;
position = "{477, 441}";
},
{
name = top;
position = "{175, 700}";
},
{
name = topright;
position = "{416, 700}";
}
);
background = {
paths = (
{
closed = 1;
nodes = (
"54 0 LINE",
"578 0 LINE",
"578 193 LINE",
"286 193 LINE",
"286 701 LINE",
"54 701 LINE"
);
}
);
};
guideLines = (
{
angle = 90;
position = "{581, 193}";
}
);
layerId = "5DA6E103-6A94-47F2-987D-4952DB8EA68E";
paths = (
{
closed = 1;
nodes = (
"599 0 LINE",
"599 183 LINE",
"293 183 LINE",
"293 700 LINE",
"61 700 LINE",
"61 0 LINE"
);
}
);
width = 618;
}
);
leftKerningGroup = H;
leftMetricsKey = H;
rightKerningGroup = L;
unicode = 004C;
},
{
glyphname = O;
lastChange = "2017-09-15 19:18:46 +0000";
layers = (
{
anchors = (
{
name = bottom;
position = "{418, 0}";
},
{
name = center;
position = "{418, 350}";
},
{
name = ogonek;
position = "{469, 0}";
},
{
name = top;
position = "{418, 700}";
},
{
name = topleft;
position = "{59, 700}";
},
{
name = topright;
position = "{667, 700}";
}
);
background = {
paths = (
{
closed = 1;
nodes = (
"623 -3 OFFCURVE",
"777 148 OFFCURVE",
"777 350 CURVE SMOOTH",
"777 552 OFFCURVE",
"623 703 OFFCURVE",
"418 703 CURVE SMOOTH",
"213 703 OFFCURVE",
"59 552 OFFCURVE",
"59 350 CURVE SMOOTH",
"59 148 OFFCURVE",
"213 -3 OFFCURVE",
"418 -3 CURVE SMOOTH"
);
},
{
closed = 1;
nodes = (
"225 16 OFFCURVE",
"79 161 OFFCURVE",
"79 350 CURVE SMOOTH",
"79 539 OFFCURVE",
"225 684 OFFCURVE",
"418 684 CURVE SMOOTH",
"611 684 OFFCURVE",
"757 539 OFFCURVE",
"757 350 CURVE SMOOTH",
"757 161 OFFCURVE",
"611 16 OFFCURVE",
"418 16 CURVE SMOOTH"
);
}
);
};
guideLines = (
{
angle = 90;
position = "{777, 723}";
}
);
layerId = UUID0;
paths = (
{
closed = 1;
nodes = (
"623 -3 OFFCURVE",
"777 148 OFFCURVE",
"777 350 CURVE SMOOTH",
"777 552 OFFCURVE",
"623 703 OFFCURVE",
"418 703 CURVE SMOOTH",
"213 703 OFFCURVE",
"59 552 OFFCURVE",
"59 350 CURVE SMOOTH",
"59 148 OFFCURVE",
"213 -3 OFFCURVE",
"418 -3 CURVE SMOOTH"
);
},
{
closed = 1;
nodes = (
"225 16 OFFCURVE",
"79 159 OFFCURVE",
"79 350 CURVE SMOOTH",
"79 541 OFFCURVE",
"225 684 OFFCURVE",
"418 684 CURVE SMOOTH",
"611 684 OFFCURVE",
"757 541 OFFCURVE",
"757 350 CURVE SMOOTH",
"757 159 OFFCURVE",
"611 16 OFFCURVE",
"418 16 CURVE SMOOTH"
);
}
);
width = 836;
},
{
anchors = (
{
name = bottom;
position = "{424, 0}";
},
{
name = center;
position = "{424, 350}";
},
{
name = ogonek;
position = "{547, 0}";
},
{
name = top;
position = "{424, 700}";
},
{
name = topleft;
position = "{34, 700}";
},
{
name = topright;
position = "{590, 700}";
}
);
background = {
paths = (
{
closed = 1;
nodes = (
"196 716 OFFCURVE",
"29 562 OFFCURVE",
"29 350 CURVE SMOOTH",
"29 138 OFFCURVE",
"196 -16 OFFCURVE",
"424 -16 CURVE SMOOTH",
"652 -16 OFFCURVE",
"819 138 OFFCURVE",
"819 350 CURVE SMOOTH",
"819 562 OFFCURVE",
"652 716 OFFCURVE",
"424 716 CURVE SMOOTH"
);
},
{
closed = 1;
nodes = (
"511 523 OFFCURVE",
"581 458 OFFCURVE",
"581 350 CURVE SMOOTH",
"581 242 OFFCURVE",
"511 177 OFFCURVE",
"424 177 CURVE SMOOTH",
"337 177 OFFCURVE",
"267 242 OFFCURVE",
"267 350 CURVE SMOOTH",
"267 458 OFFCURVE",
"337 523 OFFCURVE",
"424 523 CURVE SMOOTH"
);
}
);
};
guideLines = (
{
angle = 90;
position = "{819, 664}";
}
);
layerId = "5DA6E103-6A94-47F2-987D-4952DB8EA68E";
paths = (
{
closed = 1;
nodes = (
"652 -16 OFFCURVE",
"819 138 OFFCURVE",
"819 350 CURVE SMOOTH",
"819 562 OFFCURVE",
"652 716 OFFCURVE",
"424 716 CURVE SMOOTH",
"196 716 OFFCURVE",
"29 562 OFFCURVE",
"29 350 CURVE SMOOTH",
"29 138 OFFCURVE",
"196 -16 OFFCURVE",
"424 -16 CURVE SMOOTH"
);
},
{
closed = 1;
nodes = (
"337 175 OFFCURVE",
"267 241 OFFCURVE",
"267 350 CURVE SMOOTH",
"267 459 OFFCURVE",
"337 525 OFFCURVE",
"424 525 CURVE SMOOTH",
"511 525 OFFCURVE",
"581 459 OFFCURVE",
"581 350 CURVE SMOOTH",
"581 241 OFFCURVE",
"511 175 OFFCURVE",
"424 175 CURVE SMOOTH"
);
}
);
width = 848;
}
);
leftKerningGroup = O;
rightKerningGroup = O;
rightMetricsKey = "=|";
unicode = 004F;
},
{
glyphname = Ohorn;
lastChange = "2017-09-15 19:18:46 +0000";
layers = (
{
anchors = (
{
name = bottom;
position = "{418, 0}";
},
{
name = top;
position = "{418, 700}";
}
);
background = {
paths = (
{
closed = 1;
nodes = (
"623 -3 OFFCURVE",
"777 148 OFFCURVE",
"777 350 CURVE SMOOTH",
"777 506 OFFCURVE",
"685 632 OFFCURVE",
"548 680 CURVE",
"418 703 LINE",
"213 703 OFFCURVE",
"59 552 OFFCURVE",
"59 350 CURVE SMOOTH",
"59 148 OFFCURVE",
"213 -3 OFFCURVE",
"418 -3 CURVE SMOOTH"
);
},
{
closed = 1;
nodes = (
"225 16 OFFCURVE",
"79 161 OFFCURVE",
"79 350 CURVE SMOOTH",
"79 539 OFFCURVE",
"225 684 OFFCURVE",
"418 684 CURVE SMOOTH",
"611 684 OFFCURVE",
"757 539 OFFCURVE",
"757 350 CURVE SMOOTH",
"757 161 OFFCURVE",
"611 16 OFFCURVE",
"418 16 CURVE SMOOTH"
);
},
{
closed = 1;
nodes = (
"717 837 LINE",
"728 818 OFFCURVE",
"737 796 OFFCURVE",
"737 770 CURVE SMOOTH",
"737 715 OFFCURVE",
"701 688 OFFCURVE",
"627 688 CURVE SMOOTH",
"561 688 OFFCURVE",
"504 703 OFFCURVE",
"418 703 CURVE",
"418 692 LINE",
"494 686 OFFCURVE",
"561 669 OFFCURVE",
"627 669 CURVE SMOOTH",
"714 669 OFFCURVE",
"757 703 OFFCURVE",
"757 771 CURVE SMOOTH",
"757 797 OFFCURVE",
"748 825 OFFCURVE",
"735 845 CURVE"
);
}
);
};
layerId = UUID0;
paths = (
{
closed = 1;
nodes = (
"623 -3 OFFCURVE",
"777 148 OFFCURVE",
"777 350 CURVE SMOOTH",
"777 501 OFFCURVE",
"688 631 OFFCURVE",
"548 680 CURVE",
"535 677 LINE",
"564 672 OFFCURVE",
"605 669 OFFCURVE",
"627 669 CURVE SMOOTH",
"714 669 OFFCURVE",
"757 703 OFFCURVE",
"757 771 CURVE SMOOTH",
"757 797 OFFCURVE",
"748 825 OFFCURVE",
"735 845 CURVE",
"717 837 LINE",
"728 818 OFFCURVE",
"737 796 OFFCURVE",
"737 770 CURVE SMOOTH",
"737 715 OFFCURVE",
"701 688 OFFCURVE",
"627 688 CURVE SMOOTH",
"561 688 OFFCURVE",
"504 703 OFFCURVE",
"418 703 CURVE SMOOTH",
"213 703 OFFCURVE",
"59 552 OFFCURVE",
"59 350 CURVE SMOOTH",
"59 148 OFFCURVE",
"213 -3 OFFCURVE",
"418 -3 CURVE SMOOTH"
);
},
{
closed = 1;
nodes = (
"225 16 OFFCURVE",
"79 161 OFFCURVE",
"79 350 CURVE SMOOTH",
"79 539 OFFCURVE",
"225 684 OFFCURVE",
"418 684 CURVE SMOOTH",
"611 684 OFFCURVE",
"757 539 OFFCURVE",
"757 350 CURVE SMOOTH",
"757 161 OFFCURVE",
"611 16 OFFCURVE",
"418 16 CURVE SMOOTH"
);
}
);
width = 836;
},
{
anchors = (
{
name = bottom;
position = "{424, 0}";
},
{
name = top;
position = "{424, 700}";
}
);
background = {
paths = (
{
closed = 1;
nodes = (
"652 -16 OFFCURVE",
"819 138 OFFCURVE",
"819 350 CURVE SMOOTH",
"819 466 OFFCURVE",
"769 564 OFFCURVE",
"687 630 CURVE",
"434 716 LINE",
"196 716 OFFCURVE",
"29 562 OFFCURVE",
"29 350 CURVE SMOOTH",
"29 138 OFFCURVE",
"196 -16 OFFCURVE",
"424 -16 CURVE SMOOTH"
);
},
{
closed = 1;
nodes = (
"337 175 OFFCURVE",
"267 241 OFFCURVE",
"267 350 CURVE SMOOTH",
"267 459 OFFCURVE",
"337 525 OFFCURVE",
"424 525 CURVE SMOOTH",
"511 525 OFFCURVE",
"581 459 OFFCURVE",
"581 350 CURVE SMOOTH",
"581 241 OFFCURVE",
"511 175 OFFCURVE",
"424 175 CURVE SMOOTH"
);
},
{
closed = 1;
nodes = (
"645 818 LINE",
"657 804 OFFCURVE",
"665 783 OFFCURVE",
"665 761 CURVE SMOOTH",
"665 724 OFFCURVE",
"638 703 OFFCURVE",
"598 703 CURVE SMOOTH",
"547 703 OFFCURVE",
"505 716 OFFCURVE",
"434 716 CURVE",
"424 581 LINE",
"479 574 OFFCURVE",
"535 564 OFFCURVE",
"600 564 CURVE SMOOTH",
"742 564 OFFCURVE",
"830 633 OFFCURVE",
"830 752 CURVE SMOOTH",
"830 797 OFFCURVE",
"816 834 OFFCURVE",
"793 863 CURVE"
);
}
);
};
layerId = "5DA6E103-6A94-47F2-987D-4952DB8EA68E";
paths = (
{
closed = 1;
nodes = (
"652 -16 OFFCURVE",
"819 138 OFFCURVE",
"819 350 CURVE SMOOTH",
"819 468 OFFCURVE",
"766 564 OFFCURVE",
"684 625 CURVE",
"424 581 LINE",
"479 574 OFFCURVE",
"535 564 OFFCURVE",
"600 564 CURVE SMOOTH",
"742 564 OFFCURVE",
"830 633 OFFCURVE",
"830 752 CURVE SMOOTH",
"830 797 OFFCURVE",
"816 834 OFFCURVE",
"793 863 CURVE",
"645 818 LINE",
"657 804 OFFCURVE",
"665 783 OFFCURVE",
"665 761 CURVE SMOOTH",
"665 724 OFFCURVE",
"638 703 OFFCURVE",
"598 703 CURVE SMOOTH",
"557 703 OFFCURVE",
"505 716 OFFCURVE",
"434 716 CURVE SMOOTH",
"196 716 OFFCURVE",
"29 562 OFFCURVE",
"29 350 CURVE SMOOTH",
"29 138 OFFCURVE",
"196 -16 OFFCURVE",
"424 -16 CURVE SMOOTH"
);
},
{
closed = 1;
nodes = (
"337 175 OFFCURVE",
"267 241 OFFCURVE",
"267 350 CURVE SMOOTH",
"267 459 OFFCURVE",
"337 525 OFFCURVE",
"424 525 CURVE SMOOTH",
"511 525 OFFCURVE",
"581 459 OFFCURVE",
"581 350 CURVE SMOOTH",
"581 241 OFFCURVE",
"511 175 OFFCURVE",
"424 175 CURVE SMOOTH"
);
}
);
width = 848;
}
);
leftKerningGroup = O;
leftMetricsKey = O;
widthMetricsKey = O;
rightKerningGroup = O;
unicode = 01A0;
},
{
glyphname = P;
lastChange = "2017-09-15 19:18:46 +0000";
layers = (
{
guideLines = (
{
angle = 90;
position = "{645, 470}";
},
{
angle = 90;
position = "{683, 470}";
}
);
layerId = UUID0;
paths = (
{
closed = 1;
nodes = (
"153 0 LINE",
"153 249 LINE",
"144 240 LINE",
"370 240 LINE SMOOTH",
"542 240 OFFCURVE",
"645 325 OFFCURVE",
"645 470 CURVE SMOOTH",
"645 615 OFFCURVE",
"542 700 OFFCURVE",
"370 700 CURVE SMOOTH",
"133 700 LINE",
"133 0 LINE"
);
},
{
closed = 1;
nodes = (
"153 689 LINE",
"144 681 LINE",
"372 681 LINE SMOOTH",
"536 681 OFFCURVE",
"625 604 OFFCURVE",
"625 470 CURVE SMOOTH",
"625 336 OFFCURVE",
"536 259 OFFCURVE",
"372 259 CURVE SMOOTH",
"144 259 LINE",
"153 251 LINE"
);
}
);
width = 710;
},
{
background = {
paths = (
{
closed = 1;
nodes = (
"57 700 LINE",
"57 0 LINE",
"293 0 LINE",
"293 273 LINE",
"188 172 LINE",
"394 172 LINE SMOOTH",
"588 172 OFFCURVE",
"713 273 OFFCURVE",
"713 436 CURVE SMOOTH",
"713 599 OFFCURVE",
"588 700 OFFCURVE",
"394 700 CURVE SMOOTH"
);
},
{
closed = 1;
nodes = (
"188 354 LINE",
"293 247 LINE",
"293 625 LINE",
"188 518 LINE",
"388 518 LINE SMOOTH",
"444 518 OFFCURVE",
"480 485 OFFCURVE",
"480 436 CURVE SMOOTH",
"480 387 OFFCURVE",
"444 354 OFFCURVE",
"388 354 CURVE SMOOTH"
);
}
);
};
layerId = "5DA6E103-6A94-47F2-987D-4952DB8EA68E";
paths = (
{
closed = 1;
nodes = (
"293 0 LINE",
"293 223 LINE",
"238 172 LINE",
"394 172 LINE SMOOTH",
"589 172 OFFCURVE",
"713 274 OFFCURVE",
"713 436 CURVE SMOOTH",
"713 598 OFFCURVE",
"589 700 OFFCURVE",
"394 700 CURVE SMOOTH",
"57 700 LINE",
"57 0 LINE"
);
},
{
closed = 1;
nodes = (
"293 575 LINE",
"238 518 LINE",
"379 518 LINE SMOOTH",
"444 518 OFFCURVE",
"475 487 OFFCURVE",
"475 436 CURVE SMOOTH",
"475 385 OFFCURVE",
"444 354 OFFCURVE",
"379 354 CURVE SMOOTH",
"238 354 LINE",
"293 297 LINE"
);
}
);
width = 743;
}
);
leftKerningGroup = H;
leftMetricsKey = H;
rightKerningGroup = P;
unicode = 0050;
},
{
glyphname = Thorn;
lastChange = "2017-09-15 19:18:46 +0000";
layers = (
{
background = {
paths = (
{
closed = 1;
nodes = (
"133 599 LINE",
"133 -101 LINE",
"153 -101 LINE",
"153 148 LINE",
"144 139 LINE",
"370 139 LINE SMOOTH",
"542 139 OFFCURVE",
"645 224 OFFCURVE",
"645 369 CURVE SMOOTH",
"645 514 OFFCURVE",
"542 599 OFFCURVE",
"370 599 CURVE SMOOTH"
);
},
{
closed = 1;
nodes = (
"144 158 LINE",
"153 150 LINE",
"153 588 LINE",
"144 580 LINE",
"372 580 LINE SMOOTH",
"536 580 OFFCURVE",
"625 503 OFFCURVE",
"625 369 CURVE SMOOTH",
"625 235 OFFCURVE",
"536 158 OFFCURVE",
"372 158 CURVE SMOOTH"
);
}
);
};
layerId = UUID0;
paths = (
{
closed = 1;
nodes = (
"370 139 LINE SMOOTH",
"542 139 OFFCURVE",
"645 224 OFFCURVE",
"645 369 CURVE SMOOTH",
"645 514 OFFCURVE",
"542 599 OFFCURVE",
"370 599 CURVE SMOOTH",
"144 599 LINE",
"144 580 LINE",
"372 580 LINE SMOOTH",
"536 580 OFFCURVE",
"625 503 OFFCURVE",
"625 369 CURVE SMOOTH",
"625 235 OFFCURVE",
"536 158 OFFCURVE",
"372 158 CURVE SMOOTH",
"144 158 LINE",
"144 139 LINE"
);
},
{
closed = 1;
nodes = (
"153 0 LINE",
"153 699 LINE",
"133 699 LINE",
"133 0 LINE"
);
}
);
width = 710;
},
{
background = {
paths = (
{
closed = 1;
nodes = (
"57 633 LINE",
"57 -67 LINE",
"293 -67 LINE",
"293 206 LINE",
"188 105 LINE",
"394 105 LINE SMOOTH",
"589 105 OFFCURVE",
"713 207 OFFCURVE",
"713 369 CURVE SMOOTH",
"713 531 OFFCURVE",
"589 633 OFFCURVE",
"394 633 CURVE SMOOTH"
);
},
{
closed = 1;
nodes = (
"188 287 LINE",
"293 180 LINE",
"293 558 LINE",
"188 451 LINE",
"379 451 LINE SMOOTH",
"444 451 OFFCURVE",
"475 420 OFFCURVE",
"475 369 CURVE SMOOTH",
"475 318 OFFCURVE",
"444 287 OFFCURVE",
"379 287 CURVE SMOOTH"
);
}
);
};
layerId = "5DA6E103-6A94-47F2-987D-4952DB8EA68E";
paths = (
{
closed = 1;
nodes = (
"394 105 LINE SMOOTH",
"589 105 OFFCURVE",
"713 207 OFFCURVE",
"713 369 CURVE SMOOTH",
"713 531 OFFCURVE",
"589 633 OFFCURVE",
"394 633 CURVE SMOOTH",
"245 633 LINE",
"245 451 LINE",
"379 451 LINE SMOOTH",
"444 451 OFFCURVE",
"475 420 OFFCURVE",
"475 369 CURVE SMOOTH",
"475 318 OFFCURVE",
"444 287 OFFCURVE",
"379 287 CURVE SMOOTH",
"245 287 LINE",
"245 105 LINE"
);
},
{
closed = 1;
nodes = (
"293 0 LINE",
"293 701 LINE",
"57 701 LINE",
"57 0 LINE"
);
}
);
width = 743;
}
);
leftKerningGroup = H;
leftMetricsKey = H;
rightKerningGroup = Thorn;
rightMetricsKey = P;
unicode = 00DE;
},
{
glyphname = Q;
lastChange = "2017-09-15 19:18:46 +0000";
layers = (
{
anchors = (
{
name = top;
position = "{418, 700}";
}
);
background = {
paths = (
{
closed = 1;
nodes = (
"438 3 LINE",
"517 -82 OFFCURVE",
"588 -124 OFFCURVE",
"657 -124 CURVE SMOOTH",
"710 -124 OFFCURVE",
"763 -99 OFFCURVE",
"817 -48 CURVE",
"803 -34 LINE",
"753 -81 OFFCURVE",
"705 -105 OFFCURVE",
"657 -105 CURVE SMOOTH",
"594 -105 OFFCURVE",
"529 -65 OFFCURVE",
"452 17 CURVE"
);
},
{
closed = 1;
nodes = (
"221 703 OFFCURVE",
"59 544 OFFCURVE",
"59 351 CURVE SMOOTH",
"59 157 OFFCURVE",
"221 -3 OFFCURVE",
"418 -3 CURVE SMOOTH",
"615 -3 OFFCURVE",
"777 157 OFFCURVE",
"777 351 CURVE SMOOTH",
"777 544 OFFCURVE",
"615 703 OFFCURVE",
"418 703 CURVE SMOOTH"
);
},
{
closed = 1;
nodes = (
"604 683 OFFCURVE",
"757 533 OFFCURVE",
"757 351 CURVE SMOOTH",
"757 168 OFFCURVE",
"604 17 OFFCURVE",
"418 17 CURVE SMOOTH",
"232 17 OFFCURVE",
"79 168 OFFCURVE",
"79 351 CURVE SMOOTH",
"79 533 OFFCURVE",
"232 683 OFFCURVE",
"418 683 CURVE SMOOTH"
);
}
);
};
layerId = UUID0;
paths = (
{
closed = 1;
nodes = (
"623 -3 OFFCURVE",
"777 148 OFFCURVE",
"777 350 CURVE SMOOTH",
"777 552 OFFCURVE",
"623 703 OFFCURVE",
"418 703 CURVE SMOOTH",
"213 703 OFFCURVE",
"59 552 OFFCURVE",
"59 350 CURVE SMOOTH",
"59 148 OFFCURVE",
"213 -3 OFFCURVE",
"418 -3 CURVE SMOOTH"
);
},
{
closed = 1;
nodes = (
"711 -124 OFFCURVE",
"766 -98 OFFCURVE",
"807 -48 CURVE",
"793 -34 LINE",
"753 -82 OFFCURVE",
"706 -105 OFFCURVE",
"648 -105 CURVE SMOOTH",
"585 -105 OFFCURVE",
"519 -67 OFFCURVE",
"451 8 CURVE",
"425 3 LINE",
"509 -85 OFFCURVE",
"577 -124 OFFCURVE",
"648 -124 CURVE SMOOTH"
);
},
{
closed = 1;
nodes = (
"225 16 OFFCURVE",
"79 161 OFFCURVE",
"79 350 CURVE SMOOTH",
"79 539 OFFCURVE",
"225 684 OFFCURVE",
"418 684 CURVE SMOOTH",
"611 684 OFFCURVE",
"757 539 OFFCURVE",
"757 350 CURVE SMOOTH",
"757 161 OFFCURVE",
"611 16 OFFCURVE",
"418 16 CURVE SMOOTH"
);
}
);
width = 836;
},
{
anchors = (
{
name = top;
position = "{425, 700}";
}
);
background = {
paths = (
{
closed = 1;
nodes = (
"302 20 LINE",
"425 -115 OFFCURVE",
"505 -177 OFFCURVE",
"643 -177 CURVE SMOOTH",
"727 -177 OFFCURVE",
"800 -153 OFFCURVE",
"857 -88 CURVE",
"755 32 LINE",
"724 1 OFFCURVE",
"690 -13 OFFCURVE",
"658 -13 CURVE SMOOTH",
"612 -13 OFFCURVE",
"589 12 OFFCURVE",
"556 80 CURVE"
);
},
{
closed = 1;
nodes = (
"196 716 OFFCURVE",
"29 562 OFFCURVE",
"29 350 CURVE SMOOTH",
"29 138 OFFCURVE",
"196 -16 OFFCURVE",
"424 -16 CURVE SMOOTH",
"652 -16 OFFCURVE",
"819 138 OFFCURVE",
"819 350 CURVE SMOOTH",
"819 562 OFFCURVE",
"652 716 OFFCURVE",
"424 716 CURVE SMOOTH"
);
},
{
closed = 1;
nodes = (
"511 525 OFFCURVE",
"581 459 OFFCURVE",
"581 350 CURVE SMOOTH",
"581 241 OFFCURVE",
"511 175 OFFCURVE",
"424 175 CURVE SMOOTH",
"337 175 OFFCURVE",
"267 241 OFFCURVE",
"267 350 CURVE SMOOTH",
"267 459 OFFCURVE",
"337 525 OFFCURVE",
"424 525 CURVE SMOOTH"
);
}
);
};
layerId = "5DA6E103-6A94-47F2-987D-4952DB8EA68E";
paths = (
{
closed = 1;
nodes = (
"652 -16 OFFCURVE",
"819 138 OFFCURVE",
"819 350 CURVE SMOOTH",
"819 562 OFFCURVE",
"652 716 OFFCURVE",
"424 716 CURVE SMOOTH",
"196 716 OFFCURVE",
"29 562 OFFCURVE",
"29 350 CURVE SMOOTH",
"29 138 OFFCURVE",
"196 -16 OFFCURVE",
"424 -16 CURVE SMOOTH"
);
},
{
closed = 1;
nodes = (
"737 -177 OFFCURVE",
"808 -146 OFFCURVE",
"857 -88 CURVE",
"755 32 LINE",
"726 3 OFFCURVE",
"692 -13 OFFCURVE",
"658 -13 CURVE SMOOTH",
"616 -13 OFFCURVE",
"593 6 OFFCURVE",
"546 80 CURVE",
"302 20 LINE",
"442 -133 OFFCURVE",
"521 -177 OFFCURVE",
"653 -177 CURVE SMOOTH"
);
},
{
closed = 1;
nodes = (
"337 175 OFFCURVE",
"267 241 OFFCURVE",
"267 350 CURVE SMOOTH",
"267 459 OFFCURVE",
"337 525 OFFCURVE",
"424 525 CURVE SMOOTH",
"511 525 OFFCURVE",
"581 459 OFFCURVE",
"581 350 CURVE SMOOTH",
"581 241 OFFCURVE",
"511 175 OFFCURVE",
"424 175 CURVE SMOOTH"
);
}
);
width = 848;
}
);
leftKerningGroup = O;
leftMetricsKey = O;
widthMetricsKey = O;
rightKerningGroup = O;
unicode = 0051;
},
{
glyphname = R;
lastChange = "2017-09-19 15:49:23 +0000";
layers = (
{
anchors = (
{
name = bottom;
position = "{366, 0}";
},
{
name = top;
position = "{366, 700}";
}
);
background = {
paths = (
{
closed = 1;
nodes = (
"133 700 LINE",
"133 0 LINE",
"153 0 LINE",
"153 249 LINE",
"144 240 LINE",
"370 240 LINE SMOOTH",
"542 240 OFFCURVE",
"645 325 OFFCURVE",
"645 470 CURVE SMOOTH",
"645 615 OFFCURVE",
"542 700 OFFCURVE",
"370 700 CURVE SMOOTH"
);
},
{
closed = 1;
nodes = (
"144 259 LINE",
"153 251 LINE",
"153 689 LINE",
"144 681 LINE",
"372 681 LINE SMOOTH",
"536 681 OFFCURVE",
"625 604 OFFCURVE",
"625 470 CURVE SMOOTH",
"625 336 OFFCURVE",
"536 259 OFFCURVE",
"372 259 CURVE SMOOTH"
);
}
);
};
layerId = UUID0;
paths = (
{
closed = 1;
nodes = (
"153 0 LINE",
"153 249 LINE",
"144 240 LINE",
"370 240 LINE SMOOTH",
"542 240 OFFCURVE",
"645 325 OFFCURVE",
"645 470 CURVE SMOOTH",
"645 615 OFFCURVE",
"542 700 OFFCURVE",
"370 700 CURVE SMOOTH",
"133 700 LINE",
"133 0 LINE"
);
},
{
closed = 1;
nodes = (
"655 0 LINE",
"472 254 LINE",
"447 254 LINE",
"630 0 LINE"
);
},
{
closed = 1;
nodes = (
"153 689 LINE",
"144 681 LINE",
"372 681 LINE SMOOTH",
"536 681 OFFCURVE",
"625 604 OFFCURVE",
"625 470 CURVE SMOOTH",
"625 336 OFFCURVE",
"536 259 OFFCURVE",
"372 259 CURVE SMOOTH",
"144 259 LINE",
"153 251 LINE"
);
}
);
width = 716;
},
{
anchors = (
{
name = bottom;
position = "{387, 0}";
},
{
name = top;
position = "{387, 700}";
}
);
background = {
paths = (
{
closed = 1;
nodes = (
"1097 0 LINE",
"1097 273 LINE",
"996 176 LINE",
"1202 176 LINE SMOOTH",
"1396 176 OFFCURVE",
"1521 277 OFFCURVE",
"1521 436 CURVE SMOOTH",
"1521 599 OFFCURVE",
"1396 700 OFFCURVE",
"1202 700 CURVE SMOOTH",
"865 700 LINE",
"865 0 LINE"
);
},
{
closed = 1;
nodes = (
"1536 0 LINE",
"1362 255 LINE",
"1112 255 LINE",
"1284 0 LINE"
);
},
{
closed = 1;
nodes = (
"1097 625 LINE",
"996 518 LINE",
"1196 518 LINE SMOOTH",
"1252 518 OFFCURVE",
"1288 485 OFFCURVE",
"1288 436 CURVE SMOOTH",
"1288 387 OFFCURVE",
"1252 354 OFFCURVE",
"1196 354 CURVE SMOOTH",
"996 354 LINE",
"1097 247 LINE"
);
},
{
closed = 1;
nodes = (
"301 0 LINE",
"301 273 LINE",
"196 172 LINE",
"402 172 LINE SMOOTH",
"597 172 OFFCURVE",
"721 274 OFFCURVE",
"721 436 CURVE SMOOTH",
"721 598 OFFCURVE",
"597 700 OFFCURVE",
"402 700 CURVE SMOOTH",
"65 700 LINE",
"65 0 LINE"
);
},
{
closed = 1;
nodes = (
"301 625 LINE",
"196 518 LINE",
"387 518 LINE SMOOTH",
"452 518 OFFCURVE",
"483 487 OFFCURVE",
"483 436 CURVE SMOOTH",
"483 385 OFFCURVE",
"452 354 OFFCURVE",
"387 354 CURVE SMOOTH",
"196 354 LINE",
"301 247 LINE"
);
}
);
};
layerId = "5DA6E103-6A94-47F2-987D-4952DB8EA68E";
paths = (
{
closed = 1;
nodes = (
"301 0 LINE",
"301 273 LINE",
"196 176 LINE",
"402 176 LINE SMOOTH",
"597 176 OFFCURVE",
"721 274 OFFCURVE",
"721 436 CURVE SMOOTH",
"721 598 OFFCURVE",
"597 700 OFFCURVE",
"402 700 CURVE SMOOTH",
"65 700 LINE",
"65 0 LINE"
);
},
{
closed = 1;
nodes = (
"736 0 LINE",
"562 255 LINE",
"312 255 LINE",
"484 0 LINE"
);
},
{
closed = 1;
nodes = (
"301 625 LINE",
"196 518 LINE",
"387 518 LINE SMOOTH",
"452 518 OFFCURVE",
"483 487 OFFCURVE",
"483 436 CURVE SMOOTH",
"483 385 OFFCURVE",
"452 354 OFFCURVE",
"387 354 CURVE SMOOTH",
"196 354 LINE",
"301 247 LINE"
);
}
);
width = 753;
}
);
leftKerningGroup = H;
leftMetricsKey = H;
rightKerningGroup = R;
unicode = 0052;
},
{
glyphname = S;
lastChange = "2017-09-15 19:18:46 +0000";
layers = (
{
anchors = (
{
name = bottom;
position = "{318, 0}";
},
{
name = top;
position = "{318, 700}";
}
);
background = {
paths = (
{
closed = 1;
nodes = (
"501 652 LINE",
"453 683 OFFCURVE",
"380 703 OFFCURVE",
"315 703 CURVE",
"180 703 OFFCURVE",
"92 641 OFFCURVE",
"92 547 CURVE",
"92 290 OFFCURVE",
"512 411 OFFCURVE",
"510 169 CURVE",
"510 77 OFFCURVE",
"425 17 OFFCURVE",
"293 17 CURVE",
"209 17 OFFCURVE",
"121 53 OFFCURVE",
"68 110 CURVE",
"54 96 LINE",
"112 36 OFFCURVE",
"205 -3 OFFCURVE",
"293 -3 CURVE",
"437 -3 OFFCURVE",
"530 65 OFFCURVE",
"530 169 CURVE",
"532 431 OFFCURVE",
"112 310 OFFCURVE",
"112 546 CURVE",
"112 629 OFFCURVE",
"192 683 OFFCURVE",
"315 683 CURVE",
"377 683 OFFCURVE",
"446 665 OFFCURVE",
"491 636 CURVE"
);
}
);
};
layerId = UUID0;
paths = (
{
closed = 1;
nodes = (
"470 -3 OFFCURVE",
"543 79 OFFCURVE",
"543 172 CURVE SMOOTH",
"543 425 OFFCURVE",
"98 290 OFFCURVE",
"98 526 CURVE SMOOTH",
"98 613 OFFCURVE",
"166 684 OFFCURVE",
"313 684 CURVE SMOOTH",
"376 684 OFFCURVE",
"448 664 OFFCURVE",
"504 623 CURVE",
"515 639 LINE",
"464 678 OFFCURVE",
"387 703 OFFCURVE",
"312 703 CURVE SMOOTH",
"148 703 OFFCURVE",
"78 619 OFFCURVE",
"78 527 CURVE SMOOTH",
"78 269 OFFCURVE",
"523 407 OFFCURVE",
"523 172 CURVE SMOOTH",
"523 86 OFFCURVE",
"455 16 OFFCURVE",
"303 16 CURVE SMOOTH",
"205 16 OFFCURVE",
"116 57 OFFCURVE",
"72 109 CURVE",
"58 96 LINE",
"105 38 OFFCURVE",
"202 -3 OFFCURVE",
"304 -3 CURVE SMOOTH"
);
}
);
width = 601;
},
{
anchors = (
{
name = bottom;
position = "{329, 0}";
},
{
name = top;
position = "{329, 700}";
}
);
background = {
paths = (
{
closed = 1;
nodes = (
"612 648 LINE",
"547 686 OFFCURVE",
"446 716 OFFCURVE",
"348 716 CURVE SMOOTH",
"133 716 OFFCURVE",
"24 606 OFFCURVE",
"24 477 CURVE SMOOTH",
"24 218 OFFCURVE",
"411 290 OFFCURVE",
"411 202 CURVE SMOOTH",
"411 178 OFFCURVE",
"387 164 OFFCURVE",
"320 164 CURVE SMOOTH",
"243 164 OFFCURVE",
"157 189 OFFCURVE",
"92 228 CURVE",
"16 61 LINE",
"86 15 OFFCURVE",
"201 -16 OFFCURVE",
"320 -16 CURVE SMOOTH",
"535 -16 OFFCURVE",
"644 99 OFFCURVE",
"644 223 CURVE SMOOTH",
"644 480 OFFCURVE",
"257 407 OFFCURVE",
"257 492 CURVE SMOOTH",
"257 516 OFFCURVE",
"279 536 OFFCURVE",
"348 536 CURVE SMOOTH",
"409 536 OFFCURVE",
"473 518 OFFCURVE",
"540 480 CURVE"
);
}
);
};
layerId = "5DA6E103-6A94-47F2-987D-4952DB8EA68E";
paths = (
{
closed = 1;
nodes = (
"535 -16 OFFCURVE",
"644 92 OFFCURVE",
"644 220 CURVE SMOOTH",
"644 478 OFFCURVE",
"257 408 OFFCURVE",
"257 492 CURVE SMOOTH",
"257 516 OFFCURVE",
"279 536 OFFCURVE",
"348 536 CURVE SMOOTH",
"409 536 OFFCURVE",
"474 519 OFFCURVE",
"543 484 CURVE",
"614 655 LINE",
"541 696 OFFCURVE",
"444 716 OFFCURVE",
"350 716 CURVE SMOOTH",
"133 716 OFFCURVE",
"24 610 OFFCURVE",
"24 480 CURVE SMOOTH",
"24 219 OFFCURVE",
"411 290 OFFCURVE",
"411 202 CURVE SMOOTH",
"411 178 OFFCURVE",
"387 164 OFFCURVE",
"320 164 CURVE SMOOTH",
"243 164 OFFCURVE",
"155 189 OFFCURVE",
"89 228 CURVE",
"13 56 LINE",
"83 13 OFFCURVE",
"201 -16 OFFCURVE",
"318 -16 CURVE SMOOTH"
);
}
);
width = 657;
}
);
leftKerningGroup = S;
rightKerningGroup = S;
unicode = 0053;
},
{
glyphname = T;
lastChange = "2017-09-15 19:18:46 +0000";
layers = (
{
anchors = (
{
name = bottom;
position = "{274, 0}";
},
{
name = center;
position = "{274, 356}";
},
{
name = top;
position = "{274, 700}";
}
);
background = {
paths = (
{
closed = 1;
nodes = (
"153 0 LINE",
"153 346 LINE",
"663 346 LINE",
"663 0 LINE",
"683 0 LINE",
"683 700 LINE",
"663 700 LINE",
"663 365 LINE",
"153 365 LINE",
"153 700 LINE",
"133 700 LINE",
"133 0 LINE"
);
}
);
};
layerId = UUID0;
paths = (
{
closed = 1;
nodes = (
"284 0 LINE",
"284 690 LINE",
"275 681 LINE",
"544 681 LINE",
"544 700 LINE",
"4 700 LINE",
"4 681 LINE",
"273 681 LINE",
"264 690 LINE",
"264 0 LINE"
);
}
);
width = 548;
},
{
anchors = (
{
name = bottom;
position = "{327, 0}";
},
{
name = center;
position = "{327, 315}";
},
{
name = top;
position = "{327, 700}";
}
);
background = {
paths = (
{
closed = 1;
nodes = (
"10 518 LINE",
"209 518 LINE",
"209 0 LINE",
"441 0 LINE",
"441 518 LINE",
"641 518 LINE",
"641 701 LINE",
"10 701 LINE"
);
},
{
closed = 1;
nodes = (
"-19 0 LINE",
"217 0 LINE",
"217 258 LINE",
"435 258 LINE",
"435 0 LINE",
"671 0 LINE",
"671 700 LINE",
"435 700 LINE",
"435 452 LINE",
"217 452 LINE",
"217 700 LINE",
"-19 700 LINE"
);
}
);
};
layerId = "5DA6E103-6A94-47F2-987D-4952DB8EA68E";
paths = (
{
closed = 1;
nodes = (
"445 0 LINE",
"445 568 LINE",
"394 517 LINE",
"650 517 LINE",
"650 700 LINE",
"4 700 LINE",
"4 517 LINE",
"260 517 LINE",
"209 568 LINE",
"209 0 LINE"
);
}
);
width = 654;
}
);
leftKerningGroup = T;
rightKerningGroup = T;
rightMetricsKey = "=|";
unicode = 0054;
},
{
glyphname = U;
lastChange = "2017-09-15 19:18:46 +0000";
layers = (
{
anchors = (
{
name = bottom;
position = "{397, 0}";
},
{
name = ogonek;
position = "{583, 0}";
},
{
name = top;
position = "{397, 700}";
},
{
name = topright;
position = "{672, 700}";
}
);
background = {
paths = (
{
closed = 1;
nodes = (
"847 699 LINE",
"827 699 LINE",
"827 281 LINE SMOOTH",
"827 100 OFFCURVE",
"928 -3 OFFCURVE",
"1104 -3 CURVE SMOOTH",
"1280 -3 OFFCURVE",
"1381 100 OFFCURVE",
"1381 281 CURVE SMOOTH",
"1381 699 LINE",
"1361 699 LINE",
"1361 281 LINE SMOOTH",
"1361 113 OFFCURVE",
"1267 17 OFFCURVE",
"1104 17 CURVE SMOOTH",
"941 17 OFFCURVE",
"847 113 OFFCURVE",
"847 281 CURVE SMOOTH"
);
},
{
closed = 1;
nodes = (
"147 700 LINE",
"127 700 LINE",
"127 283 LINE SMOOTH",
"127 95 OFFCURVE",
"230 -3 OFFCURVE",
"397 -3 CURVE SMOOTH",
"564 -3 OFFCURVE",
"667 95 OFFCURVE",
"667 283 CURVE SMOOTH",
"667 700 LINE",
"647 700 LINE",
"647 285 LINE SMOOTH",
"647 109 OFFCURVE",
"556 16 OFFCURVE",
"397 16 CURVE SMOOTH",
"238 16 OFFCURVE",
"147 109 OFFCURVE",
"147 285 CURVE SMOOTH"
);
}
);
};
layerId = UUID0;
paths = (
{
closed = 1;
nodes = (
"564 -3 OFFCURVE",
"667 95 OFFCURVE",
"667 293 CURVE SMOOTH",
"667 700 LINE",
"647 700 LINE",
"647 294 LINE SMOOTH",
"647 107 OFFCURVE",
"556 16 OFFCURVE",
"397 16 CURVE SMOOTH",
"238 16 OFFCURVE",
"147 107 OFFCURVE",
"147 294 CURVE SMOOTH",
"147 700 LINE",
"127 700 LINE",
"127 293 LINE SMOOTH",
"127 95 OFFCURVE",
"230 -3 OFFCURVE",
"397 -3 CURVE SMOOTH"
);
}
);
width = 794;
},
{
anchors = (
{
name = bottom;
position = "{394, 0}";
},
{
name = ogonek;
position = "{620, 0}";
},
{
name = top;
position = "{394, 700}";
},
{
name = topright;
position = "{640, 700}";
}
);
background = {
paths = (
{
closed = 1;
nodes = (
"1083 701 LINE",
"851 701 LINE",
"851 291 LINE SMOOTH",
"851 106 OFFCURVE",
"983 -16 OFFCURVE",
"1184 -16 CURVE SMOOTH",
"1383 -16 OFFCURVE",
"1512 105 OFFCURVE",
"1512 291 CURVE SMOOTH",
"1512 701 LINE",
"1280 701 LINE",
"1280 291 LINE SMOOTH",
"1280 224 OFFCURVE",
"1241 177 OFFCURVE",
"1185 177 CURVE SMOOTH",
"1127 177 OFFCURVE",
"1083 226 OFFCURVE",
"1083 291 CURVE SMOOTH"
);
},
{
closed = 1;
nodes = (
"287 700 LINE",
"51 700 LINE",
"51 295 LINE SMOOTH",
"51 105 OFFCURVE",
"177 -16 OFFCURVE",
"392 -16 CURVE SMOOTH",
"607 -16 OFFCURVE",
"733 105 OFFCURVE",
"733 295 CURVE SMOOTH",
"733 700 LINE",
"501 700 LINE",
"501 300 LINE SMOOTH",
"501 216 OFFCURVE",
"459 175 OFFCURVE",
"394 175 CURVE SMOOTH",
"329 175 OFFCURVE",
"287 218 OFFCURVE",
"287 300 CURVE SMOOTH"
);
}
);
};
layerId = "5DA6E103-6A94-47F2-987D-4952DB8EA68E";
paths = (
{
closed = 1;
nodes = (
"607 -16 OFFCURVE",
"733 105 OFFCURVE",
"733 315 CURVE SMOOTH",
"733 700 LINE",
"501 700 LINE",
"501 322 LINE SMOOTH",
"501 215 OFFCURVE",
"460 175 OFFCURVE",
"394 175 CURVE SMOOTH",
"328 175 OFFCURVE",
"287 215 OFFCURVE",
"287 322 CURVE SMOOTH",
"287 700 LINE",
"51 700 LINE",
"51 315 LINE SMOOTH",
"51 105 OFFCURVE",
"177 -16 OFFCURVE",
"392 -16 CURVE SMOOTH"
);
}
);
width = 784;
}
);
leftKerningGroup = U;
rightKerningGroup = U;
rightMetricsKey = "=|";
unicode = 0055;
},
{
glyphname = V;
lastChange = "2017-09-15 19:18:46 +0000";
layers = (
{
background = {
paths = (
{
closed = 1;
nodes = (
"670 700 LINE",
"647 700 LINE",
"330 16 LINE",
"340 16 LINE",
"23 700 LINE",
"0 700 LINE",
"325 0 LINE",
"345 0 LINE"
);
}
);
};
layerId = UUID0;
paths = (
{
closed = 1;
nodes = (
"345 0 LINE",
"660 700 LINE",
"637 700 LINE",
"330 16 LINE",
"340 16 LINE",
"33 700 LINE",
"10 700 LINE",
"325 0 LINE"
);
}
);
width = 670;
},
{
background = {
paths = (
{
closed = 1;
nodes = (
"805 700 LINE",
"575 700 LINE",
"327 109 LINE",
"472 109 LINE",
"231 700 LINE",
"-19 700 LINE",
"277 0 LINE",
"509 0 LINE"
);
}
);
};
guideLines = (
{
angle = 113.6122;
position = "{368, 350}";
}
);
layerId = "5DA6E103-6A94-47F2-987D-4952DB8EA68E";
paths = (
{
closed = 1;
nodes = (
"509 0 LINE",
"805 700 LINE",
"573 700 LINE",
"325 109 LINE",
"476 109 LINE",
"235 700 LINE",
"-19 700 LINE",
"277 0 LINE"
);
}
);
width = 786;
}
);
leftKerningGroup = V;
rightKerningGroup = V;
rightMetricsKey = "=|";
unicode = 0056;
},
{
glyphname = W;
lastChange = "2017-09-15 19:18:46 +0000";
layers = (
{
anchors = (
{
name = bottom;
position = "{540, 0}";
},
{
name = top;
position = "{540, 700}";
}
);
background = {
paths = (
{
closed = 1;
nodes = (
"315 0 LINE",
"562 678 LINE",
"558 678 LINE",
"805 0 LINE",
"825 0 LINE",
"1075 700 LINE",
"1054 700 LINE",
"810 16 LINE",
"820 16 LINE",
"570 700 LINE",
"550 700 LINE",
"300 16 LINE",
"311 16 LINE",
"67 700 LINE",
"45 700 LINE",
"295 0 LINE"
);
}
);
};
layerId = UUID0;
paths = (
{
closed = 1;
nodes = (
"305 0 LINE",
"542 678 LINE",
"538 678 LINE",
"775 0 LINE",
"795 0 LINE",
"1035 700 LINE",
"1014 700 LINE",
"780 16 LINE",
"790 16 LINE",
"550 700 LINE",
"530 700 LINE",
"290 16 LINE",
"301 16 LINE",
"67 700 LINE",
"45 700 LINE",
"285 0 LINE"
);
}
);
width = 1080;
},
{
anchors = (
{
name = bottom;
position = "{603, 0}";
},
{
name = top;
position = "{603, 700}";
}
);
background = {
paths = (
{
closed = 1;
nodes = (
"497 0 LINE",
"661 484 LINE",
"593 484 LINE",
"749 0 LINE",
"1002 0 LINE",
"1236 700 LINE",
"1009 700 LINE",
"810 109 LINE",
"933 109 LINE",
"744 700 LINE",
"521 700 LINE",
"319 109 LINE",
"447 109 LINE",
"256 700 LINE",
"10 700 LINE",
"244 0 LINE"
);
}
);
};
layerId = "5DA6E103-6A94-47F2-987D-4952DB8EA68E";
paths = (
{
closed = 1;
nodes = (
"487 0 LINE",
"641 484 LINE",
"573 484 LINE",
"719 0 LINE",
"972 0 LINE",
"1196 700 LINE",
"972 700 LINE",
"783 109 LINE",
"900 109 LINE",
"721 700 LINE",
"504 700 LINE",
"312 109 LINE",
"434 109 LINE",
"253 700 LINE",
"10 700 LINE",
"234 0 LINE"
);
}
);
width = 1206;
},
{
anchors = (
{
name = bottom;
position = "{561, 0}";
},
{
name = top;
position = "{561, 701}";
}
);
associatedMasterId = "5DA6E103-6A94-47F2-987D-4952DB8EA68E";
layerId = "EEA8680D-1FF3-40CE-9363-051D7C06078A";
name = "Nov 24 16, 19:29";
paths = (
{
closed = 1;
nodes = (
"222 0 LINE",
"461 0 LINE",
"561 419 LINE",
"658 0 LINE",
"897 0 LINE",
"1126 701 LINE",
"889 701 LINE",
"785 241 LINE",
"679 701 LINE",
"453 701 LINE",
"349 241 LINE",
"243 701 LINE",
"-5 701 LINE"
);
}
);
width = 1121;
},
{
anchors = (
{
name = bottom;
position = "{518, 0}";
},
{
name = top;
position = "{518, 700}";
}
);
associatedMasterId = UUID0;
layerId = "E72032C1-AF8F-44ED-9FB4-9F328EEA5C08";
name = "Nov 24 16, 19:29";
paths = (
{
closed = 1;
nodes = (
"235.462 0 LINE",
"357.077 0 LINE",
"524.923 554.692 LINE",
"690.846 0 LINE",
"812.462 0 LINE",
"1045.77 699.923 LINE",
"924 699.923 LINE",
"755.385 123.615 LINE",
"585.308 699.923 LINE",
"469 700 LINE",
"300 123.615 LINE",
"129.923 699.923 LINE",
"3.077 699.923 LINE"
);
}
);
width = 1036;
}
);
leftKerningGroup = V;
rightKerningGroup = V;
rightMetricsKey = "=|";
unicode = 0057;
},
{
glyphname = X;
lastChange = "2017-09-15 19:18:46 +0000";
layers = (
{
background = {
paths = (
{
closed = 1;
nodes = (
"1606 362 LINE",
"1345 0 LINE",
"1369 0 LINE",
"1618 346 LINE",
"1868 0 LINE",
"1892 0 LINE",
"1630 362 LINE",
"1873 699 LINE",
"1849 699 LINE",
"1618 379 LINE",
"1388 699 LINE",
"1364 699 LINE"
);
},
{
closed = 1;
nodes = (
"1276 700 LINE",
"1252 700 LINE",
"725 0 LINE",
"749 0 LINE"
);
},
{
closed = 1;
nodes = (
"770 700 LINE",
"745 700 LINE",
"1271 0 LINE",
"1296 0 LINE"
);
},
{
closed = 1;
nodes = (
"596 0 LINE",
"323 362 LINE",
"311 377 LINE",
"70 700 LINE",
"45 700 LINE",
"298 362 LINE",
"310 347 LINE",
"571 0 LINE"
);
},
{
closed = 1;
nodes = (
"49 0 LINE",
"310 347 LINE",
"323 362 LINE",
"576 700 LINE",
"552 700 LINE",
"311 377 LINE",
"298 362 LINE",
"25 0 LINE"
);
}
);
};
layerId = UUID0;
paths = (
{
closed = 1;
nodes = (
"49 0 LINE",
"313 351 LINE",
"307 351 LINE",
"571 0 LINE",
"596 0 LINE",
"320 366 LINE",
"320 358 LINE",
"576 700 LINE",
"552 700 LINE",
"308 373 LINE",
"314 373 LINE",
"70 700 LINE",
"45 700 LINE",
"304 354 LINE",
"304 370 LINE",
"25 0 LINE"
);
}
);
width = 621;
},
{
background = {
paths = (
{
closed = 1;
nodes = (
"2552 700 LINE",
"2303 700 LINE",
"1789 0 LINE",
"2048 0 LINE"
);
},
{
closed = 1;
nodes = (
"2298 0 LINE",
"2567 0 LINE",
"2066 700 LINE",
"1804 700 LINE"
);
},
{
closed = 1;
nodes = (
"1667 0 LINE",
"1408 362 LINE",
"1281 524 LINE",
"1166 700 LINE",
"904 700 LINE",
"1149 354 LINE",
"1279 186 LINE",
"1400 0 LINE"
);
},
{
closed = 1;
nodes = (
"1161 0 LINE",
"1279 186 LINE",
"1408 362 LINE",
"1652 700 LINE",
"1401 700 LINE",
"1281 524 LINE",
"1149 354 LINE",
"895 0 LINE"
);
},
{
closed = 1;
nodes = (
"770 0 LINE",
"512 362 LINE",
"385 524 LINE",
"266 700 LINE",
"1 700 LINE",
"245 354 LINE",
"379 187 LINE",
"500 0 LINE"
);
},
{
closed = 1;
nodes = (
"261 0 LINE",
"379 187 LINE",
"512 362 LINE",
"755 700 LINE",
"501 700 LINE",
"385 524 LINE",
"245 354 LINE",
"-8 0 LINE"
);
}
);
};
layerId = "5DA6E103-6A94-47F2-987D-4952DB8EA68E";
paths = (
{
closed = 1;
nodes = (
"261 0 LINE",
"433 273 LINE",
"324 272 LINE",
"500 0 LINE",
"770 0 LINE",
"453 444 LINE",
"453 280 LINE",
"755 700 LINE",
"501 700 LINE",
"329 439 LINE",
"442 440 LINE",
"266 700 LINE",
"1 700 LINE",
"303 271 LINE",
"304 436 LINE",
"-8 0 LINE"
);
}
);
width = 762;
},
{
associatedMasterId = UUID0;
background = {
paths = (
{
closed = 0;
nodes = (
"551 699 LINE",
"47 0 LINE"
);
},
{
closed = 0;
nodes = (
"66 699 LINE",
"570 0 LINE"
);
}
);
};
layerId = "BC3F43BB-9F1F-4863-A9A9-2B20CB3BE0AF";
name = "Light Mar 13 12, 18:48";
paths = (
{
closed = 1;
nodes = (
"35 0 LINE",
"59 0 LINE",
"563 699 LINE",
"539 699 LINE"
);
},
{
closed = 1;
nodes = (
"558 0 LINE",
"582 0 LINE",
"78 699 LINE",
"54 699 LINE"
);
}
);
width = 617;
}
);
leftKerningGroup = X;
rightKerningGroup = X;
rightMetricsKey = "=|";
unicode = 0058;
},
{
glyphname = Y;
lastChange = "2017-09-15 23:53:25 +0000";
layers = (
{
anchors = (
{
name = bottom;
position = "{305, 0}";
},
{
name = center;
position = "{305, 240}";
},
{
name = top;
position = "{305, 700}";
}
);
background = {
paths = (
{
closed = 1;
nodes = (
"315 0 LINE",
"315 195 LINE",
"310 180 LINE",
"630 700 LINE",
"607 700 LINE",
"301 203 LINE",
"309 203 LINE",
"3 700 LINE",
"-20 700 LINE",
"300 180 LINE",
"295 195 LINE",
"295 0 LINE"
);
}
);
};
layerId = UUID0;
paths = (
{
closed = 1;
nodes = (
"315 0 LINE",
"315 245 LINE",
"310 230 LINE",
"600 700 LINE",
"577 700 LINE",
"301 253 LINE",
"309 253 LINE",
"33 700 LINE",
"10 700 LINE",
"300 230 LINE",
"295 245 LINE",
"295 0 LINE"
);
}
);
width = 610;
},
{
anchors = (
{
name = bottom;
position = "{355, 0}";
},
{
name = center;
position = "{349, 266}";
},
{
name = top;
position = "{355, 700}";
}
);
background = {
paths = (
{
closed = 1;
nodes = (
"473 0 LINE",
"473 257 LINE",
"421 116 LINE",
"767 700 LINE",
"536 700 LINE",
"289 287 LINE",
"440 287 LINE",
"195 700 LINE",
"-57 700 LINE",
"291 116 LINE",
"237 257 LINE",
"237 0 LINE"
);
}
);
};
layerId = "5DA6E103-6A94-47F2-987D-4952DB8EA68E";
paths = (
{
closed = 1;
nodes = (
"473 0 LINE",
"473 307 LINE",
"421 166 LINE",
"737 700 LINE",
"509 700 LINE",
"292 335 LINE",
"437 335 LINE",
"222 700 LINE",
"-27 700 LINE",
"291 166 LINE",
"237 307 LINE",
"237 0 LINE"
);
}
);
width = 710;
}
);
leftKerningGroup = Y;
rightKerningGroup = Y;
rightMetricsKey = "=|";
unicode = 0059;
},
{
glyphname = Z;
lastChange = "2017-09-15 19:18:46 +0000";
layers = (
{
anchors = (
{
name = bottom;
position = "{335, 0}";
},
{
name = top;
position = "{325, 700}";
}
);
background = {
paths = (
{
closed = 1;
nodes = (
"768 679 LINE",
"1277 679 LINE",
"754 25 LINE",
"754 0 LINE",
"1300 0 LINE",
"1300 20 LINE",
"774 20 LINE",
"1297 674 LINE",
"1297 699 LINE",
"768 699 LINE"
);
},
{
closed = 1;
nodes = (
"50 0 LINE",
"70 0 LINE",
"70 346 LINE",
"580 346 LINE",
"580 0 LINE",
"600 0 LINE",
"600 700 LINE",
"580 700 LINE",
"580 365 LINE",
"70 365 LINE",
"70 700 LINE",
"50 700 LINE"
);
}
);
};
layerId = UUID0;
paths = (
{
closed = 1;
nodes = (
"600 0 LINE",
"600 19 LINE",
"72 19 LINE",
"73 12 LINE",
"590 685 LINE",
"590 700 LINE",
"55 700 LINE",
"55 681 LINE",
"568 681 LINE",
"567 688 LINE",
"50 15 LINE",
"50 0 LINE"
);
}
);
width = 639;
},
{
anchors = (
{
name = bottom;
position = "{354, 0}";
},
{
name = top;
position = "{354, 700}";
}
);
background = {
paths = (
{
closed = 1;
nodes = (
"44 523 LINE",
"359 523 LINE",
"32 145 LINE",
"32 0 LINE",
"675 0 LINE",
"675 178 LINE",
"341 178 LINE",
"668 556 LINE",
"668 701 LINE",
"44 701 LINE"
);
}
);
};
layerId = "5DA6E103-6A94-47F2-987D-4952DB8EA68E";
paths = (
{
closed = 1;
nodes = (
"675 0 LINE",
"675 183 LINE",
"240 183 LINE",
"269 101 LINE",
"659 555 LINE",
"659 700 LINE",
"42 700 LINE",
"42 517 LINE",
"451 517 LINE",
"422 599 LINE",
"32 145 LINE",
"32 0 LINE"
);
}
);
width = 687;
}
);
leftKerningGroup = Z;
rightKerningGroup = Z;
unicode = 005A;
},
{
glyphname = A.ss01;
lastChange = "2017-09-15 19:18:46 +0000";
layers = (
{
anchors = (
{
name = bottom;
position = "{402, 0}";
},
{
name = ogonek;
position = "{677, 0}";
},
{
name = top;
position = "{402, 700}";
},
{
name = topleft;
position = "{91, 700}";
}
);
background = {
paths = (
{
closed = 1;
nodes = (
"127 0 LINE",
"147 0 LINE",
"147 346 LINE",
"657 346 LINE",
"657 0 LINE",
"677 0 LINE",
"677 700 LINE",
"657 700 LINE",
"657 365 LINE",
"147 365 LINE",
"147 700 LINE",
"127 700 LINE"
);
}
);
};
layerId = UUID0;
paths = (
{
closed = 1;
nodes = (
"147 0 LINE",
"147 409 LINE SMOOTH",
"147 593 OFFCURVE",
"243 684 OFFCURVE",
"402 684 CURVE SMOOTH",
"561 684 OFFCURVE",
"657 593 OFFCURVE",
"657 409 CURVE SMOOTH",
"657 0 LINE",
"677 0 LINE",
"677 407 LINE SMOOTH",
"677 605 OFFCURVE",
"569 703 OFFCURVE",
"402 703 CURVE SMOOTH",
"235 703 OFFCURVE",
"127 605 OFFCURVE",
"127 407 CURVE SMOOTH",
"127 0 LINE"
);
},
{
closed = 1;
nodes = (
"666 231 LINE",
"666 250 LINE",
"141 250 LINE",
"141 231 LINE"
);
}
);
width = 804;
},
{
anchors = (
{
name = bottom;
position = "{396, 0}";
},
{
name = ogonek;
position = "{741, 0}";
},
{
name = top;
position = "{396, 700}";
},
{
name = topleft;
position = "{51, 700}";
}
);
background = {
paths = (
{
closed = 1;
nodes = (
"51 0 LINE",
"287 0 LINE",
"287 258 LINE",
"505 258 LINE",
"505 0 LINE",
"741 0 LINE",
"741 700 LINE",
"505 700 LINE",
"505 452 LINE",
"287 452 LINE",
"287 700 LINE",
"51 700 LINE"
);
}
);
};
layerId = "5DA6E103-6A94-47F2-987D-4952DB8EA68E";
paths = (
{
closed = 1;
nodes = (
"287 0 LINE",
"287 393 LINE SMOOTH",
"287 483 OFFCURVE",
"332 525 OFFCURVE",
"396 525 CURVE SMOOTH",
"460 525 OFFCURVE",
"505 483 OFFCURVE",
"505 393 CURVE SMOOTH",
"505 0 LINE",
"741 0 LINE",
"741 373 LINE SMOOTH",
"741 592 OFFCURVE",
"600 716 OFFCURVE",
"396 716 CURVE SMOOTH",
"192 716 OFFCURVE",
"51 592 OFFCURVE",
"51 373 CURVE SMOOTH",
"51 0 LINE"
);
},
{
closed = 1;
nodes = (
"589 141 LINE",
"589 319 LINE",
"199 319 LINE",
"199 141 LINE"
);
}
);
width = 792;
}
);
leftKerningGroup = A.ss01;
leftMetricsKey = U;
rightKerningGroup = A.ss01;
rightMetricsKey = "=|";
},
{
glyphname = E.ss01;
lastChange = "2017-09-15 19:18:46 +0000";
layers = (
{
anchors = (
{
name = bottom;
position = "{336, 0}";
},
{
name = ogonek;
position = "{563, 0}";
},
{
name = top;
position = "{336, 700}";
},
{
name = topleft;
position = "{68, 700}";
}
);
background = {
paths = (
{
closed = 1;
nodes = (
"1131 361 LINE",
"1131 381 LINE",
"1022 381 LINE SMOOTH",
"902 381 OFFCURVE",
"815 443 OFFCURVE",
"815 530 CURVE SMOOTH",
"815 618 OFFCURVE",
"901 683 OFFCURVE",
"1020 683 CURVE SMOOTH",
"1074 683 OFFCURVE",
"1140 669 OFFCURVE",
"1176 650 CURVE",
"1186 668 LINE",
"1146 688 OFFCURVE",
"1076 703 OFFCURVE",
"1020 703 CURVE SMOOTH",
"890 703 OFFCURVE",
"795 630 OFFCURVE",
"795 530 CURVE SMOOTH",
"795 451 OFFCURVE",
"862 384 OFFCURVE",
"954 371 CURVE",
"845 359 OFFCURVE",
"765 282 OFFCURVE",
"765 188 CURVE SMOOTH",
"765 78 OFFCURVE",
"872 -3 OFFCURVE",
"1018 -3 CURVE SMOOTH",
"1085 -3 OFFCURVE",
"1170 18 OFFCURVE",
"1218 46 CURVE",
"1208 64 LINE",
"1158 37 OFFCURVE",
"1078 17 OFFCURVE",
"1018 17 CURVE SMOOTH",
"883 17 OFFCURVE",
"785 89 OFFCURVE",
"785 188 CURVE SMOOTH",
"785 288 OFFCURVE",
"885 361 OFFCURVE",
"1022 361 CURVE SMOOTH"
);
},
{
closed = 1;
nodes = (
"459 346 LINE",
"459 365 LINE",
"326 365 LINE SMOOTH",
"193 365 OFFCURVE",
"115 419 OFFCURVE",
"115 523 CURVE SMOOTH",
"115 613 OFFCURVE",
"188 684 OFFCURVE",
"330 684 CURVE SMOOTH",
"393 684 OFFCURVE",
"465 664 OFFCURVE",
"521 623 CURVE",
"532 639 LINE",
"481 678 OFFCURVE",
"404 703 OFFCURVE",
"329 703 CURVE SMOOTH",
"170 703 OFFCURVE",
"95 619 OFFCURVE",
"95 523 CURVE SMOOTH",
"95 406 OFFCURVE",
"186 350 OFFCURVE",
"312 350 CURVE",
"307 363 LINE",
"151 363 OFFCURVE",
"65 301 OFFCURVE",
"65 183 CURVE SMOOTH",
"65 79 OFFCURVE",
"148 -3 OFFCURVE",
"314 -3 CURVE SMOOTH",
"426 -3 OFFCURVE",
"523 38 OFFCURVE",
"570 96 CURVE",
"556 109 LINE",
"512 57 OFFCURVE",
"425 16 OFFCURVE",
"315 16 CURVE SMOOTH",
"163 16 OFFCURVE",
"85 86 OFFCURVE",
"85 183 CURVE SMOOTH",
"85 296 OFFCURVE",
"157 346 OFFCURVE",
"314 346 CURVE SMOOTH"
);
}
);
};
guideLines = (
{
angle = 90;
position = "{591, 239}";
}
);
layerId = UUID0;
paths = (
{
closed = 1;
nodes = (
"440 -3 OFFCURVE",
"537 32 OFFCURVE",
"590 92 CURVE",
"575 105 LINE",
"524 49 OFFCURVE",
"433 16 OFFCURVE",
"325 16 CURVE SMOOTH",
"163 16 OFFCURVE",
"85 85 OFFCURVE",
"85 185 CURVE SMOOTH",
"85 295 OFFCURVE",
"177 346 OFFCURVE",
"306 346 CURVE SMOOTH",
"469 346 LINE",
"469 365 LINE",
"305 365 LINE SMOOTH",
"187 365 OFFCURVE",
"115 421 OFFCURVE",
"115 520 CURVE SMOOTH",
"115 613 OFFCURVE",
"190 684 OFFCURVE",
"340 684 CURVE SMOOTH",
"417 684 OFFCURVE",
"487 664 OFFCURVE",
"546 627 CURVE",
"556 643 LINE",
"502 681 OFFCURVE",
"421 703 OFFCURVE",
"339 703 CURVE SMOOTH",
"178 703 OFFCURVE",
"95 621 OFFCURVE",
"95 521 CURVE SMOOTH",
"95 416 OFFCURVE",
"170 349 OFFCURVE",
"300 349 CURVE",
"296 362 LINE",
"165 362 OFFCURVE",
"65 301 OFFCURVE",
"65 184 CURVE SMOOTH",
"65 76 OFFCURVE",
"152 -3 OFFCURVE",
"324 -3 CURVE SMOOTH"
);
}
);
width = 614;
},
{
anchors = (
{
name = bottom;
position = "{375, 0}";
},
{
name = ogonek;
position = "{645, 0}";
},
{
name = top;
position = "{375, 700}";
},
{
name = topleft;
position = "{-3, 700}";
}
);
background = {
paths = (
{
closed = 1;
nodes = (
"563 266 LINE",
"563 440 LINE",
"373 440 LINE SMOOTH",
"314 440 OFFCURVE",
"293 454 OFFCURVE",
"293 480 CURVE SMOOTH",
"293 512 OFFCURVE",
"330 536 OFFCURVE",
"416 536 CURVE SMOOTH",
"477 536 OFFCURVE",
"538 525 OFFCURVE",
"605 498 CURVE",
"669 670 LINE",
"599 698 OFFCURVE",
"504 716 OFFCURVE",
"407 716 CURVE SMOOTH",
"160 716 OFFCURVE",
"55 602 OFFCURVE",
"55 488 CURVE SMOOTH",
"55 399 OFFCURVE",
"123 333 OFFCURVE",
"268 333 CURVE",
"263 385 LINE",
"112 385 OFFCURVE",
"26 315 OFFCURVE",
"26 212 CURVE SMOOTH",
"26 85 OFFCURVE",
"147 -16 OFFCURVE",
"393 -16 CURVE SMOOTH",
"503 -16 OFFCURVE",
"615 8 OFFCURVE",
"689 46 CURVE",
"620 217 LINE",
"558 184 OFFCURVE",
"471 164 OFFCURVE",
"402 164 CURVE SMOOTH",
"302 164 OFFCURVE",
"264 191 OFFCURVE",
"264 223 CURVE SMOOTH",
"264 252 OFFCURVE",
"290 266 OFFCURVE",
"354 266 CURVE SMOOTH"
);
}
);
};
guideLines = (
{
angle = 90;
position = "{689, 239}";
}
);
layerId = "5DA6E103-6A94-47F2-987D-4952DB8EA68E";
paths = (
{
closed = 1;
nodes = (
"503 -16 OFFCURVE",
"615 8 OFFCURVE",
"689 46 CURVE",
"620 217 LINE",
"558 184 OFFCURVE",
"471 164 OFFCURVE",
"402 164 CURVE SMOOTH",
"302 164 OFFCURVE",
"264 186 OFFCURVE",
"264 218 CURVE SMOOTH",
"264 247 OFFCURVE",
"288 266 OFFCURVE",
"342 266 CURVE SMOOTH",
"563 266 LINE",
"563 440 LINE",
"358 440 LINE SMOOTH",
"309 440 OFFCURVE",
"293 457 OFFCURVE",
"293 483 CURVE SMOOTH",
"293 515 OFFCURVE",
"330 536 OFFCURVE",
"416 536 CURVE SMOOTH",
"477 536 OFFCURVE",
"538 525 OFFCURVE",
"605 498 CURVE",
"669 670 LINE",
"599 698 OFFCURVE",
"504 716 OFFCURVE",
"407 716 CURVE SMOOTH",
"164 716 OFFCURVE",
"55 612 OFFCURVE",
"55 498 CURVE SMOOTH",
"55 409 OFFCURVE",
"123 333 OFFCURVE",
"265 333 CURVE",
"260 385 LINE",
"112 385 OFFCURVE",
"26 305 OFFCURVE",
"26 202 CURVE SMOOTH",
"26 75 OFFCURVE",
"151 -16 OFFCURVE",
"393 -16 CURVE SMOOTH"
);
}
);
width = 695;
},
{
anchors = (
{
name = bottom;
position = "{328, 0}";
},
{
name = ogonek;
position = "{614, 0}";
},
{
name = top;
position = "{336, 701}";
},
{
name = topleft;
position = "{-5, 701}";
}
);
associatedMasterId = "5DA6E103-6A94-47F2-987D-4952DB8EA68E";
background = {
paths = (
{
closed = 1;
nodes = (
"497 271 LINE",
"497 438 LINE",
"315 438 LINE SMOOTH",
"290 438 OFFCURVE",
"274 456 OFFCURVE",
"274 476 CURVE SMOOTH",
"274 508 OFFCURVE",
"313 525 OFFCURVE",
"366 525 CURVE SMOOTH",
"413 525 OFFCURVE",
"466 511 OFFCURVE",
"519 487 CURVE",
"592 656 LINE",
"535 688 OFFCURVE",
"430 711 OFFCURVE",
"336 711 CURVE SMOOTH",
"167 711 OFFCURVE",
"55 637 OFFCURVE",
"55 520 CURVE SMOOTH",
"55 457 OFFCURVE",
"87 396 OFFCURVE",
"137 369 CURVE",
"63 340 OFFCURVE",
"15 270 OFFCURVE",
"15 193 CURVE SMOOTH",
"15 69 OFFCURVE",
"139 -10 OFFCURVE",
"314 -10 CURVE SMOOTH",
"427 -10 OFFCURVE",
"546 23 OFFCURVE",
"615 67 CURVE",
"528 234 LINE",
"496 211 OFFCURVE",
"415 176 OFFCURVE",
"348 176 CURVE SMOOTH",
"296 176 OFFCURVE",
"255 197 OFFCURVE",
"255 230 CURVE SMOOTH",
"255 255 OFFCURVE",
"279 271 OFFCURVE",
"315 271 CURVE SMOOTH"
);
}
);
};
layerId = "E00D325B-A1B5-48B2-B215-FF596AA4E03F";
name = "Nov 24 16, 19:27";
paths = (
{
closed = 1;
nodes = (
"497 271 LINE",
"497 438 LINE",
"315 438 LINE SMOOTH",
"290 438 OFFCURVE",
"274 456 OFFCURVE",
"274 476 CURVE SMOOTH",
"274 508 OFFCURVE",
"313 525 OFFCURVE",
"366 525 CURVE SMOOTH",
"413 525 OFFCURVE",
"466 511 OFFCURVE",
"519 487 CURVE",
"592 656 LINE",
"535 688 OFFCURVE",
"430 711 OFFCURVE",
"336 711 CURVE SMOOTH",
"167 711 OFFCURVE",
"55 637 OFFCURVE",
"55 520 CURVE SMOOTH",
"55 457 OFFCURVE",
"87 396 OFFCURVE",
"137 369 CURVE",
"63 340 OFFCURVE",
"15 270 OFFCURVE",
"15 193 CURVE SMOOTH",
"15 69 OFFCURVE",
"139 -10 OFFCURVE",
"314 -10 CURVE SMOOTH",
"427 -10 OFFCURVE",
"546 23 OFFCURVE",
"615 67 CURVE",
"528 234 LINE",
"496 211 OFFCURVE",
"415 176 OFFCURVE",
"348 176 CURVE SMOOTH",
"296 176 OFFCURVE",
"255 197 OFFCURVE",
"255 230 CURVE SMOOTH",
"255 255 OFFCURVE",
"279 271 OFFCURVE",
"315 271 CURVE SMOOTH"
);
}
);
width = 625;
},
{
anchors = (
{
name = bottom;
position = "{320, 0}";
},
{
name = ogonek;
position = "{551, 0}";
},
{
name = top;
position = "{327, 700}";
},
{
name = topleft;
position = "{15, 700}";
}
);
associatedMasterId = UUID0;
layerId = "9CC0DFF3-E6C8-4C2E-95C2-CC9105E0D14C";
name = "Nov 24 16, 19:28";
paths = (
{
closed = 1;
nodes = (
"461 314 LINE",
"461 414 LINE",
"319 414 LINE SMOOTH",
"241 414 OFFCURVE",
"188 458 OFFCURVE",
"188 515 CURVE SMOOTH",
"188 575 OFFCURVE",
"250 606 OFFCURVE",
"333 606 CURVE SMOOTH",
"385 606 OFFCURVE",
"449 594 OFFCURVE",
"496 573 CURVE",
"535 660 LINE",
"485 687 OFFCURVE",
"397 705 OFFCURVE",
"327 705 CURVE SMOOTH",
"179 705 OFFCURVE",
"77 631 OFFCURVE",
"77 526 CURVE SMOOTH",
"77 451 OFFCURVE",
"128 389 OFFCURVE",
"200 370 CURVE",
"104 349 OFFCURVE",
"42 274 OFFCURVE",
"42 190 CURVE SMOOTH",
"42 75 OFFCURVE",
"157 -5 OFFCURVE",
"315 -5 CURVE SMOOTH",
"405 -5 OFFCURVE",
"505 22 OFFCURVE",
"563 57 CURVE",
"517 144 LINE",
"474 119 OFFCURVE",
"389 94 OFFCURVE",
"320 94 CURVE SMOOTH",
"232 94 OFFCURVE",
"163 134 OFFCURVE",
"163 201 CURVE SMOOTH",
"163 266 OFFCURVE",
"228 314 OFFCURVE",
"319 314 CURVE SMOOTH"
);
}
);
width = 581;
}
);
leftKerningGroup = E.ss01;
leftMetricsKey = "=|B";
rightKerningGroup = E.ss01;
},
{
glyphname = F.ss01;
lastChange = "2017-09-15 19:18:46 +0000";
layers = (
{
background = {
paths = (
{
closed = 1;
nodes = (
"147 0 LINE",
"147 486 LINE SMOOTH",
"147 609 OFFCURVE",
"217 684 OFFCURVE",
"362 684 CURVE SMOOTH",
"426 684 OFFCURVE",
"492 667 OFFCURVE",
"544 626 CURVE",
"557 642 LINE",
"504 684 OFFCURVE",
"432 703 OFFCURVE",
"362 703 CURVE SMOOTH",
"202 703 OFFCURVE",
"127 614 OFFCURVE",
"127 486 CURVE SMOOTH",
"127 0 LINE"
);
},
{
closed = 1;
nodes = (
"490 326 LINE",
"490 345 LINE",
"143 345 LINE",
"143 326 LINE"
);
}
);
};
layerId = UUID0;
paths = (
{
closed = 1;
nodes = (
"147 0 LINE",
"147 479 LINE SMOOTH",
"147 607 OFFCURVE",
"217 684 OFFCURVE",
"372 684 CURVE SMOOTH",
"446 684 OFFCURVE",
"512 667 OFFCURVE",
"564 626 CURVE",
"577 642 LINE",
"524 684 OFFCURVE",
"452 703 OFFCURVE",
"372 703 CURVE SMOOTH",
"205 703 OFFCURVE",
"127 613 OFFCURVE",
"127 482 CURVE SMOOTH",
"127 0 LINE"
);
},
{
closed = 1;
nodes = (
"510 326 LINE",
"510 345 LINE",
"143 345 LINE",
"143 326 LINE"
);
}
);
width = 595;
},
{
background = {
paths = (
{
closed = 1;
nodes = (
"287 0 LINE",
"287 419 LINE SMOOTH",
"287 490 OFFCURVE",
"330 525 OFFCURVE",
"419 525 CURVE SMOOTH",
"455 525 OFFCURVE",
"509 516 OFFCURVE",
"548 495 CURVE",
"616 673 LINE",
"565 700 OFFCURVE",
"490 716 OFFCURVE",
"408 716 CURVE SMOOTH",
"171 716 OFFCURVE",
"51 593 OFFCURVE",
"51 400 CURVE SMOOTH",
"51 0 LINE"
);
},
{
closed = 1;
nodes = (
"535 224 LINE",
"535 402 LINE",
"196 402 LINE",
"196 224 LINE"
);
}
);
};
layerId = "5DA6E103-6A94-47F2-987D-4952DB8EA68E";
paths = (
{
closed = 1;
nodes = (
"287 0 LINE",
"287 405 LINE SMOOTH",
"287 488 OFFCURVE",
"339 525 OFFCURVE",
"428 525 CURVE SMOOTH",
"464 525 OFFCURVE",
"509 516 OFFCURVE",
"548 495 CURVE",
"616 673 LINE",
"565 700 OFFCURVE",
"490 716 OFFCURVE",
"408 716 CURVE SMOOTH",
"181 716 OFFCURVE",
"51 603 OFFCURVE",
"51 400 CURVE SMOOTH",
"51 0 LINE"
);
},
{
closed = 1;
nodes = (
"535 224 LINE",
"535 402 LINE",
"196 402 LINE",
"196 224 LINE"
);
}
);
width = 625;
}
);
leftKerningGroup = A.ss01;
leftMetricsKey = U;
rightKerningGroup = F.ss01;
},
{
glyphname = G.ss01;
lastChange = "2017-09-15 19:18:46 +0000";
layers = (
{
anchors = (
{
name = bottom;
position = "{402, 0}";
},
{
name = top;
position = "{402, 700}";
}
);
background = {
paths = (
{
closed = 1;
nodes = (
"1316 -3 OFFCURVE",
"1402 27 OFFCURVE",
"1462 87 CURVE",
"1450 102 LINE",
"1389 40 OFFCURVE",
"1309 16 OFFCURVE",
"1221 16 CURVE SMOOTH",
"1025 16 OFFCURVE",
"879 161 OFFCURVE",
"879 350 CURVE SMOOTH",
"879 539 OFFCURVE",
"1025 684 OFFCURVE",
"1221 684 CURVE SMOOTH",
"1309 684 OFFCURVE",
"1386 661 OFFCURVE",
"1450 600 CURVE",
"1462 614 LINE",
"1402 674 OFFCURVE",
"1316 703 OFFCURVE",
"1221 703 CURVE SMOOTH",
"1013 703 OFFCURVE",
"859 552 OFFCURVE",
"859 350 CURVE SMOOTH",
"859 148 OFFCURVE",
"1013 -3 OFFCURVE",
"1221 -3 CURVE SMOOTH"
);
},
{
closed = 1;
nodes = (
"1462 0 LINE",
"1462 343 LINE",
"1443 343 LINE",
"1443 85 LINE",
"1443 81 LINE",
"1443 0 LINE"
);
},
{
closed = 1;
nodes = (
"209 703 OFFCURVE",
"59 552 OFFCURVE",
"59 350 CURVE SMOOTH",
"59 148 OFFCURVE",
"209 -3 OFFCURVE",
"408 -3 CURVE SMOOTH",
"607 -3 OFFCURVE",
"757 148 OFFCURVE",
"757 350 CURVE SMOOTH",
"757 552 OFFCURVE",
"607 703 OFFCURVE",
"408 703 CURVE SMOOTH"
);
},
{
closed = 1;
nodes = (
"595 684 OFFCURVE",
"737 539 OFFCURVE",
"737 350 CURVE SMOOTH",
"737 161 OFFCURVE",
"595 16 OFFCURVE",
"408 16 CURVE SMOOTH",
"221 16 OFFCURVE",
"79 161 OFFCURVE",
"79 350 CURVE SMOOTH",
"79 539 OFFCURVE",
"221 684 OFFCURVE",
"408 684 CURVE SMOOTH"
);
}
);
};
layerId = UUID0;
paths = (
{
closed = 1;
nodes = (
"498 -3 OFFCURVE",
"590 29 OFFCURVE",
"657 99 CURVE",
"650 120 LINE",
"584 48 OFFCURVE",
"494 16 OFFCURVE",
"408 16 CURVE SMOOTH",
"240 16 OFFCURVE",
"79 140 OFFCURVE",
"79 350 CURVE SMOOTH",
"79 539 OFFCURVE",
"225 684 OFFCURVE",
"421 684 CURVE SMOOTH",
"509 684 OFFCURVE",
"586 661 OFFCURVE",
"650 600 CURVE",
"662 614 LINE",
"602 674 OFFCURVE",
"516 703 OFFCURVE",
"421 703 CURVE SMOOTH",
"213 703 OFFCURVE",
"59 552 OFFCURVE",
"59 350 CURVE SMOOTH",
"59 123 OFFCURVE",
"233 -3 OFFCURVE",
"408 -3 CURVE SMOOTH"
);
},
{
closed = 1;
nodes = (
"662 0 LINE",
"662 343 LINE",
"643 343 LINE",
"643 100 LINE",
"643 96 LINE",
"643 0 LINE"
);
}
);
width = 774;
},
{
anchors = (
{
name = bottom;
position = "{410, 3}";
},
{
name = top;
position = "{424, 701}";
}
);
background = {
paths = (
{
closed = 1;
nodes = (
"523 -16 OFFCURVE",
"640 15 OFFCURVE",
"725 73 CURVE",
"593 235 LINE",
"536 191 OFFCURVE",
"487 175 OFFCURVE",
"434 175 CURVE SMOOTH",
"333 175 OFFCURVE",
"267 245 OFFCURVE",
"267 350 CURVE SMOOTH",
"267 458 OFFCURVE",
"333 525 OFFCURVE",
"437 525 CURVE SMOOTH",
"499 525 OFFCURVE",
"550 499 OFFCURVE",
"594 448 CURVE",
"745 581 LINE",
"674 668 OFFCURVE",
"563 716 OFFCURVE",
"425 716 CURVE SMOOTH",
"194 716 OFFCURVE",
"29 565 OFFCURVE",
"29 350 CURVE SMOOTH",
"29 135 OFFCURVE",
"194 -16 OFFCURVE",
"420 -16 CURVE SMOOTH"
);
},
{
closed = 1;
nodes = (
"725 73 LINE",
"725 369 LINE",
"520 369 LINE",
"520 103 LINE"
);
}
);
};
layerId = "5DA6E103-6A94-47F2-987D-4952DB8EA68E";
paths = (
{
closed = 1;
nodes = (
"516 -16 OFFCURVE",
"615 40 OFFCURVE",
"663 189 CURVE",
"563 251 LINE",
"536 197 OFFCURVE",
"479 171 OFFCURVE",
"416 171 CURVE SMOOTH",
"333 171 OFFCURVE",
"267 222 OFFCURVE",
"267 343 CURVE SMOOTH",
"267 458 OFFCURVE",
"333 525 OFFCURVE",
"437 525 CURVE SMOOTH",
"499 525 OFFCURVE",
"550 499 OFFCURVE",
"594 448 CURVE",
"745 581 LINE",
"674 668 OFFCURVE",
"563 716 OFFCURVE",
"425 716 CURVE SMOOTH",
"194 716 OFFCURVE",
"29 565 OFFCURVE",
"29 341 CURVE SMOOTH",
"29 110 OFFCURVE",
"188 -16 OFFCURVE",
"383 -16 CURVE SMOOTH"
);
},
{
closed = 1;
nodes = (
"725 0 LINE",
"725 365 LINE",
"520 365 LINE",
"520 115 LINE",
"571 90 LINE",
"571 0 LINE"
);
}
);
width = 769;
},
{
anchors = (
{
name = bottom;
position = "{408, 2}";
},
{
name = top;
position = "{419, 701}";
}
);
associatedMasterId = UUID0;
background = {
paths = (
{
closed = 1;
nodes = (
"522 -13 OFFCURVE",
"609 36 OFFCURVE",
"661 137 CURVE",
"583 221 LINE",
"547 163 OFFCURVE",
"482 133 OFFCURVE",
"414 133 CURVE SMOOTH",
"311 133 OFFCURVE",
"224 203 OFFCURVE",
"224 345 CURVE SMOOTH",
"224 477 OFFCURVE",
"308 562 OFFCURVE",
"433 562 CURVE SMOOTH",
"501 562 OFFCURVE",
"558 536 OFFCURVE",
"607 483 CURVE",
"726 589 LINE",
"657 669 OFFCURVE",
"552 713 OFFCURVE",
"424 713 CURVE SMOOTH",
"198 713 OFFCURVE",
"36 562 OFFCURVE",
"36 343 CURVE SMOOTH",
"36 113 OFFCURVE",
"198 -13 OFFCURVE",
"398 -13 CURVE SMOOTH"
);
},
{
closed = 1;
nodes = (
"710 0 LINE",
"710 360 LINE",
"548 360 LINE",
"548 112 LINE",
"571 91 LINE",
"571 0 LINE"
);
}
);
};
layerId = "9E9C9D6C-F08D-4B99-9A6D-CCAF74641FDA";
name = "{170}";
paths = (
{
closed = 1;
nodes = (
"522 -13 OFFCURVE",
"609 36 OFFCURVE",
"661 137 CURVE",
"583 221 LINE",
"547 163 OFFCURVE",
"482 133 OFFCURVE",
"414 133 CURVE SMOOTH",
"311 133 OFFCURVE",
"224 203 OFFCURVE",
"224 345 CURVE SMOOTH",
"224 477 OFFCURVE",
"308 562 OFFCURVE",
"433 562 CURVE SMOOTH",
"501 562 OFFCURVE",
"558 536 OFFCURVE",
"607 483 CURVE",
"726 589 LINE",
"657 669 OFFCURVE",
"552 713 OFFCURVE",
"424 713 CURVE SMOOTH",
"198 713 OFFCURVE",
"36 562 OFFCURVE",
"36 343 CURVE SMOOTH",
"36 113 OFFCURVE",
"198 -13 OFFCURVE",
"398 -13 CURVE SMOOTH"
);
},
{
closed = 1;
nodes = (
"710 0 LINE",
"710 360 LINE",
"548 360 LINE",
"548 112 LINE",
"571 91 LINE",
"571 0 LINE"
);
}
);
width = 770;
}
);
leftKerningGroup = O;
leftMetricsKey = O;
rightKerningGroup = G;
},
{
glyphname = I.ss01;
lastChange = "2017-09-15 19:18:46 +0000";
layers = (
{
anchors = (
{
name = bottom;
position = "{211, 0}";
},
{
name = ogonek;
position = "{221, 0}";
},
{
name = top;
position = "{211, 700}";
},
{
name = topleft;
position = "{7, 700}";
}
);
layerId = UUID0;
paths = (
{
closed = 1;
nodes = (
"221 10 LINE",
"221 690 LINE",
"201 690 LINE",
"201 10 LINE"
);
},
{
closed = 1;
nodes = (
"375 0 LINE",
"375 19 LINE",
"47 19 LINE",
"47 0 LINE"
);
},
{
closed = 1;
nodes = (
"375 681 LINE",
"375 700 LINE",
"47 700 LINE",
"47 681 LINE"
);
}
);
width = 422;
},
{
anchors = (
{
name = bottom;
position = "{258, 0}";
},
{
name = ogonek;
position = "{376, 0}";
},
{
name = top;
position = "{258, 700}";
},
{
name = topleft;
position = "{-20, 700}";
}
);
layerId = "5DA6E103-6A94-47F2-987D-4952DB8EA68E";
paths = (
{
closed = 1;
nodes = (
"376 20 LINE",
"376 681 LINE",
"140 681 LINE",
"140 20 LINE"
);
},
{
closed = 1;
nodes = (
"481 0 LINE",
"481 178 LINE",
"35 178 LINE",
"35 0 LINE"
);
},
{
closed = 1;
nodes = (
"481 522 LINE",
"481 700 LINE",
"35 700 LINE",
"35 522 LINE"
);
}
);
width = 516;
}
);
leftKerningGroup = I.ss01;
rightKerningGroup = I.ss01;
rightMetricsKey = "=|";
},
{
glyphname = IJ.ss01;
lastChange = "2017-09-15 19:18:46 +0000";
layers = (
{
anchors = (
{
name = top;
position = "{167, 700}";
}
);
background = {
paths = (
{
closed = 1;
nodes = (
"504 -103 OFFCURVE",
"607 -5 OFFCURVE",
"607 193 CURVE SMOOTH",
"607 700 LINE",
"587 700 LINE",
"587 194 LINE SMOOTH",
"587 7 OFFCURVE",
"496 -84 OFFCURVE",
"338 -84 CURVE SMOOTH",
"253 -84 OFFCURVE",
"185 -61 OFFCURVE",
"132 -22 CURVE",
"120 -38 LINE",
"174 -76 OFFCURVE",
"247 -103 OFFCURVE",
"337 -103 CURVE SMOOTH"
);
},
{
closed = 1;
nodes = (
"147 170 LINE",
"147 700 LINE",
"127 700 LINE",
"127 170 LINE"
);
}
);
};
layerId = UUID0;
paths = (
{
closed = 1;
nodes = (
"484 -103 OFFCURVE",
"587 -5 OFFCURVE",
"587 193 CURVE SMOOTH",
"587 700 LINE",
"567 700 LINE",
"567 194 LINE SMOOTH",
"567 7 OFFCURVE",
"476 -84 OFFCURVE",
"328 -84 CURVE SMOOTH",
"253 -84 OFFCURVE",
"185 -61 OFFCURVE",
"132 -22 CURVE",
"120 -38 LINE",
"174 -76 OFFCURVE",
"247 -103 OFFCURVE",
"327 -103 CURVE SMOOTH"
);
},
{
closed = 1;
nodes = (
"147 190 LINE",
"147 700 LINE",
"127 700 LINE",
"127 190 LINE"
);
}
);
width = 714;
},
{
anchors = (
{
name = top;
position = "{169, 700}";
}
);
background = {
paths = (
{
closed = 1;
nodes = (
"538 -110 OFFCURVE",
"678 11 OFFCURVE",
"678 231 CURVE SMOOTH",
"678 700 LINE",
"442 700 LINE",
"442 218 LINE SMOOTH",
"442 121 OFFCURVE",
"404 78 OFFCURVE",
"317 78 CURVE SMOOTH",
"258 78 OFFCURVE",
"183 100 OFFCURVE",
"117 142 CURVE",
"31 -25 LINE",
"104 -77 OFFCURVE",
"208 -110 OFFCURVE",
"328 -110 CURVE SMOOTH"
);
},
{
closed = 1;
nodes = (
"287 236 LINE",
"287 700 LINE",
"51 700 LINE",
"51 236 LINE"
);
}
);
};
layerId = "5DA6E103-6A94-47F2-987D-4952DB8EA68E";
paths = (
{
closed = 1;
nodes = (
"538 -110 OFFCURVE",
"678 11 OFFCURVE",
"678 231 CURVE SMOOTH",
"678 700 LINE",
"442 700 LINE",
"442 215 LINE SMOOTH",
"442 118 OFFCURVE",
"404 75 OFFCURVE",
"317 75 CURVE SMOOTH",
"258 75 OFFCURVE",
"183 97 OFFCURVE",
"117 142 CURVE",
"31 -25 LINE",
"104 -77 OFFCURVE",
"208 -110 OFFCURVE",
"328 -110 CURVE SMOOTH"
);
},
{
closed = 1;
nodes = (
"287 236 LINE",
"287 700 LINE",
"51 700 LINE",
"51 236 LINE"
);
}
);
width = 729;
}
);
leftKerningGroup = H;
leftMetricsKey = IJ;
rightKerningGroup = J.ss01;
rightMetricsKey = IJ;
},
{
glyphname = J.ss01;
lastChange = "2017-09-15 19:18:46 +0000";
layers = (
{
anchors = (
{
name = top;
position = "{209, 700}";
}
);
background = {
paths = (
{
closed = 1;
nodes = (
"349 699 LINE",
"68 699 LINE",
"68 679 LINE",
"330 679 LINE",
"330 97 LINE",
"330 -18 OFFCURVE",
"276 -80 OFFCURVE",
"178 -80 CURVE",
"115 -80 OFFCURVE",
"59 -48 OFFCURVE",
"18 12 CURVE",
"4 -2 LINE",
"48 -65 OFFCURVE",
"110 -100 OFFCURVE",
"178 -100 CURVE",
"289 -100 OFFCURVE",
"349 -30 OFFCURVE",
"349 97 CURVE"
);
}
);
};
layerId = UUID0;
paths = (
{
closed = 1;
nodes = (
"292 -103 OFFCURVE",
"350 -37 OFFCURVE",
"350 94 CURVE SMOOTH",
"350 700 LINE",
"68 700 LINE",
"68 681 LINE",
"330 681 LINE",
"330 96 LINE SMOOTH",
"330 -26 OFFCURVE",
"281 -84 OFFCURVE",
"179 -84 CURVE SMOOTH",
"113 -84 OFFCURVE",
"56 -51 OFFCURVE",
"18 8 CURVE",
"4 -4 LINE",
"41 -66 OFFCURVE",
"107 -103 OFFCURVE",
"178 -103 CURVE SMOOTH"
);
}
);
width = 477;
},
{
anchors = (
{
name = top;
position = "{288, 700}";
}
);
background = {
paths = (
{
closed = 1;
nodes = (
"422 -116 OFFCURVE",
"523 -22 OFFCURVE",
"523 170 CURVE SMOOTH",
"523 700 LINE",
"52 700 LINE",
"52 522 LINE",
"290 522 LINE",
"290 160 LINE SMOOTH",
"290 103 OFFCURVE",
"263 75 OFFCURVE",
"214 75 CURVE SMOOTH",
"175 75 OFFCURVE",
"140 94 OFFCURVE",
"103 138 CURVE",
"-24 -12 LINE",
"34 -80 OFFCURVE",
"125 -116 OFFCURVE",
"234 -116 CURVE SMOOTH"
);
}
);
};
layerId = "5DA6E103-6A94-47F2-987D-4952DB8EA68E";
paths = (
{
closed = 1;
nodes = (
"422 -116 OFFCURVE",
"523 -22 OFFCURVE",
"523 170 CURVE SMOOTH",
"523 700 LINE",
"52 700 LINE",
"52 522 LINE",
"290 522 LINE",
"290 156 LINE SMOOTH",
"290 99 OFFCURVE",
"263 69 OFFCURVE",
"214 69 CURVE SMOOTH",
"175 69 OFFCURVE",
"140 92 OFFCURVE",
"103 138 CURVE",
"-24 -12 LINE",
"34 -80 OFFCURVE",
"125 -116 OFFCURVE",
"234 -116 CURVE SMOOTH"
);
}
);
width = 574;
}
);
leftKerningGroup = J.ss01;
leftMetricsKey = J;
rightKerningGroup = J.ss01;
rightMetricsKey = J;
},
{
glyphname = M.ss01;
lastChange = "2017-09-15 19:18:46 +0000";
layers = (
{
anchors = (
{
name = bottom;
position = "{563, 0}";
},
{
name = top;
position = "{563, 700}";
}
);
layerId = UUID0;
paths = (
{
closed = 1;
nodes = (
"993 0 LINE",
"993 442 LINE SMOOTH",
"993 615 OFFCURVE",
"908 703 OFFCURVE",
"774 703 CURVE SMOOTH",
"640 703 OFFCURVE",
"553 615 OFFCURVE",
"553 415 CURVE SMOOTH",
"553 330 LINE",
"573 330 LINE",
"573 421 LINE SMOOTH",
"573 603 OFFCURVE",
"646 684 OFFCURVE",
"773 684 CURVE SMOOTH",
"901 684 OFFCURVE",
"973 604 OFFCURVE",
"973 441 CURVE SMOOTH",
"973 0 LINE"
);
},
{
closed = 1;
nodes = (
"153 0 LINE",
"153 464 LINE",
"153 481 LINE",
"153 700 LINE",
"133 700 LINE",
"133 0 LINE"
);
},
{
closed = 1;
nodes = (
"573 0 LINE",
"573 442 LINE SMOOTH",
"573 615 OFFCURVE",
"488 703 OFFCURVE",
"354 703 CURVE SMOOTH",
"220 703 OFFCURVE",
"135 615 OFFCURVE",
"135 412 CURVE SMOOTH",
"135 300 LINE",
"153 300 LINE",
"153 421 LINE SMOOTH",
"153 603 OFFCURVE",
"226 684 OFFCURVE",
"353 684 CURVE SMOOTH",
"481 684 OFFCURVE",
"553 604 OFFCURVE",
"553 441 CURVE SMOOTH",
"553 0 LINE"
);
}
);
width = 1120;
},
{
anchors = (
{
name = bottom;
position = "{581, 0}";
},
{
name = top;
position = "{581, 700}";
}
);
background = {
paths = (
{
closed = 1;
nodes = (
"473 0 LINE",
"708 0 LINE",
"708 458 LINE SMOOTH",
"708 615 OFFCURVE",
"619 716 OFFCURVE",
"484 716 CURVE SMOOTH",
"334 716 OFFCURVE",
"239 592 OFFCURVE",
"239 400 CURVE",
"289 395 LINE",
"289 463 OFFCURVE",
"328 508 OFFCURVE",
"386 508 CURVE SMOOTH",
"442 508 OFFCURVE",
"473 467 OFFCURVE",
"473 402 CURVE SMOOTH"
);
},
{
closed = 1;
nodes = (
"892 0 LINE",
"1127 0 LINE",
"1127 458 LINE SMOOTH",
"1127 615 OFFCURVE",
"1038 716 OFFCURVE",
"903 716 CURVE SMOOTH",
"753 716 OFFCURVE",
"658 592 OFFCURVE",
"658 400 CURVE",
"708 395 LINE",
"708 463 OFFCURVE",
"747 508 OFFCURVE",
"805 508 CURVE SMOOTH",
"861 508 OFFCURVE",
"892 467 OFFCURVE",
"892 402 CURVE SMOOTH"
);
},
{
closed = 1;
nodes = (
"57 0 LINE",
"289 0 LINE",
"289 701 LINE",
"57 701 LINE"
);
}
);
};
layerId = "5DA6E103-6A94-47F2-987D-4952DB8EA68E";
paths = (
{
closed = 1;
nodes = (
"1105 0 LINE",
"1105 425 LINE SMOOTH",
"1105 615 OFFCURVE",
"1011 716 OFFCURVE",
"856 716 CURVE SMOOTH",
"701 716 OFFCURVE",
"595 612 OFFCURVE",
"595 425 CURVE SMOOTH",
"595 300 LINE",
"699 300 LINE",
"699 410 LINE SMOOTH",
"699 495 OFFCURVE",
"738 525 OFFCURVE",
"787 525 CURVE SMOOTH",
"836 525 OFFCURVE",
"869 496 OFFCURVE",
"869 418 CURVE SMOOTH",
"869 0 LINE"
);
},
{
closed = 1;
nodes = (
"293 0 LINE",
"293 522 LINE",
"286 551 LINE",
"286 700 LINE",
"57 700 LINE",
"57 0 LINE"
);
},
{
closed = 1;
nodes = (
"699 0 LINE",
"699 425 LINE SMOOTH",
"699 615 OFFCURVE",
"611 716 OFFCURVE",
"468 716 CURVE SMOOTH",
"309 716 OFFCURVE",
"231 602 OFFCURVE",
"231 415 CURVE SMOOTH",
"231 300 LINE",
"293 300 LINE",
"293 410 LINE SMOOTH",
"293 495 OFFCURVE",
"332 525 OFFCURVE",
"381 525 CURVE SMOOTH",
"430 525 OFFCURVE",
"463 496 OFFCURVE",
"463 418 CURVE SMOOTH",
"463 0 LINE"
);
}
);
width = 1156;
}
);
leftKerningGroup = H;
leftMetricsKey = H;
rightKerningGroup = N.ss01;
rightMetricsKey = U;
},
{
glyphname = N.ss01;
lastChange = "2017-09-15 19:18:46 +0000";
layers = (
{
anchors = (
{
name = bottom;
position = "{401, 0}";
},
{
name = top;
position = "{403, 700}";
}
);
background = {
paths = (
{
closed = 1;
nodes = (
"667 0 LINE",
"687 0 LINE",
"687 449 LINE SMOOTH",
"687 596 OFFCURVE",
"582 703 OFFCURVE",
"437 703 CURVE SMOOTH",
"262 703 OFFCURVE",
"134 584 OFFCURVE",
"134 429 CURVE",
"152 429 LINE",
"152 572 OFFCURVE",
"272 683 OFFCURVE",
"437 683 CURVE SMOOTH",
"570 683 OFFCURVE",
"667 584 OFFCURVE",
"667 449 CURVE SMOOTH"
);
},
{
closed = 1;
nodes = (
"133 0 LINE",
"153 0 LINE",
"153 699 LINE",
"133 699 LINE"
);
}
);
};
layerId = UUID0;
paths = (
{
closed = 1;
nodes = (
"673 0 LINE",
"673 422 LINE SMOOTH",
"673 605 OFFCURVE",
"570 703 OFFCURVE",
"404 703 CURVE SMOOTH",
"238 703 OFFCURVE",
"135 605 OFFCURVE",
"135 402 CURVE SMOOTH",
"135 300 LINE",
"153 300 LINE",
"153 401 LINE SMOOTH",
"153 593 OFFCURVE",
"244 684 OFFCURVE",
"403 684 CURVE SMOOTH",
"562 684 OFFCURVE",
"653 594 OFFCURVE",
"653 421 CURVE SMOOTH",
"653 0 LINE"
);
},
{
closed = 1;
nodes = (
"153 0 LINE",
"153 464 LINE",
"153 481 LINE",
"153 700 LINE",
"133 700 LINE",
"133 0 LINE"
);
}
);
width = 800;
},
{
anchors = (
{
name = bottom;
position = "{400, 0}";
},
{
name = top;
position = "{400, 700}";
}
);
background = {
paths = (
{
closed = 1;
nodes = (
"493 0 LINE",
"728 0 LINE",
"728 458 LINE SMOOTH",
"728 615 OFFCURVE",
"636 716 OFFCURVE",
"493 716 CURVE SMOOTH",
"339 716 OFFCURVE",
"239 592 OFFCURVE",
"239 400 CURVE",
"289 395 LINE",
"289 464 OFFCURVE",
"332 508 OFFCURVE",
"400 508 CURVE SMOOTH",
"457 508 OFFCURVE",
"493 466 OFFCURVE",
"493 402 CURVE SMOOTH"
);
},
{
closed = 1;
nodes = (
"57 0 LINE",
"289 0 LINE",
"289 700 LINE",
"57 700 LINE"
);
}
);
};
layerId = "5DA6E103-6A94-47F2-987D-4952DB8EA68E";
paths = (
{
closed = 1;
nodes = (
"743 0 LINE",
"743 405 LINE SMOOTH",
"743 605 OFFCURVE",
"647 716 OFFCURVE",
"482 716 CURVE SMOOTH",
"317 716 OFFCURVE",
"221 592 OFFCURVE",
"221 395 CURVE SMOOTH",
"221 300 LINE",
"293 300 LINE",
"293 390 LINE SMOOTH",
"293 483 OFFCURVE",
"342 525 OFFCURVE",
"403 525 CURVE SMOOTH",
"466 525 OFFCURVE",
"507 486 OFFCURVE",
"507 398 CURVE SMOOTH",
"507 0 LINE"
);
},
{
closed = 1;
nodes = (
"293 0 LINE",
"293 522 LINE",
"286 551 LINE",
"286 700 LINE",
"57 700 LINE",
"57 0 LINE"
);
}
);
width = 794;
}
);
leftKerningGroup = H;
leftMetricsKey = H;
rightKerningGroup = N.ss01;
rightMetricsKey = U;
},
{
glyphname = T.ss01;
lastChange = "2017-09-15 19:18:46 +0000";
layers = (
{
anchors = (
{
name = bottom;
position = "{274, 0}";
},
{
name = center;
position = "{274, 350}";
},
{
name = top;
position = "{274, 699}";
}
);
background = {
paths = (
{
closed = 1;
nodes = (
"851 624 LINE",
"926 662 OFFCURVE",
"1016 683 OFFCURVE",
"1101 683 CURVE SMOOTH",
"1188 683 OFFCURVE",
"1279 662 OFFCURVE",
"1353 624 CURVE",
"1361 640 LINE",
"1284 681 OFFCURVE",
"1192 703 OFFCURVE",
"1101 703 CURVE SMOOTH",
"1011 703 OFFCURVE",
"919 681 OFFCURVE",
"843 641 CURVE"
);
},
{
closed = 1;
nodes = (
"1092 0 LINE",
"1112 0 LINE",
"1112 690 LINE",
"1092 690 LINE"
);
},
{
closed = 1;
nodes = (
"4 681 LINE",
"264 681 LINE",
"264 0 LINE",
"284 0 LINE",
"284 681 LINE",
"544 681 LINE",
"544 700 LINE",
"4 700 LINE"
);
}
);
};
layerId = UUID0;
paths = (
{
closed = 1;
nodes = (
"97 664 OFFCURVE",
"188 684 OFFCURVE",
"273 684 CURVE SMOOTH",
"358 684 OFFCURVE",
"452 664 OFFCURVE",
"534 615 CURVE",
"544 631 LINE",
"457 682 OFFCURVE",
"363 703 OFFCURVE",
"273 703 CURVE SMOOTH",
"183 703 OFFCURVE",
"91 682 OFFCURVE",
"4 631 CURVE",
"14 615 LINE"
);
},
{
closed = 1;
nodes = (
"284 0 LINE",
"284 690 LINE",
"264 690 LINE",
"264 0 LINE"
);
}
);
width = 548;
},
{
anchors = (
{
name = bottom;
position = "{342, 0}";
},
{
name = center;
position = "{341, 300}";
},
{
name = top;
position = "{347, 701}";
}
);
background = {
paths = (
{
closed = 1;
nodes = (
"682 461 LINE",
"762 501 OFFCURVE",
"859 526 OFFCURVE",
"964 526 CURVE SMOOTH",
"1068 526 OFFCURVE",
"1164 502 OFFCURVE",
"1248 461 CURVE",
"1306 631 LINE",
"1206 686 OFFCURVE",
"1087 716 OFFCURVE",
"964 716 CURVE SMOOTH",
"841 716 OFFCURVE",
"722 686 OFFCURVE",
"624 632 CURVE"
);
},
{
closed = 1;
nodes = (
"849 0 LINE",
"1081 0 LINE",
"1081 606 LINE",
"849 606 LINE"
);
},
{
closed = 1;
nodes = (
"19 517 LINE",
"224 517 LINE",
"224 0 LINE",
"460 0 LINE",
"460 517 LINE",
"665 517 LINE",
"665 700 LINE",
"19 700 LINE"
);
}
);
};
layerId = "5DA6E103-6A94-47F2-987D-4952DB8EA68E";
paths = (
{
closed = 1;
nodes = (
"144 502 OFFCURVE",
"231 528 OFFCURVE",
"342 528 CURVE SMOOTH",
"453 528 OFFCURVE",
"540 502 OFFCURVE",
"624 455 CURVE",
"702 623 LINE",
"601 684 OFFCURVE",
"473 716 OFFCURVE",
"342 716 CURVE SMOOTH",
"211 716 OFFCURVE",
"83 684 OFFCURVE",
"-18 623 CURVE",
"60 455 LINE"
);
},
{
closed = 1;
nodes = (
"460 0 LINE",
"460 606 LINE",
"224 606 LINE",
"224 0 LINE"
);
}
);
width = 684;
}
);
leftKerningGroup = T.ss01;
rightKerningGroup = T.ss01;
},
{
glyphname = U.ss01;
lastChange = "2017-09-15 19:18:46 +0000";
layers = (
{
anchors = (
{
name = bottom;
position = "{397, 0}";
},
{
name = ogonek;
position = "{667, 0}";
},
{
name = top;
position = "{397, 700}";
},
{
name = topright;
position = "{661, 699}";
}
);
background = {
paths = (
{
closed = 1;
nodes = (
"147 699 LINE",
"127 699 LINE",
"127 254 LINE",
"127 105 OFFCURVE",
"232 -3 OFFCURVE",
"377 -3 CURVE",
"552 1 OFFCURVE",
"680 117 OFFCURVE",
"680 274 CURVE",
"662 274 LINE",
"662 129 OFFCURVE",
"542 21 OFFCURVE",
"377 17 CURVE",
"244 17 OFFCURVE",
"147 117 OFFCURVE",
"147 253 CURVE"
);
},
{
closed = 1;
nodes = (
"681 699 LINE",
"661 699 LINE",
"661 0 LINE",
"681 0 LINE"
);
}
);
};
layerId = UUID0;
paths = (
{
closed = 1;
nodes = (
"562 -3 OFFCURVE",
"665 95 OFFCURVE",
"665 298 CURVE SMOOTH",
"665 400 LINE",
"647 400 LINE",
"647 299 LINE SMOOTH",
"647 107 OFFCURVE",
"556 16 OFFCURVE",
"397 16 CURVE SMOOTH",
"238 16 OFFCURVE",
"147 106 OFFCURVE",
"147 279 CURVE SMOOTH",
"147 700 LINE",
"127 700 LINE",
"127 278 LINE SMOOTH",
"127 95 OFFCURVE",
"230 -3 OFFCURVE",
"396 -3 CURVE SMOOTH"
);
},
{
closed = 1;
nodes = (
"667 0 LINE",
"667 700 LINE",
"647 700 LINE",
"647 236 LINE",
"647 219 LINE",
"647 0 LINE"
);
}
);
width = 800;
},
{
anchors = (
{
name = bottom;
position = "{394, 0}";
},
{
name = ogonek;
position = "{737, 0}";
},
{
name = top;
position = "{394, 700}";
},
{
name = topright;
position = "{632, 700}";
}
);
background = {
paths = (
{
closed = 1;
nodes = (
"266 701 LINE",
"31 701 LINE",
"31 250 LINE SMOOTH",
"31 88 OFFCURVE",
"123 -16 OFFCURVE",
"266 -16 CURVE SMOOTH",
"420 -16 OFFCURVE",
"520 112 OFFCURVE",
"520 308 CURVE",
"470 315 LINE",
"470 241 OFFCURVE",
"427 192 OFFCURVE",
"359 192 CURVE SMOOTH",
"302 192 OFFCURVE",
"266 237 OFFCURVE",
"266 305 CURVE SMOOTH"
);
},
{
closed = 1;
nodes = (
"702 701 LINE",
"470 701 LINE",
"470 0 LINE",
"702 0 LINE"
);
}
);
};
layerId = "5DA6E103-6A94-47F2-987D-4952DB8EA68E";
paths = (
{
closed = 1;
nodes = (
"477 -16 OFFCURVE",
"573 108 OFFCURVE",
"573 305 CURVE SMOOTH",
"573 400 LINE",
"501 400 LINE",
"501 310 LINE SMOOTH",
"501 217 OFFCURVE",
"452 175 OFFCURVE",
"391 175 CURVE SMOOTH",
"328 175 OFFCURVE",
"287 214 OFFCURVE",
"287 302 CURVE SMOOTH",
"287 700 LINE",
"51 700 LINE",
"51 295 LINE SMOOTH",
"51 95 OFFCURVE",
"147 -16 OFFCURVE",
"322 -16 CURVE SMOOTH"
);
},
{
closed = 1;
nodes = (
"737 0 LINE",
"737 700 LINE",
"501 700 LINE",
"501 178 LINE",
"508 149 LINE",
"508 0 LINE"
);
}
);
width = 794;
}
);
leftKerningGroup = U;
leftMetricsKey = U;
rightKerningGroup = H;
rightMetricsKey = H;
},
{
glyphname = Y.ss01;
lastChange = "2017-09-15 19:18:46 +0000";
layers = (
{
anchors = (
{
name = bottom;
position = "{652, 0}";
},
{
name = top;
position = "{392, 700}";
}
);
background = {
paths = (
{
closed = 1;
nodes = (
"967 699 LINE",
"947 699 LINE",
"947 414 LINE",
"947 267 OFFCURVE",
"1049 160 OFFCURVE",
"1190 160 CURVE",
"1347 163 OFFCURVE",
"1461 278 OFFCURVE",
"1461 434 CURVE",
"1443 434 LINE",
"1443 290 OFFCURVE",
"1336 183 OFFCURVE",
"1190 180 CURVE",
"1061 180 OFFCURVE",
"967 279 OFFCURVE",
"967 414 CURVE"
);
},
{
closed = 1;
nodes = (
"1461 699 LINE",
"1442 699 LINE",
"1442 147 LINE",
"1442 16 OFFCURVE",
"1344 -80 OFFCURVE",
"1210 -80 CURVE",
"1114 -80 OFFCURVE",
"1010 -34 OFFCURVE",
"964 28 CURVE",
"949 14 LINE",
"996 -52 OFFCURVE",
"1106 -100 OFFCURVE",
"1210 -100 CURVE",
"1355 -100 OFFCURVE",
"1461 4 OFFCURVE",
"1461 147 CURVE"
);
},
{
closed = 1;
nodes = (
"142 600 LINE",
"122 600 LINE",
"122 193 LINE SMOOTH",
"122 -5 OFFCURVE",
"225 -103 OFFCURVE",
"392 -103 CURVE SMOOTH",
"559 -103 OFFCURVE",
"662 -5 OFFCURVE",
"662 193 CURVE SMOOTH",
"662 600 LINE",
"642 600 LINE",
"642 194 LINE SMOOTH",
"642 7 OFFCURVE",
"551 -84 OFFCURVE",
"392 -84 CURVE SMOOTH",
"233 -84 OFFCURVE",
"142 7 OFFCURVE",
"142 194 CURVE SMOOTH"
);
}
);
};
layerId = UUID0;
paths = (
{
closed = 1;
nodes = (
"559 -103 OFFCURVE",
"662 -5 OFFCURVE",
"662 193 CURVE SMOOTH",
"662 700 LINE",
"642 700 LINE",
"642 194 LINE SMOOTH",
"642 7 OFFCURVE",
"551 -84 OFFCURVE",
"393 -84 CURVE SMOOTH",
"287 -84 OFFCURVE",
"209 -48 OFFCURVE",
"151 27 CURVE",
"136 13 LINE",
"193 -61 OFFCURVE",
"280 -103 OFFCURVE",
"392 -103 CURVE SMOOTH"
);
},
{
closed = 1;
nodes = (
"557 181 OFFCURVE",
"660 279 OFFCURVE",
"660 482 CURVE SMOOTH",
"660 584 LINE",
"642 584 LINE",
"642 483 LINE SMOOTH",
"642 291 OFFCURVE",
"551 200 OFFCURVE",
"392 200 CURVE SMOOTH",
"233 200 OFFCURVE",
"142 290 OFFCURVE",
"142 463 CURVE SMOOTH",
"142 700 LINE",
"122 700 LINE",
"122 462 LINE SMOOTH",
"122 279 OFFCURVE",
"225 181 OFFCURVE",
"391 181 CURVE SMOOTH"
);
}
);
width = 789;
},
{
anchors = (
{
name = bottom;
position = "{661, 0}";
},
{
name = top;
position = "{389, 700}";
}
);
background = {
paths = (
{
closed = 1;
nodes = (
"282 600 LINE",
"46 600 LINE",
"46 215 LINE SMOOTH",
"46 5 OFFCURVE",
"172 -116 OFFCURVE",
"387 -116 CURVE SMOOTH",
"602 -116 OFFCURVE",
"728 5 OFFCURVE",
"728 215 CURVE SMOOTH",
"728 600 LINE",
"496 600 LINE",
"496 222 LINE SMOOTH",
"496 115 OFFCURVE",
"455 75 OFFCURVE",
"389 75 CURVE SMOOTH",
"323 75 OFFCURVE",
"282 115 OFFCURVE",
"282 222 CURVE SMOOTH"
);
}
);
};
layerId = "5DA6E103-6A94-47F2-987D-4952DB8EA68E";
paths = (
{
closed = 1;
nodes = (
"592 -116 OFFCURVE",
"732 5 OFFCURVE",
"732 225 CURVE SMOOTH",
"732 700 LINE",
"496 700 LINE",
"496 212 LINE SMOOTH",
"496 115 OFFCURVE",
"458 72 OFFCURVE",
"361 72 CURVE SMOOTH",
"292 72 OFFCURVE",
"217 94 OFFCURVE",
"151 136 CURVE",
"65 -31 LINE",
"138 -83 OFFCURVE",
"242 -116 OFFCURVE",
"372 -116 CURVE SMOOTH"
);
},
{
closed = 1;
nodes = (
"472 162 OFFCURVE",
"568 276 OFFCURVE",
"568 473 CURVE SMOOTH",
"568 568 LINE",
"496 568 LINE",
"496 478 LINE SMOOTH",
"496 385 OFFCURVE",
"447 353 OFFCURVE",
"386 353 CURVE SMOOTH",
"315 353 OFFCURVE",
"282 391 OFFCURVE",
"282 470 CURVE SMOOTH",
"282 700 LINE",
"46 700 LINE",
"46 453 LINE SMOOTH",
"46 264 OFFCURVE",
"141 162 OFFCURVE",
"317 162 CURVE SMOOTH"
);
}
);
width = 783;
}
);
leftKerningGroup = Y.ss01;
leftMetricsKey = "=U-5";
rightKerningGroup = U;
rightMetricsKey = U;
},
{
glyphname = Z.ss01;
lastChange = "2017-09-15 19:18:46 +0000";
layers = (
{
anchors = (
{
name = bottom;
position = "{335, 0}";
},
{
name = top;
position = "{325, 700}";
}
);
background = {
paths = (
{
closed = 1;
nodes = (
"55 681 LINE",
"568 681 LINE",
"567 688 LINE",
"55 15 LINE",
"55 0 LINE",
"605 0 LINE",
"605 19 LINE",
"77 19 LINE",
"78 12 LINE",
"590 685 LINE",
"590 700 LINE",
"55 700 LINE"
);
},
{
closed = 1;
nodes = (
"137 346 LINE",
"523 346 LINE",
"523 365 LINE",
"137 365 LINE"
);
}
);
};
layerId = UUID0;
paths = (
{
closed = 1;
nodes = (
"605 0 LINE",
"605 19 LINE",
"77 19 LINE",
"78 12 LINE",
"590 685 LINE",
"590 700 LINE",
"55 700 LINE",
"55 681 LINE",
"568 681 LINE",
"567 688 LINE",
"55 15 LINE",
"55 0 LINE"
);
},
{
closed = 1;
nodes = (
"316 346 LINE",
"323 346 LINE",
"521 346 LINE",
"521 365 LINE",
"337 365 LINE",
"330 365 LINE",
"121 365 LINE",
"121 346 LINE"
);
}
);
width = 649;
},
{
anchors = (
{
name = bottom;
position = "{359, 0}";
},
{
name = top;
position = "{359, 700}";
}
);
background = {
paths = (
{
closed = 1;
nodes = (
"48 523 LINE",
"457 523 LINE",
"428 580 LINE",
"37 130 LINE",
"37 0 LINE",
"680 0 LINE",
"680 178 LINE",
"245 178 LINE",
"274 121 LINE",
"665 571 LINE",
"665 701 LINE",
"48 701 LINE"
);
},
{
closed = 1;
nodes = (
"89 275 LINE",
"620 275 LINE",
"620 435 LINE",
"89 435 LINE"
);
}
);
};
layerId = "5DA6E103-6A94-47F2-987D-4952DB8EA68E";
paths = (
{
closed = 1;
nodes = (
"680 0 LINE",
"680 178 LINE",
"245 178 LINE",
"277 121 LINE",
"665 571 LINE",
"665 701 LINE",
"48 701 LINE",
"48 523 LINE",
"457 523 LINE",
"425 580 LINE",
"37 130 LINE",
"37 0 LINE"
);
},
{
closed = 1;
nodes = (
"278 277 LINE",
"338 273 LINE",
"616 273 LINE",
"616 433 LINE",
"448 433 LINE",
"388 437 LINE",
"87 437 LINE",
"87 277 LINE"
);
}
);
width = 697;
}
);
leftKerningGroup = Z;
leftMetricsKey = "=Z+5";
rightKerningGroup = Z;
rightMetricsKey = "=Z+5";
},
{
glyphname = a.sc;
lastChange = "2017-09-15 19:18:46 +0000";
layers = (
{
anchors = (
{
name = bottom;
position = "{281, 0}";
},
{
name = ogonek;
position = "{554, 0}";
},
{
name = top;
position = "{281, 559}";
},
{
name = topleft;
position = "{88, 559}";
}
);
background = {
paths = (
{
closed = 1;
nodes = (
"31 0 LINE",
"286 544 LINE",
"277 544 LINE",
"531 0 LINE",
"554 0 LINE",
"291 559 LINE",
"271 559 LINE",
"9 0 LINE"
);
},
{
closed = 1;
nodes = (
"472 147 LINE",
"463 166 LINE",
"98 166 LINE",
"89 147 LINE"
);
}
);
};
layerId = UUID0;
paths = (
{
closed = 1;
nodes = (
"31 0 LINE",
"286 544 LINE",
"277 544 LINE",
"531 0 LINE",
"554 0 LINE",
"291 559 LINE",
"271 559 LINE",
"9 0 LINE"
);
},
{
closed = 1;
nodes = (
"462 169 LINE",
"453 188 LINE",
"109 188 LINE",
"100 169 LINE"
);
}
);
width = 563;
},
{
anchors = (
{
name = bottom;
position = "{351, 0}";
},
{
name = ogonek;
position = "{720, 0}";
},
{
name = top;
position = "{351, 582}";
},
{
name = topleft;
position = "{106, 583}";
}
);
background = {
paths = (
{
closed = 1;
nodes = (
"202 0 LINE",
"389 478 LINE",
"314 478 LINE",
"497 0 LINE",
"720 0 LINE",
"464 582 LINE",
"238 582 LINE",
"-18 0 LINE"
);
},
{
closed = 1;
nodes = (
"517 76 LINE",
"459 234 LINE",
"206 234 LINE",
"148 76 LINE"
);
}
);
};
layerId = "5DA6E103-6A94-47F2-987D-4952DB8EA68E";
paths = (
{
closed = 1;
nodes = (
"202 0 LINE",
"389 478 LINE",
"314 478 LINE",
"497 0 LINE",
"720 0 LINE",
"464 582 LINE",
"238 582 LINE",
"-18 0 LINE"
);
},
{
closed = 1;
nodes = (
"517 88 LINE",
"459 246 LINE",
"206 246 LINE",
"148 88 LINE"
);
}
);
width = 702;
}
);
leftKerningGroup = a.sc;
rightKerningGroup = a.sc;
rightMetricsKey = "=|";
userData = {
RMXScaler = {
source = A;
};
};
},
{
glyphname = b.sc;
lastChange = "2017-09-15 19:18:46 +0000";
layers = (
{
anchors = (
{
name = bottom;
position = "{321, 0}";
},
{
name = top;
position = "{321, 559}";
}
);
background = {
anchors = (
{
name = bottom;
position = "{321, 0}";
},
{
name = top;
position = "{321, 559}";
}
);
paths = (
{
closed = 1;
nodes = (
"364 0 LINE",
"502 0 OFFCURVE",
"570 52 OFFCURVE",
"570 146 CURVE SMOOTH",
"570 241 OFFCURVE",
"504 291 OFFCURVE",
"373 291 CURVE",
"360 279 LINE",
"465 279 OFFCURVE",
"539 325 OFFCURVE",
"539 418 CURVE SMOOTH",
"539 511 OFFCURVE",
"465 559 OFFCURVE",
"348 559 CURVE SMOOTH",
"122 559 LINE",
"122 0 LINE"
);
},
{
closed = 1;
nodes = (
"142 275 LINE",
"367 275 LINE SMOOTH",
"486 275 OFFCURVE",
"550 236 OFFCURVE",
"550 147 CURVE SMOOTH",
"550 59 OFFCURVE",
"486 19 OFFCURVE",
"367 19 CURVE SMOOTH",
"142 19 LINE"
);
},
{
closed = 1;
nodes = (
"142 541 LINE",
"351 541 LINE SMOOTH",
"457 541 OFFCURVE",
"519 498 OFFCURVE",
"519 417 CURVE SMOOTH",
"519 336 OFFCURVE",
"457 293 OFFCURVE",
"351 293 CURVE SMOOTH",
"142 293 LINE"
);
}
);
};
layerId = UUID0;
paths = (
{
closed = 1;
nodes = (
"364 0 LINE",
"502 0 OFFCURVE",
"570 52 OFFCURVE",
"570 146 CURVE SMOOTH",
"570 241 OFFCURVE",
"504 290 OFFCURVE",
"373 290 CURVE",
"360 278 LINE",
"465 278 OFFCURVE",
"539 325 OFFCURVE",
"539 418 CURVE SMOOTH",
"539 511 OFFCURVE",
"465 559 OFFCURVE",
"348 559 CURVE SMOOTH",
"122 559 LINE",
"122 0 LINE"
);
},
{
closed = 1;
nodes = (
"142 274 LINE",
"367 274 LINE SMOOTH",
"486 274 OFFCURVE",
"550 236 OFFCURVE",
"550 147 CURVE SMOOTH",
"550 59 OFFCURVE",
"486 19 OFFCURVE",
"367 19 CURVE SMOOTH",
"142 19 LINE"
);
},
{
closed = 1;
nodes = (
"142 540 LINE",
"351 540 LINE SMOOTH",
"457 540 OFFCURVE",
"519 498 OFFCURVE",
"519 417 CURVE SMOOTH",
"519 336 OFFCURVE",
"457 293 OFFCURVE",
"351 293 CURVE SMOOTH",
"142 293 LINE"
);
}
);
width = 626;
},
{
anchors = (
{
name = bottom;
position = "{339, 0}";
},
{
name = top;
position = "{339, 582}";
}
);
background = {
anchors = (
{
name = bottom;
position = "{339, 0}";
},
{
name = top;
position = "{339, 582}";
}
);
paths = (
{
closed = 1;
nodes = (
"399 0 LINE",
"566 0 OFFCURVE",
"656 60 OFFCURVE",
"656 162 CURVE SMOOTH",
"656 263 OFFCURVE",
"566 325 OFFCURVE",
"428 325 CURVE",
"410 275 LINE",
"553 275 OFFCURVE",
"629 342 OFFCURVE",
"629 429 CURVE SMOOTH",
"629 516 OFFCURVE",
"553 582 OFFCURVE",
"383 582 CURVE SMOOTH",
"53 582 LINE",
"53 0 LINE"
);
},
{
closed = 1;
nodes = (
"279 220 LINE",
"379 220 LINE SMOOTH",
"410 220 OFFCURVE",
"424 208 OFFCURVE",
"424 187 CURVE SMOOTH",
"424 167 OFFCURVE",
"410 155 OFFCURVE",
"379 155 CURVE SMOOTH",
"279 155 LINE"
);
},
{
closed = 1;
nodes = (
"279 427 LINE",
"350 427 LINE SMOOTH",
"384 427 OFFCURVE",
"397 416 OFFCURVE",
"397 396 CURVE SMOOTH",
"397 377 OFFCURVE",
"384 366 OFFCURVE",
"350 366 CURVE SMOOTH",
"279 366 LINE"
);
}
);
};
layerId = "5DA6E103-6A94-47F2-987D-4952DB8EA68E";
paths = (
{
closed = 1;
nodes = (
"399 0 LINE",
"566 0 OFFCURVE",
"656 60 OFFCURVE",
"656 162 CURVE SMOOTH",
"656 263 OFFCURVE",
"571 325 OFFCURVE",
"438 325 CURVE",
"420 275 LINE",
"558 275 OFFCURVE",
"629 342 OFFCURVE",
"629 429 CURVE SMOOTH",
"629 516 OFFCURVE",
"553 582 OFFCURVE",
"383 582 CURVE SMOOTH",
"53 582 LINE",
"53 0 LINE"
);
},
{
closed = 1;
nodes = (
"279 224 LINE",
"381 224 LINE SMOOTH",
"410 224 OFFCURVE",
"426 211 OFFCURVE",
"426 188 CURVE SMOOTH",
"426 166 OFFCURVE",
"410 152 OFFCURVE",
"381 152 CURVE SMOOTH",
"279 152 LINE"
);
},
{
closed = 1;
nodes = (
"279 430 LINE",
"352 430 LINE SMOOTH",
"384 430 OFFCURVE",
"399 417 OFFCURVE",
"399 395 CURVE SMOOTH",
"399 374 OFFCURVE",
"384 362 OFFCURVE",
"352 362 CURVE SMOOTH",
"279 362 LINE"
);
}
);
width = 674;
}
);
leftKerningGroup = h.sc;
leftMetricsKey = h.sc;
rightKerningGroup = b.sc;
userData = {
RMXScaler = {
source = B;
};
};
},
{
glyphname = c.sc;
lastChange = "2017-09-15 19:18:46 +0000";
layers = (
{
anchors = (
{
name = bottom;
position = "{339, 0}";
},
{
name = top;
position = "{339, 559}";
}
);
background = {
anchors = (
{
name = bottom;
position = "{339, 0}";
},
{
name = top;
position = "{339, 559}";
}
);
paths = (
{
closed = 1;
nodes = (
"541 70 CURVE",
"529 84 LINE",
"478 36 OFFCURVE",
"416 17 OFFCURVE",
"347 17 CURVE SMOOTH",
"193 17 OFFCURVE",
"76 131 OFFCURVE",
"76 280 CURVE SMOOTH",
"76 429 OFFCURVE",
"193 543 OFFCURVE",
"347 543 CURVE SMOOTH",
"416 543 OFFCURVE",
"478 524 OFFCURVE",
"529 476 CURVE",
"541 490 LINE",
"492 538 OFFCURVE",
"422 562 OFFCURVE",
"347 562 CURVE SMOOTH",
"181 562 OFFCURVE",
"56 441 OFFCURVE",
"56 280 CURVE SMOOTH",
"56 118 OFFCURVE",
"181 -3 OFFCURVE",
"347 -3 CURVE SMOOTH",
"422 -3 OFFCURVE",
"492 22 OFFCURVE"
);
}
);
};
layerId = UUID0;
paths = (
{
closed = 1;
nodes = (
"422 -3 OFFCURVE",
"492 22 OFFCURVE",
"541 70 CURVE",
"529 84 LINE",
"478 36 OFFCURVE",
"416 17 OFFCURVE",
"347 17 CURVE SMOOTH",
"193 17 OFFCURVE",
"76 131 OFFCURVE",
"76 280 CURVE SMOOTH",
"76 429 OFFCURVE",
"193 543 OFFCURVE",
"347 543 CURVE SMOOTH",
"416 543 OFFCURVE",
"478 524 OFFCURVE",
"529 476 CURVE",
"541 490 LINE",
"492 538 OFFCURVE",
"422 562 OFFCURVE",
"347 562 CURVE SMOOTH",
"181 562 OFFCURVE",
"56 441 OFFCURVE",
"56 280 CURVE SMOOTH",
"56 118 OFFCURVE",
"181 -3 OFFCURVE",
"347 -3 CURVE SMOOTH"
);
}
);
width = 588;
},
{
anchors = (
{
name = bottom;
position = "{333, 0}";
},
{
name = top;
position = "{359, 583}";
}
);
background = {
anchors = (
{
name = bottom;
position = "{1033, 0}";
},
{
name = top;
position = "{1059, 583}";
}
);
paths = (
{
closed = 1;
nodes = (
"1181 -15 OFFCURVE",
"1275 29 OFFCURVE",
"1335 108 CURVE",
"1190 233 LINE",
"1158 191 OFFCURVE",
"1121 165 OFFCURVE",
"1070 165 CURVE SMOOTH",
"1001 165 OFFCURVE",
"956 212 OFFCURVE",
"956 291 CURVE SMOOTH",
"956 370 OFFCURVE",
"1001 417 OFFCURVE",
"1070 417 CURVE SMOOTH",
"1121 417 OFFCURVE",
"1158 391 OFFCURVE",
"1190 349 CURVE",
"1335 474 LINE",
"1275 552 OFFCURVE",
"1181 597 OFFCURVE",
"1059 597 CURVE SMOOTH",
"865 597 OFFCURVE",
"724 471 OFFCURVE",
"724 291 CURVE SMOOTH",
"724 111 OFFCURVE",
"865 -15 OFFCURVE",
"1059 -15 CURVE SMOOTH"
);
},
{
closed = 1;
nodes = (
"481 597 OFFCURVE",
"361 597 CURVE SMOOTH",
"168 597 OFFCURVE",
"24 470 OFFCURVE",
"24 291 CURVE SMOOTH",
"24 112 OFFCURVE",
"168 -15 OFFCURVE",
"361 -15 CURVE SMOOTH",
"479 -15 OFFCURVE",
"569 18 OFFCURVE",
"635 108 CURVE",
"488 233 LINE",
"453 187 OFFCURVE",
"415 165 OFFCURVE",
"370 165 CURVE SMOOTH",
"304 165 OFFCURVE",
"256 211 OFFCURVE",
"256 291 CURVE SMOOTH",
"256 371 OFFCURVE",
"304 417 OFFCURVE",
"370 417 CURVE SMOOTH",
"415 417 OFFCURVE",
"453 395 OFFCURVE",
"488 349 CURVE",
"635 474 LINE",
"569 561 OFFCURVE"
);
}
);
};
layerId = "5DA6E103-6A94-47F2-987D-4952DB8EA68E";
paths = (
{
closed = 1;
nodes = (
"479 -15 OFFCURVE",
"569 18 OFFCURVE",
"635 108 CURVE",
"488 233 LINE",
"453 187 OFFCURVE",
"415 165 OFFCURVE",
"370 165 CURVE SMOOTH",
"304 165 OFFCURVE",
"256 211 OFFCURVE",
"256 291 CURVE SMOOTH",
"256 371 OFFCURVE",
"304 417 OFFCURVE",
"370 417 CURVE SMOOTH",
"415 417 OFFCURVE",
"453 395 OFFCURVE",
"488 349 CURVE",
"635 474 LINE",
"569 564 OFFCURVE",
"479 597 OFFCURVE",
"361 597 CURVE SMOOTH",
"168 597 OFFCURVE",
"24 470 OFFCURVE",
"24 291 CURVE SMOOTH",
"24 112 OFFCURVE",
"168 -15 OFFCURVE",
"361 -15 CURVE SMOOTH"
);
}
);
width = 646;
}
);
leftKerningGroup = o.sc;
leftMetricsKey = o.sc;
rightKerningGroup = c.sc;
userData = {
RMXScaler = {
source = C;
};
};
},
{
glyphname = d.sc;
lastChange = "2017-09-15 19:18:46 +0000";
layers = (
{
anchors = (
{
name = bottom;
position = "{336, 0}";
},
{
name = center;
position = "{178, 284}";
},
{
name = top;
position = "{332, 559}";
}
);
background = {
anchors = (
{
name = bottom;
position = "{336, 0}";
},
{
name = center;
position = "{178, 284}";
},
{
name = top;
position = "{332, 559}";
}
);
paths = (
{
closed = 1;
nodes = (
"338 0 LINE",
"517 0 OFFCURVE",
"637 118 OFFCURVE",
"637 280 CURVE SMOOTH",
"637 441 OFFCURVE",
"517 559 OFFCURVE",
"338 559 CURVE SMOOTH",
"122 559 LINE",
"122 0 LINE"
);
},
{
closed = 1;
nodes = (
"142 540 LINE",
"336 540 LINE SMOOTH",
"507 540 OFFCURVE",
"617 430 OFFCURVE",
"617 280 CURVE SMOOTH",
"617 129 OFFCURVE",
"507 19 OFFCURVE",
"336 19 CURVE SMOOTH",
"142 19 LINE"
);
}
);
};
layerId = UUID0;
paths = (
{
closed = 1;
nodes = (
"338 0 LINE",
"525 0 OFFCURVE",
"637 118 OFFCURVE",
"637 280 CURVE SMOOTH",
"637 441 OFFCURVE",
"525 559 OFFCURVE",
"338 559 CURVE SMOOTH",
"122 559 LINE",
"122 0 LINE"
);
},
{
closed = 1;
nodes = (
"142 540 LINE",
"336 540 LINE SMOOTH",
"516 540 OFFCURVE",
"617 430 OFFCURVE",
"617 280 CURVE SMOOTH",
"617 129 OFFCURVE",
"516 19 OFFCURVE",
"336 19 CURVE SMOOTH",
"142 19 LINE"
);
}
);
width = 693;
},
{
anchors = (
{
name = bottom;
position = "{315, 0}";
},
{
name = center;
position = "{190, 295}";
},
{
name = top;
position = "{314, 582}";
}
);
background = {
anchors = (
{
name = bottom;
position = "{315, 0}";
},
{
name = center;
position = "{190, 295}";
},
{
name = top;
position = "{314, 582}";
}
);
paths = (
{
closed = 1;
nodes = (
"356 0 LINE",
"555 0 OFFCURVE",
"693 109 OFFCURVE",
"693 291 CURVE SMOOTH",
"693 473 OFFCURVE",
"555 582 OFFCURVE",
"356 582 CURVE SMOOTH",
"53 582 LINE",
"53 0 LINE"
);
},
{
closed = 1;
nodes = (
"283 408 LINE",
"346 408 LINE SMOOTH",
"414 408 OFFCURVE",
"462 369 OFFCURVE",
"462 291 CURVE SMOOTH",
"462 212 OFFCURVE",
"414 173 OFFCURVE",
"346 173 CURVE SMOOTH",
"283 173 LINE"
);
}
);
};
layerId = "5DA6E103-6A94-47F2-987D-4952DB8EA68E";
paths = (
{
closed = 1;
nodes = (
"353 0 LINE SMOOTH",
"555 0 OFFCURVE",
"694 109 OFFCURVE",
"694 291 CURVE SMOOTH",
"694 473 OFFCURVE",
"555 582 OFFCURVE",
"353 582 CURVE SMOOTH",
"53 582 LINE",
"53 0 LINE"
);
},
{
closed = 1;
nodes = (
"283 410 LINE",
"346 410 LINE SMOOTH",
"412 410 OFFCURVE",
"462 372 OFFCURVE",
"462 291 CURVE SMOOTH",
"462 210 OFFCURVE",
"412 172 OFFCURVE",
"346 172 CURVE SMOOTH",
"283 172 LINE"
);
}
);
width = 718;
}
);
leftKerningGroup = h.sc;
leftMetricsKey = h.sc;
rightKerningGroup = o.sc;
rightMetricsKey = o.sc;
userData = {
RMXScaler = {
source = D;
};
};
},
{
glyphname = e.sc;
lastChange = "2017-09-15 19:18:46 +0000";
layers = (
{
anchors = (
{
name = bottom;
position = "{320, 0}";
},
{
name = ogonek;
position = "{501, 0}";
},
{
name = top;
position = "{306, 559}";
},
{
name = topleft;
position = "{48, 559}";
}
);
background = {
anchors = (
{
name = bottom;
position = "{320, 0}";
},
{
name = ogonek;
position = "{501, 0}";
},
{
name = top;
position = "{306, 559}";
},
{
name = topleft;
position = "{48, 559}";
}
);
paths = (
{
closed = 1;
nodes = (
"501 0 LINE",
"501 19 LINE",
"142 19 LINE",
"142 275 LINE",
"453 275 LINE",
"453 293 LINE",
"142 293 LINE",
"142 540 LINE",
"489 540 LINE",
"489 559 LINE",
"122 559 LINE",
"122 0 LINE"
);
}
);
};
layerId = UUID0;
paths = (
{
closed = 1;
nodes = (
"501 0 LINE",
"501 19 LINE",
"142 19 LINE",
"142 274 LINE",
"453 274 LINE",
"453 293 LINE",
"142 293 LINE",
"142 540 LINE",
"489 540 LINE",
"489 559 LINE",
"122 559 LINE",
"122 0 LINE"
);
}
);
width = 559;
},
{
anchors = (
{
name = bottom;
position = "{300, 0}";
},
{
name = ogonek;
position = "{561, 0}";
},
{
name = top;
position = "{302, 582}";
},
{
name = topleft;
position = "{0, 582}";
}
);
background = {
anchors = (
{
name = bottom;
position = "{300, 0}";
},
{
name = ogonek;
position = "{561, 0}";
},
{
name = top;
position = "{302, 582}";
},
{
name = topleft;
position = "{0, 582}";
}
);
paths = (
{
closed = 1;
nodes = (
"561 0 LINE",
"561 168 LINE",
"279 168 LINE",
"279 215 LINE",
"516 215 LINE",
"516 375 LINE",
"279 375 LINE",
"279 414 LINE",
"550 414 LINE",
"550 582 LINE",
"53 582 LINE",
"53 0 LINE"
);
}
);
};
layerId = "5DA6E103-6A94-47F2-987D-4952DB8EA68E";
paths = (
{
closed = 1;
nodes = (
"561 0 LINE",
"561 165 LINE",
"279 165 LINE",
"279 218 LINE",
"516 218 LINE",
"516 372 LINE",
"279 372 LINE",
"279 417 LINE",
"550 417 LINE",
"550 582 LINE",
"53 582 LINE",
"53 0 LINE"
);
}
);
width = 588;
}
);
leftKerningGroup = h.sc;
leftMetricsKey = h.sc;
rightKerningGroup = e.sc;
userData = {
RMXScaler = {
source = E;
};
};
},
{
glyphname = f.sc;
lastChange = "2017-09-15 19:18:46 +0000";
layers = (
{
background = {
paths = (
{
closed = 1;
nodes = (
"142 0 LINE",
"142 258 LINE",
"453 258 LINE",
"453 277 LINE",
"142 277 LINE",
"142 540 LINE",
"489 540 LINE",
"489 559 LINE",
"122 559 LINE",
"122 0 LINE"
);
}
);
};
layerId = UUID0;
paths = (
{
closed = 1;
nodes = (
"142 0 LINE",
"142 258 LINE",
"453 258 LINE",
"453 277 LINE",
"142 277 LINE",
"142 540 LINE",
"489 540 LINE",
"489 559 LINE",
"122 559 LINE",
"122 0 LINE"
);
}
);
width = 531;
},
{
background = {
paths = (
{
closed = 1;
nodes = (
"283 0 LINE",
"283 174 LINE",
"516 174 LINE",
"516 341 LINE",
"283 341 LINE",
"283 414 LINE",
"550 414 LINE",
"550 582 LINE",
"53 582 LINE",
"53 0 LINE"
);
}
);
};
layerId = "5DA6E103-6A94-47F2-987D-4952DB8EA68E";
paths = (
{
closed = 1;
nodes = (
"283 0 LINE",
"283 174 LINE",
"516 174 LINE",
"516 339 LINE",
"283 339 LINE",
"283 417 LINE",
"550 417 LINE",
"550 582 LINE",
"53 582 LINE",
"53 0 LINE"
);
}
);
width = 566;
}
);
leftKerningGroup = h.sc;
leftMetricsKey = h.sc;
rightKerningGroup = f.sc;
userData = {
RMXScaler = {
source = F;
};
};
},
{
glyphname = g.sc;
lastChange = "2017-09-15 19:18:46 +0000";
layers = (
{
anchors = (
{
name = bottom;
position = "{334, 0}";
},
{
name = top;
position = "{335, 559}";
}
);
background = {
anchors = (
{
name = bottom;
position = "{334, 0}";
},
{
name = top;
position = "{335, 559}";
}
);
paths = (
{
closed = 1;
nodes = (
"546 69 CURVE",
"534 85 LINE",
"485 36 OFFCURVE",
"420 17 OFFCURVE",
"350 17 CURVE SMOOTH",
"193 17 OFFCURVE",
"76 131 OFFCURVE",
"76 280 CURVE SMOOTH",
"76 429 OFFCURVE",
"193 543 OFFCURVE",
"350 543 CURVE SMOOTH",
"421 543 OFFCURVE",
"482 524 OFFCURVE",
"534 476 CURVE",
"546 490 LINE",
"497 538 OFFCURVE",
"427 562 OFFCURVE",
"350 562 CURVE SMOOTH",
"181 562 OFFCURVE",
"56 441 OFFCURVE",
"56 280 CURVE SMOOTH",
"56 118 OFFCURVE",
"181 -3 OFFCURVE",
"350 -3 CURVE SMOOTH",
"427 -3 OFFCURVE",
"497 21 OFFCURVE"
);
},
{
closed = 1;
nodes = (
"546 76 LINE",
"542 275 LINE",
"527 268 LINE",
"531 69 LINE"
);
}
);
};
layerId = UUID0;
paths = (
{
closed = 1;
nodes = (
"546 69 CURVE",
"534 85 LINE",
"485 35 OFFCURVE",
"420 17 OFFCURVE",
"350 17 CURVE SMOOTH",
"193 17 OFFCURVE",
"76 131 OFFCURVE",
"76 280 CURVE SMOOTH",
"76 429 OFFCURVE",
"193 543 OFFCURVE",
"350 543 CURVE SMOOTH",
"421 543 OFFCURVE",
"482 524 OFFCURVE",
"534 476 CURVE",
"546 490 LINE",
"497 538 OFFCURVE",
"427 562 OFFCURVE",
"350 562 CURVE SMOOTH",
"181 562 OFFCURVE",
"56 441 OFFCURVE",
"56 280 CURVE SMOOTH",
"56 118 OFFCURVE",
"181 -3 OFFCURVE",
"350 -3 CURVE SMOOTH",
"427 -3 OFFCURVE",
"497 21 OFFCURVE"
);
},
{
closed = 1;
nodes = (
"546 69 LINE",
"546 275 LINE",
"527 275 LINE",
"527 69 LINE"
);
}
);
width = 647;
},
{
anchors = (
{
name = bottom;
position = "{352, 0}";
},
{
name = top;
position = "{366, 583}";
}
);
background = {
anchors = (
{
name = bottom;
position = "{352, 0}";
},
{
name = top;
position = "{366, 583}";
}
);
paths = (
{
closed = 1;
nodes = (
"1147 -15 OFFCURVE",
"1251 11 OFFCURVE",
"1326 59 CURVE",
"1198 212 LINE",
"1150 177 OFFCURVE",
"1113 165 OFFCURVE",
"1073 165 CURVE SMOOTH",
"1001 165 OFFCURVE",
"956 214 OFFCURVE",
"956 291 CURVE SMOOTH",
"956 371 OFFCURVE",
"1001 417 OFFCURVE",
"1076 417 CURVE SMOOTH",
"1125 417 OFFCURVE",
"1164 395 OFFCURVE",
"1199 354 CURVE",
"1346 479 LINE",
"1284 554 OFFCURVE",
"1187 597 OFFCURVE",
"1064 597 CURVE SMOOTH",
"865 597 OFFCURVE",
"724 471 OFFCURVE",
"724 291 CURVE SMOOTH",
"724 111 OFFCURVE",
"865 -15 OFFCURVE",
"1059 -15 CURVE SMOOTH"
);
},
{
closed = 1;
nodes = (
"1326 341 LINE",
"1124 310 LINE",
"1127 56 LINE",
"1329 59 LINE"
);
},
{
closed = 1;
nodes = (
"560 -15 OFFCURVE",
"703 114 OFFCURVE",
"703 291 CURVE SMOOTH",
"703 468 OFFCURVE",
"560 597 OFFCURVE",
"364 597 CURVE SMOOTH",
"168 597 OFFCURVE",
"24 468 OFFCURVE",
"24 291 CURVE SMOOTH",
"24 114 OFFCURVE",
"168 -15 OFFCURVE",
"364 -15 CURVE SMOOTH"
);
},
{
closed = 1;
nodes = (
"301 165 OFFCURVE",
"256 217 OFFCURVE",
"256 291 CURVE SMOOTH",
"256 365 OFFCURVE",
"301 417 OFFCURVE",
"364 417 CURVE SMOOTH",
"427 417 OFFCURVE",
"471 365 OFFCURVE",
"471 291 CURVE SMOOTH",
"471 217 OFFCURVE",
"427 165 OFFCURVE",
"364 165 CURVE SMOOTH"
);
}
);
};
layerId = "5DA6E103-6A94-47F2-987D-4952DB8EA68E";
paths = (
{
closed = 1;
nodes = (
"626 59 CURVE",
"498 208 LINE",
"454 178 OFFCURVE",
"417 165 OFFCURVE",
"373 165 CURVE SMOOTH",
"299 165 OFFCURVE",
"256 213 OFFCURVE",
"256 291 CURVE SMOOTH",
"256 371 OFFCURVE",
"304 417 OFFCURVE",
"374 417 CURVE SMOOTH",
"421 417 OFFCURVE",
"461 397 OFFCURVE",
"495 354 CURVE",
"646 479 LINE",
"586 556 OFFCURVE",
"497 597 OFFCURVE",
"374 597 CURVE SMOOTH",
"168 597 OFFCURVE",
"24 468 OFFCURVE",
"24 291 CURVE SMOOTH",
"24 114 OFFCURVE",
"159 -15 OFFCURVE",
"369 -15 CURVE SMOOTH",
"447 -15 OFFCURVE",
"551 11 OFFCURVE"
);
},
{
closed = 1;
nodes = (
"626 59 LINE",
"626 304 LINE",
"427 304 LINE",
"427 56 LINE"
);
}
);
width = 666;
}
);
leftKerningGroup = o.sc;
leftMetricsKey = o.sc;
rightKerningGroup = g.sc;
userData = {
RMXScaler = {
source = G;
};
};
},
{
glyphname = h.sc;
lastChange = "2017-09-15 19:18:46 +0000";
layers = (
{
anchors = (
{
name = bottom;
position = "{346, 0}";
},
{
name = center;
position = "{346, 431}";
},
{
name = top;
position = "{346, 559}";
}
);
background = {
anchors = (
{
name = bottom;
position = "{346, 0}";
},
{
name = center;
position = "{346, 431}";
},
{
name = top;
position = "{346, 559}";
}
);
paths = (
{
closed = 1;
nodes = (
"142 0 LINE",
"142 274 LINE",
"550 274 LINE",
"550 0 LINE",
"570 0 LINE",
"570 559 LINE",
"550 559 LINE",
"550 294 LINE",
"142 294 LINE",
"142 559 LINE",
"122 559 LINE",
"122 0 LINE"
);
}
);
};
layerId = UUID0;
paths = (
{
closed = 1;
nodes = (
"142 0 LINE",
"142 274 LINE",
"550 274 LINE",
"550 0 LINE",
"570 0 LINE",
"570 559 LINE",
"550 559 LINE",
"550 293 LINE",
"142 293 LINE",
"142 559 LINE",
"122 559 LINE",
"122 0 LINE"
);
}
);
width = 692;
},
{
anchors = (
{
name = bottom;
position = "{355, 0}";
},
{
name = center;
position = "{355, 483}";
},
{
name = top;
position = "{355, 582}";
}
);
background = {
anchors = (
{
name = bottom;
position = "{354, 0}";
},
{
name = center;
position = "{354, 483}";
},
{
name = top;
position = "{354, 582}";
}
);
paths = (
{
closed = 1;
nodes = (
"283 0 LINE",
"283 204 LINE",
"426 204 LINE",
"426 0 LINE",
"656 0 LINE",
"656 582 LINE",
"426 582 LINE",
"426 386 LINE",
"283 386 LINE",
"283 582 LINE",
"53 582 LINE",
"53 0 LINE"
);
}
);
};
layerId = "5DA6E103-6A94-47F2-987D-4952DB8EA68E";
paths = (
{
closed = 1;
nodes = (
"283 0 LINE",
"283 204 LINE",
"427 204 LINE",
"427 0 LINE",
"657 0 LINE",
"657 582 LINE",
"427 582 LINE",
"427 386 LINE",
"283 386 LINE",
"283 582 LINE",
"53 582 LINE",
"53 0 LINE"
);
}
);
width = 710;
}
);
leftKerningGroup = h.sc;
rightKerningGroup = h.sc;
rightMetricsKey = "=|";
userData = {
RMXScaler = {
source = H;
};
};
},
{
glyphname = i.sc;
lastChange = "2017-09-15 19:18:46 +0000";
layers = (
{
anchors = (
{
name = bottom;
position = "{132, 0}";
},
{
name = ogonek;
position = "{142, 0}";
},
{
name = top;
position = "{132, 559}";
},
{
name = topleft;
position = "{48, 559}";
}
);
background = {
anchors = (
{
name = bottom;
position = "{132, 0}";
},
{
name = ogonek;
position = "{142, 0}";
},
{
name = top;
position = "{132, 559}";
},
{
name = topleft;
position = "{48, 559}";
}
);
paths = (
{
closed = 1;
nodes = (
"142 0 LINE",
"142 559 LINE",
"122 559 LINE",
"122 0 LINE"
);
}
);
};
layerId = UUID0;
paths = (
{
closed = 1;
nodes = (
"142 0 LINE",
"142 559 LINE",
"122 559 LINE",
"122 0 LINE"
);
}
);
width = 264;
},
{
anchors = (
{
name = bottom;
position = "{168, 0}";
},
{
name = ogonek;
position = "{283, 0}";
},
{
name = top;
position = "{168, 582}";
},
{
name = topleft;
position = "{0, 582}";
}
);
background = {
anchors = (
{
name = bottom;
position = "{168, 0}";
},
{
name = ogonek;
position = "{283, 0}";
},
{
name = top;
position = "{168, 582}";
},
{
name = topleft;
position = "{0, 582}";
}
);
paths = (
{
closed = 1;
nodes = (
"283 0 LINE",
"283 582 LINE",
"53 582 LINE",
"53 0 LINE"
);
}
);
};
layerId = "5DA6E103-6A94-47F2-987D-4952DB8EA68E";
paths = (
{
closed = 1;
nodes = (
"283 0 LINE",
"283 582 LINE",
"53 582 LINE",
"53 0 LINE"
);
}
);
width = 336;
}
);
leftKerningGroup = h.sc;
leftMetricsKey = h.sc;
rightKerningGroup = h.sc;
rightMetricsKey = h.sc;
userData = {
RMXScaler = {
source = I;
};
};
},
{
glyphname = ij.sc;
lastChange = "2017-09-15 19:18:46 +0000";
layers = (
{
anchors = (
{
name = top;
position = "{154, 559}";
}
);
background = {
anchors = (
{
name = top;
position = "{154, 559}";
}
);
paths = (
{
closed = 1;
nodes = (
"496 235 CURVE SMOOTH",
"496 559 LINE",
"475 559 LINE",
"475 235 LINE SMOOTH",
"475 88 OFFCURVE",
"403 17 OFFCURVE",
"284 17 CURVE SMOOTH",
"224 17 OFFCURVE",
"169 35 OFFCURVE",
"126 66 CURVE",
"114 50 LINE",
"159 19 OFFCURVE",
"218 -3 OFFCURVE",
"284 -3 CURVE SMOOTH",
"412 -3 OFFCURVE",
"496 76 OFFCURVE"
);
},
{
closed = 1;
nodes = (
"140 233 LINE",
"140 559 LINE",
"120 559 LINE",
"120 233 LINE"
);
}
);
};
layerId = UUID0;
paths = (
{
closed = 1;
nodes = (
"412 -3 OFFCURVE",
"496 74 OFFCURVE",
"496 233 CURVE SMOOTH",
"496 559 LINE",
"476 559 LINE",
"476 233 LINE SMOOTH",
"476 85 OFFCURVE",
"403 16 OFFCURVE",
"284 16 CURVE SMOOTH",
"224 16 OFFCURVE",
"168 35 OFFCURVE",
"125 67 CURVE",
"114 50 LINE",
"158 18 OFFCURVE",
"218 -3 OFFCURVE",
"284 -3 CURVE SMOOTH"
);
},
{
closed = 1;
nodes = (
"140 233 LINE",
"140 559 LINE",
"120 559 LINE",
"120 233 LINE"
);
}
);
width = 612;
},
{
anchors = (
{
name = top;
position = "{151, 582}";
}
);
background = {
anchors = (
{
name = top;
position = "{151, 582}";
}
);
paths = (
{
closed = 1;
nodes = (
"594 280 CURVE SMOOTH",
"594 582 LINE",
"364 582 LINE",
"364 267 LINE SMOOTH",
"364 198 OFFCURVE",
"340 168 OFFCURVE",
"275 168 CURVE SMOOTH",
"227 168 OFFCURVE",
"163 186 OFFCURVE",
"105 221 CURVE",
"22 64 LINE",
"86 19 OFFCURVE",
"178 -9 OFFCURVE",
"286 -9 CURVE SMOOTH",
"471 -9 OFFCURVE",
"594 94 OFFCURVE"
);
},
{
closed = 1;
nodes = (
"270 285 LINE",
"270 582 LINE",
"40 582 LINE",
"40 285 LINE"
);
}
);
};
layerId = "5DA6E103-6A94-47F2-987D-4952DB8EA68E";
paths = (
{
closed = 1;
nodes = (
"472 -9 OFFCURVE",
"594 96 OFFCURVE",
"594 282 CURVE SMOOTH",
"594 582 LINE",
"364 582 LINE",
"364 270 LINE SMOOTH",
"364 198 OFFCURVE",
"330 168 OFFCURVE",
"265 168 CURVE SMOOTH",
"209 168 OFFCURVE",
"155 186 OFFCURVE",
"105 221 CURVE",
"22 61 LINE",
"85 18 OFFCURVE",
"166 -9 OFFCURVE",
"276 -9 CURVE SMOOTH"
);
},
{
closed = 1;
nodes = (
"270 285 LINE",
"270 582 LINE",
"40 582 LINE",
"40 285 LINE"
);
}
);
width = 642;
}
);
leftKerningGroup = h.sc;
rightKerningGroup = u.sc;
rightMetricsKey = u.sc;
},
{
glyphname = j.sc;
lastChange = "2017-09-15 19:18:46 +0000";
layers = (
{
anchors = (
{
name = top;
position = "{178, 559}";
}
);
background = {
anchors = (
{
name = top;
position = "{178, 559}";
}
);
paths = (
{
closed = 1;
nodes = (
"294 157 CURVE SMOOTH",
"294 559 LINE",
"63 559 LINE",
"63 540 LINE",
"274 540 LINE",
"274 158 LINE SMOOTH",
"274 62 OFFCURVE",
"235 17 OFFCURVE",
"153 17 CURVE SMOOTH",
"101 17 OFFCURVE",
"55 43 OFFCURVE",
"24 89 CURVE",
"11 77 LINE",
"41 27 OFFCURVE",
"95 -3 OFFCURVE",
"153 -3 CURVE SMOOTH",
"247 -3 OFFCURVE",
"294 51 OFFCURVE"
);
}
);
};
layerId = UUID0;
paths = (
{
closed = 1;
nodes = (
"247 -3 OFFCURVE",
"294 51 OFFCURVE",
"294 157 CURVE SMOOTH",
"294 559 LINE",
"63 559 LINE",
"63 540 LINE",
"274 540 LINE",
"274 158 LINE SMOOTH",
"274 62 OFFCURVE",
"235 17 OFFCURVE",
"153 17 CURVE SMOOTH",
"99 17 OFFCURVE",
"55 43 OFFCURVE",
"24 89 CURVE",
"11 77 LINE",
"41 27 OFFCURVE",
"95 -3 OFFCURVE",
"153 -3 CURVE SMOOTH"
);
}
);
width = 410;
},
{
anchors = (
{
name = top;
position = "{257, 582}";
}
);
background = {
paths = (
{
closed = 1;
nodes = (
"375 -15 OFFCURVE",
"469 67 OFFCURVE",
"469 234 CURVE SMOOTH",
"469 582 LINE",
"44 582 LINE",
"44 414 LINE",
"242 414 LINE",
"242 224 LINE SMOOTH",
"242 185 OFFCURVE",
"221 165 OFFCURVE",
"187 165 CURVE SMOOTH",
"157 165 OFFCURVE",
"134 181 OFFCURVE",
"106 216 CURVE",
"-23 75 LINE",
"27 15 OFFCURVE",
"105 -15 OFFCURVE",
"206 -15 CURVE SMOOTH"
);
}
);
};
layerId = "5DA6E103-6A94-47F2-987D-4952DB8EA68E";
paths = (
{
closed = 1;
nodes = (
"375 -15 OFFCURVE",
"469 67 OFFCURVE",
"469 244 CURVE SMOOTH",
"469 582 LINE",
"44 582 LINE",
"44 414 LINE",
"242 414 LINE",
"242 221 LINE SMOOTH",
"242 182 OFFCURVE",
"223 160 OFFCURVE",
"189 160 CURVE SMOOTH",
"159 160 OFFCURVE",
"132 178 OFFCURVE",
"106 216 CURVE",
"-23 75 LINE",
"27 15 OFFCURVE",
"105 -15 OFFCURVE",
"205 -15 CURVE SMOOTH"
);
}
);
width = 517;
}
);
leftKerningGroup = j.sc;
rightKerningGroup = u.sc;
rightMetricsKey = u.sc;
userData = {
RMXScaler = {
source = J;
};
};
},
{
glyphname = k.sc;
lastChange = "2017-09-15 19:18:46 +0000";
layers = (
{
anchors = (
{
name = bottom;
position = "{316, 0}";
},
{
name = top;
position = "{316, 559}";
}
);
background = {
anchors = (
{
name = bottom;
position = "{316, 0}";
},
{
name = top;
position = "{316, 559}";
}
);
paths = (
{
closed = 1;
nodes = (
"282 289 LINE",
"294 301 LINE",
"547 559 LINE",
"521 559 LINE",
"138 172 LINE",
"139 145 LINE"
);
},
{
closed = 1;
nodes = (
"142 0 LINE",
"142 559 LINE",
"122 559 LINE",
"122 0 LINE"
);
},
{
closed = 1;
nodes = (
"566 0 LINE",
"287 313 LINE",
"272 299 LINE",
"539 0 LINE"
);
}
);
};
layerId = UUID0;
paths = (
{
closed = 1;
nodes = (
"282 289 LINE",
"294 301 LINE",
"547 559 LINE",
"521 559 LINE",
"138 172 LINE",
"139 145 LINE"
);
},
{
closed = 1;
nodes = (
"142 0 LINE",
"142 559 LINE",
"122 559 LINE",
"122 0 LINE"
);
},
{
closed = 1;
nodes = (
"566 0 LINE",
"287 313 LINE",
"272 299 LINE",
"539 0 LINE"
);
}
);
width = 586;
},
{
anchors = (
{
name = bottom;
position = "{342, 0}";
},
{
name = top;
position = "{342, 582}";
}
);
background = {
anchors = (
{
name = bottom;
position = "{342, 0}";
},
{
name = top;
position = "{342, 582}";
}
);
paths = (
{
closed = 1;
nodes = (
"313 184 LINE",
"441 310 LINE",
"689 582 LINE",
"439 582 LINE",
"246 365 LINE",
"258 121 LINE"
);
},
{
closed = 1;
nodes = (
"279 0 LINE",
"279 582 LINE",
"53 582 LINE",
"53 0 LINE"
);
},
{
closed = 1;
nodes = (
"699 0 LINE",
"426 366 LINE",
"277 213 LINE",
"434 0 LINE"
);
}
);
};
layerId = "5DA6E103-6A94-47F2-987D-4952DB8EA68E";
paths = (
{
closed = 1;
nodes = (
"313 185 LINE",
"441 309 LINE",
"689 582 LINE",
"439 582 LINE",
"246 365 LINE",
"258 121 LINE"
);
},
{
closed = 1;
nodes = (
"279 0 LINE",
"279 582 LINE",
"53 582 LINE",
"53 0 LINE"
);
},
{
closed = 1;
nodes = (
"699 0 LINE",
"426 366 LINE",
"277 213 LINE",
"434 0 LINE"
);
}
);
width = 678;
}
);
leftKerningGroup = h.sc;
leftMetricsKey = h.sc;
rightKerningGroup = k.sc;
userData = {
RMXScaler = {
source = K;
};
};
},
{
glyphname = l.sc;
lastChange = "2017-09-15 19:18:46 +0000";
layers = (
{
anchors = (
{
name = bottom;
position = "{309, 0}";
},
{
name = center;
position = "{132, 289}";
},
{
name = dot;
position = "{375, 289}";
},
{
name = top;
position = "{132, 559}";
},
{
name = topright;
position = "{376, 559}";
}
);
background = {
anchors = (
{
name = bottom;
position = "{309, 0}";
},
{
name = center;
position = "{132, 289}";
},
{
name = dot;
position = "{367, 301}";
},
{
name = top;
position = "{132, 559}";
},
{
name = topright;
position = "{376, 559}";
}
);
paths = (
{
closed = 1;
nodes = (
"478 0 LINE",
"478 19 LINE",
"142 19 LINE",
"142 559 LINE",
"122 559 LINE",
"122 0 LINE"
);
}
);
};
layerId = UUID0;
paths = (
{
closed = 1;
nodes = (
"478 0 LINE",
"478 19 LINE",
"142 19 LINE",
"142 559 LINE",
"122 559 LINE",
"122 0 LINE"
);
}
);
width = 486;
},
{
anchors = (
{
name = bottom;
position = "{304, 0}";
},
{
name = center;
position = "{168, 337}";
},
{
name = dot;
position = "{440, 376}";
},
{
name = top;
position = "{168, 582}";
},
{
name = topright;
position = "{370, 582}";
}
);
background = {
anchors = (
{
name = bottom;
position = "{304, 0}";
},
{
name = center;
position = "{168, 337}";
},
{
name = dot;
position = "{431, 380}";
},
{
name = top;
position = "{168, 582}";
},
{
name = topright;
position = "{370, 582}";
}
);
paths = (
{
closed = 1;
nodes = (
"536 0 LINE",
"536 172 LINE",
"283 172 LINE",
"283 582 LINE",
"53 582 LINE",
"53 0 LINE"
);
}
);
};
layerId = "5DA6E103-6A94-47F2-987D-4952DB8EA68E";
paths = (
{
closed = 1;
nodes = (
"536 0 LINE",
"536 170 LINE",
"283 170 LINE",
"283 582 LINE",
"53 582 LINE",
"53 0 LINE"
);
}
);
width = 543;
}
);
leftKerningGroup = h.sc;
leftMetricsKey = h.sc;
rightKerningGroup = l.sc;
userData = {
RMXScaler = {
source = L;
};
};
},
{
glyphname = o.sc;
lastChange = "2017-09-15 19:18:46 +0000";
layers = (
{
anchors = (
{
name = bottom;
position = "{347, 0}";
},
{
name = center;
position = "{347, 280}";
},
{
name = ogonek;
position = "{390, 0}";
},
{
name = top;
position = "{347, 559}";
},
{
name = topleft;
position = "{56, 559}";
},
{
name = topright;
position = "{547, 559}";
}
);
background = {
anchors = (
{
name = bottom;
position = "{347, 0}";
},
{
name = center;
position = "{347, 280}";
},
{
name = ogonek;
position = "{390, 0}";
},
{
name = top;
position = "{347, 559}";
},
{
name = topleft;
position = "{56, 559}";
},
{
name = topright;
position = "{547, 559}";
}
);
paths = (
{
closed = 1;
nodes = (
"638 280 CURVE SMOOTH",
"638 441 OFFCURVE",
"514 562 OFFCURVE",
"347 562 CURVE SMOOTH",
"181 562 OFFCURVE",
"56 441 OFFCURVE",
"56 280 CURVE SMOOTH",
"56 118 OFFCURVE",
"181 -3 OFFCURVE",
"347 -3 CURVE SMOOTH",
"514 -3 OFFCURVE",
"638 118 OFFCURVE"
);
},
{
closed = 1;
nodes = (
"76 280 CURVE SMOOTH",
"76 430 OFFCURVE",
"193 543 OFFCURVE",
"347 543 CURVE SMOOTH",
"502 543 OFFCURVE",
"618 430 OFFCURVE",
"618 280 CURVE SMOOTH",
"618 129 OFFCURVE",
"502 17 OFFCURVE",
"347 17 CURVE SMOOTH",
"193 17 OFFCURVE",
"76 129 OFFCURVE"
);
}
);
};
layerId = UUID0;
paths = (
{
closed = 1;
nodes = (
"513 -3 OFFCURVE",
"638 118 OFFCURVE",
"638 280 CURVE SMOOTH",
"638 441 OFFCURVE",
"513 562 OFFCURVE",
"347 562 CURVE SMOOTH",
"181 562 OFFCURVE",
"56 441 OFFCURVE",
"56 280 CURVE SMOOTH",
"56 118 OFFCURVE",
"181 -3 OFFCURVE",
"347 -3 CURVE SMOOTH"
);
},
{
closed = 1;
nodes = (
"193 16 OFFCURVE",
"76 128 OFFCURVE",
"76 279 CURVE SMOOTH",
"76 430 OFFCURVE",
"193 543 OFFCURVE",
"347 543 CURVE SMOOTH",
"502 543 OFFCURVE",
"618 430 OFFCURVE",
"618 279 CURVE SMOOTH",
"618 128 OFFCURVE",
"502 16 OFFCURVE",
"347 16 CURVE SMOOTH"
);
}
);
width = 694;
},
{
anchors = (
{
name = bottom;
position = "{364, 0}";
},
{
name = center;
position = "{364, 291}";
},
{
name = ogonek;
position = "{478, 0}";
},
{
name = top;
position = "{364, 582}";
},
{
name = topleft;
position = "{29, 582}";
},
{
name = topright;
position = "{492, 582}";
}
);
background = {
anchors = (
{
name = bottom;
position = "{364, 0}";
},
{
name = center;
position = "{364, 291}";
},
{
name = ogonek;
position = "{478, 0}";
},
{
name = top;
position = "{364, 582}";
},
{
name = topleft;
position = "{29, 582}";
},
{
name = topright;
position = "{492, 582}";
}
);
paths = (
{
closed = 1;
nodes = (
"703 291 CURVE SMOOTH",
"703 468 OFFCURVE",
"560 597 OFFCURVE",
"364 597 CURVE SMOOTH",
"167 597 OFFCURVE",
"24 468 OFFCURVE",
"24 291 CURVE SMOOTH",
"24 113 OFFCURVE",
"167 -15 OFFCURVE",
"364 -15 CURVE SMOOTH",
"560 -15 OFFCURVE",
"703 113 OFFCURVE"
);
},
{
closed = 1;
nodes = (
"256 291 CURVE SMOOTH",
"256 371 OFFCURVE",
"305 417 OFFCURVE",
"364 417 CURVE SMOOTH",
"422 417 OFFCURVE",
"471 371 OFFCURVE",
"471 291 CURVE SMOOTH",
"471 210 OFFCURVE",
"422 165 OFFCURVE",
"364 165 CURVE SMOOTH",
"305 165 OFFCURVE",
"256 210 OFFCURVE"
);
}
);
};
layerId = "5DA6E103-6A94-47F2-987D-4952DB8EA68E";
paths = (
{
closed = 1;
nodes = (
"560 -15 OFFCURVE",
"703 114 OFFCURVE",
"703 291 CURVE SMOOTH",
"703 468 OFFCURVE",
"560 597 OFFCURVE",
"364 597 CURVE SMOOTH",
"168 597 OFFCURVE",
"24 468 OFFCURVE",
"24 291 CURVE SMOOTH",
"24 114 OFFCURVE",
"168 -15 OFFCURVE",
"364 -15 CURVE SMOOTH"
);
},
{
closed = 1;
nodes = (
"301 165 OFFCURVE",
"256 217 OFFCURVE",
"256 291 CURVE SMOOTH",
"256 365 OFFCURVE",
"301 417 OFFCURVE",
"364 417 CURVE SMOOTH",
"427 417 OFFCURVE",
"471 365 OFFCURVE",
"471 291 CURVE SMOOTH",
"471 217 OFFCURVE",
"427 165 OFFCURVE",
"364 165 CURVE SMOOTH"
);
}
);
width = 727;
}
);
leftKerningGroup = o.sc;
rightKerningGroup = o.sc;
rightMetricsKey = "=|";
userData = {
RMXScaler = {
source = O;
};
};
},
{
glyphname = p.sc;
lastChange = "2017-09-15 19:18:46 +0000";
layers = (
{
background = {
paths = (
{
closed = 1;
nodes = (
"142 0 LINE",
"142 200 LINE",
"133 190 LINE",
"316 190 LINE SMOOTH",
"455 190 OFFCURVE",
"539 258 OFFCURVE",
"539 375 CURVE SMOOTH",
"539 491 OFFCURVE",
"455 559 OFFCURVE",
"316 559 CURVE SMOOTH",
"122 559 LINE",
"122 0 LINE"
);
},
{
closed = 1;
nodes = (
"142 549 LINE",
"133 540 LINE",
"317 540 LINE SMOOTH",
"448 540 OFFCURVE",
"519 480 OFFCURVE",
"519 375 CURVE SMOOTH",
"519 270 OFFCURVE",
"448 209 OFFCURVE",
"317 209 CURVE SMOOTH",
"133 209 LINE",
"142 200 LINE"
);
}
);
};
layerId = UUID0;
paths = (
{
closed = 1;
nodes = (
"142 0 LINE",
"142 200 LINE",
"133 190 LINE",
"316 190 LINE SMOOTH",
"455 190 OFFCURVE",
"539 258 OFFCURVE",
"539 375 CURVE SMOOTH",
"539 491 OFFCURVE",
"455 559 OFFCURVE",
"316 559 CURVE SMOOTH",
"122 559 LINE",
"122 0 LINE"
);
},
{
closed = 1;
nodes = (
"142 549 LINE",
"133 540 LINE",
"317 540 LINE SMOOTH",
"448 540 OFFCURVE",
"519 480 OFFCURVE",
"519 375 CURVE SMOOTH",
"519 270 OFFCURVE",
"448 209 OFFCURVE",
"317 209 CURVE SMOOTH",
"133 209 LINE",
"142 200 LINE"
);
}
);
width = 605;
},
{
background = {
paths = (
{
closed = 1;
nodes = (
"283 0 LINE",
"283 230 LINE",
"180 135 LINE",
"352 135 LINE SMOOTH",
"520 135 OFFCURVE",
"628 221 OFFCURVE",
"628 358 CURVE SMOOTH",
"628 495 OFFCURVE",
"520 582 OFFCURVE",
"352 582 CURVE SMOOTH",
"53 582 LINE",
"53 0 LINE"
);
},
{
closed = 1;
nodes = (
"283 511 LINE",
"180 410 LINE",
"337 410 LINE SMOOTH",
"378 410 OFFCURVE",
"396 390 OFFCURVE",
"396 358 CURVE SMOOTH",
"396 326 OFFCURVE",
"378 306 OFFCURVE",
"337 306 CURVE SMOOTH",
"180 306 LINE",
"283 205 LINE"
);
}
);
};
layerId = "5DA6E103-6A94-47F2-987D-4952DB8EA68E";
paths = (
{
closed = 1;
nodes = (
"283 0 LINE",
"283 230 LINE",
"180 135 LINE",
"352 135 LINE SMOOTH",
"520 135 OFFCURVE",
"628 221 OFFCURVE",
"628 358 CURVE SMOOTH",
"628 495 OFFCURVE",
"520 582 OFFCURVE",
"352 582 CURVE SMOOTH",
"53 582 LINE",
"53 0 LINE"
);
},
{
closed = 1;
nodes = (
"283 511 LINE",
"200 413 LINE",
"334 413 LINE SMOOTH",
"378 413 OFFCURVE",
"398 390 OFFCURVE",
"398 358 CURVE SMOOTH",
"398 326 OFFCURVE",
"378 303 OFFCURVE",
"334 303 CURVE SMOOTH",
"200 303 LINE",
"283 205 LINE"
);
}
);
width = 653;
}
);
leftKerningGroup = h.sc;
leftMetricsKey = h.sc;
rightKerningGroup = p.sc;
userData = {
RMXScaler = {
source = P;
};
};
},
{
glyphname = thorn.sc;
lastChange = "2017-09-15 19:18:46 +0000";
layers = (
{
background = {
paths = (
{
closed = 1;
nodes = (
"316 110 LINE",
"455 110 OFFCURVE",
"539 179 OFFCURVE",
"539 295 CURVE SMOOTH",
"539 411 OFFCURVE",
"455 479 OFFCURVE",
"316 479 CURVE SMOOTH",
"134 479 LINE",
"134 460 LINE",
"317 460 LINE SMOOTH",
"448 460 OFFCURVE",
"519 400 OFFCURVE",
"519 295 CURVE SMOOTH",
"519 190 OFFCURVE",
"448 129 OFFCURVE",
"317 129 CURVE SMOOTH",
"134 129 LINE",
"134 110 LINE"
);
},
{
closed = 1;
nodes = (
"142 0 LINE",
"142 559 LINE",
"122 559 LINE",
"122 0 LINE"
);
}
);
};
layerId = UUID0;
paths = (
{
closed = 1;
nodes = (
"316 110 LINE SMOOTH",
"455 110 OFFCURVE",
"539 179 OFFCURVE",
"539 295 CURVE SMOOTH",
"539 411 OFFCURVE",
"455 479 OFFCURVE",
"316 479 CURVE SMOOTH",
"134 479 LINE",
"134 460 LINE",
"317 460 LINE SMOOTH",
"448 460 OFFCURVE",
"519 400 OFFCURVE",
"519 295 CURVE SMOOTH",
"519 190 OFFCURVE",
"448 129 OFFCURVE",
"317 129 CURVE SMOOTH",
"134 129 LINE",
"134 110 LINE"
);
},
{
closed = 1;
nodes = (
"142 0 LINE",
"142 559 LINE",
"122 559 LINE",
"122 0 LINE"
);
}
);
width = 605;
},
{
background = {
paths = (
{
closed = 1;
nodes = (
"1052 83 LINE",
"1220 83 OFFCURVE",
"1328 170 OFFCURVE",
"1328 307 CURVE SMOOTH",
"1328 443 OFFCURVE",
"1220 530 OFFCURVE",
"1052 530 CURVE SMOOTH",
"936 530 LINE",
"936 359 LINE",
"1037 359 LINE SMOOTH",
"1078 359 OFFCURVE",
"1096 339 OFFCURVE",
"1096 307 CURVE SMOOTH",
"1096 275 OFFCURVE",
"1078 254 OFFCURVE",
"1037 254 CURVE SMOOTH",
"936 254 LINE",
"936 83 LINE"
);
},
{
closed = 1;
nodes = (
"983 0 LINE",
"983 583 LINE",
"753 583 LINE",
"753 0 LINE"
);
},
{
closed = 1;
nodes = (
"283 -52 LINE",
"283 178 LINE",
"180 83 LINE",
"352 83 LINE SMOOTH",
"520 83 OFFCURVE",
"628 169 OFFCURVE",
"628 306 CURVE SMOOTH",
"628 443 OFFCURVE",
"520 530 OFFCURVE",
"352 530 CURVE SMOOTH",
"53 530 LINE",
"53 -52 LINE"
);
},
{
closed = 1;
nodes = (
"283 459 LINE",
"200 361 LINE",
"334 361 LINE SMOOTH",
"378 361 OFFCURVE",
"398 338 OFFCURVE",
"398 306 CURVE SMOOTH",
"398 274 OFFCURVE",
"378 251 OFFCURVE",
"334 251 CURVE SMOOTH",
"200 251 LINE",
"283 153 LINE"
);
}
);
};
layerId = "5DA6E103-6A94-47F2-987D-4952DB8EA68E";
paths = (
{
closed = 1;
nodes = (
"352 83 LINE SMOOTH",
"520 83 OFFCURVE",
"628 169 OFFCURVE",
"628 306 CURVE SMOOTH",
"628 443 OFFCURVE",
"520 530 OFFCURVE",
"352 530 CURVE SMOOTH",
"236 530 LINE",
"236 361 LINE",
"334 361 LINE SMOOTH",
"378 361 OFFCURVE",
"398 338 OFFCURVE",
"398 306 CURVE SMOOTH",
"398 274 OFFCURVE",
"378 251 OFFCURVE",
"334 251 CURVE SMOOTH",
"236 251 LINE",
"236 83 LINE"
);
},
{
closed = 1;
nodes = (
"283 0 LINE",
"283 583 LINE",
"53 583 LINE",
"53 0 LINE"
);
}
);
width = 653;
}
);
leftKerningGroup = h.sc;
leftMetricsKey = h.sc;
rightKerningGroup = thorn.sc;
rightMetricsKey = p.sc;
userData = {
RMXScaler = {
source = Thorn;
};
};
},
{
glyphname = q.sc;
lastChange = "2017-09-15 19:18:46 +0000";
layers = (
{
anchors = (
{
name = top;
position = "{347, 559}";
}
);
background = {
anchors = (
{
name = top;
position = "{347, 559}";
}
);
paths = (
{
closed = 1;
nodes = (
"638 280 CURVE SMOOTH",
"638 441 OFFCURVE",
"514 562 OFFCURVE",
"347 562 CURVE SMOOTH",
"181 562 OFFCURVE",
"56 441 OFFCURVE",
"56 280 CURVE SMOOTH",
"56 118 OFFCURVE",
"181 -3 OFFCURVE",
"347 -3 CURVE SMOOTH",
"514 -3 OFFCURVE",
"638 118 OFFCURVE"
);
},
{
closed = 1;
nodes = (
"663 -39 CURVE",
"650 -26 LINE",
"618 -63 OFFCURVE",
"580 -82 OFFCURVE",
"533 -82 CURVE SMOOTH",
"483 -82 OFFCURVE",
"430 -52 OFFCURVE",
"376 8 CURVE",
"351 3 LINE",
"420 -69 OFFCURVE",
"475 -100 OFFCURVE",
"533 -100 CURVE SMOOTH",
"585 -100 OFFCURVE",
"629 -79 OFFCURVE"
);
},
{
closed = 1;
nodes = (
"76 280 CURVE SMOOTH",
"76 429 OFFCURVE",
"193 543 OFFCURVE",
"347 543 CURVE SMOOTH",
"502 543 OFFCURVE",
"618 429 OFFCURVE",
"618 280 CURVE SMOOTH",
"618 131 OFFCURVE",
"502 17 OFFCURVE",
"347 17 CURVE SMOOTH",
"193 17 OFFCURVE",
"76 131 OFFCURVE"
);
}
);
};
layerId = UUID0;
paths = (
{
closed = 1;
nodes = (
"513 -3 OFFCURVE",
"638 118 OFFCURVE",
"638 280 CURVE SMOOTH",
"638 441 OFFCURVE",
"513 562 OFFCURVE",
"347 562 CURVE SMOOTH",
"181 562 OFFCURVE",
"56 441 OFFCURVE",
"56 280 CURVE SMOOTH",
"56 118 OFFCURVE",
"181 -3 OFFCURVE",
"347 -3 CURVE SMOOTH"
);
},
{
closed = 1;
nodes = (
"585 -100 OFFCURVE",
"629 -79 OFFCURVE",
"663 -39 CURVE",
"650 -25 LINE",
"619 -62 OFFCURVE",
"580 -81 OFFCURVE",
"533 -81 CURVE SMOOTH",
"483 -81 OFFCURVE",
"430 -52 OFFCURVE",
"376 8 CURVE",
"350 3 LINE",
"419 -69 OFFCURVE",
"475 -100 OFFCURVE",
"533 -100 CURVE SMOOTH"
);
},
{
closed = 1;
nodes = (
"193 16 OFFCURVE",
"76 128 OFFCURVE",
"76 279 CURVE SMOOTH",
"76 430 OFFCURVE",
"193 543 OFFCURVE",
"347 543 CURVE SMOOTH",
"502 543 OFFCURVE",
"618 430 OFFCURVE",
"618 279 CURVE SMOOTH",
"618 128 OFFCURVE",
"502 16 OFFCURVE",
"347 16 CURVE SMOOTH"
);
}
);
width = 694;
},
{
anchors = (
{
name = top;
position = "{365, 582}";
}
);
background = {
anchors = (
{
name = top;
position = "{365, 582}";
}
);
paths = (
{
closed = 1;
nodes = (
"703 291 CURVE SMOOTH",
"703 468 OFFCURVE",
"560 597 OFFCURVE",
"364 597 CURVE SMOOTH",
"167 597 OFFCURVE",
"24 468 OFFCURVE",
"24 291 CURVE SMOOTH",
"24 113 OFFCURVE",
"167 -15 OFFCURVE",
"364 -15 CURVE SMOOTH",
"560 -15 OFFCURVE",
"703 113 OFFCURVE"
);
},
{
closed = 1;
nodes = (
"736 -78 CURVE",
"637 35 LINE",
"614 13 OFFCURVE",
"587 1 OFFCURVE",
"562 1 CURVE SMOOTH",
"529 1 OFFCURVE",
"516 14 OFFCURVE",
"479 75 CURVE",
"242 19 LINE",
"369 -116 OFFCURVE",
"437 -154 OFFCURVE",
"557 -154 CURVE SMOOTH",
"631 -154 OFFCURVE",
"693 -127 OFFCURVE"
);
},
{
closed = 1;
nodes = (
"256 291 CURVE SMOOTH",
"256 372 OFFCURVE",
"305 417 OFFCURVE",
"364 417 CURVE SMOOTH",
"422 417 OFFCURVE",
"471 372 OFFCURVE",
"471 291 CURVE SMOOTH",
"471 210 OFFCURVE",
"422 165 OFFCURVE",
"364 165 CURVE SMOOTH",
"305 165 OFFCURVE",
"256 210 OFFCURVE"
);
}
);
};
layerId = "5DA6E103-6A94-47F2-987D-4952DB8EA68E";
paths = (
{
closed = 1;
nodes = (
"560 -15 OFFCURVE",
"703 114 OFFCURVE",
"703 291 CURVE SMOOTH",
"703 468 OFFCURVE",
"560 597 OFFCURVE",
"364 597 CURVE SMOOTH",
"168 597 OFFCURVE",
"24 468 OFFCURVE",
"24 291 CURVE SMOOTH",
"24 114 OFFCURVE",
"168 -15 OFFCURVE",
"364 -15 CURVE SMOOTH"
);
},
{
closed = 1;
nodes = (
"631 -154 OFFCURVE",
"693 -127 OFFCURVE",
"736 -78 CURVE",
"637 35 LINE",
"614 13 OFFCURVE",
"587 1 OFFCURVE",
"562 1 CURVE SMOOTH",
"529 1 OFFCURVE",
"516 14 OFFCURVE",
"479 75 CURVE",
"242 19 LINE",
"369 -116 OFFCURVE",
"437 -154 OFFCURVE",
"557 -154 CURVE SMOOTH"
);
},
{
closed = 1;
nodes = (
"301 165 OFFCURVE",
"256 217 OFFCURVE",
"256 291 CURVE SMOOTH",
"256 365 OFFCURVE",
"301 417 OFFCURVE",
"364 417 CURVE SMOOTH",
"427 417 OFFCURVE",
"471 365 OFFCURVE",
"471 291 CURVE SMOOTH",
"471 217 OFFCURVE",
"427 165 OFFCURVE",
"364 165 CURVE SMOOTH"
);
}
);
width = 727;
}
);
leftKerningGroup = o.sc;
leftMetricsKey = o.sc;
widthMetricsKey = o.sc;
rightKerningGroup = o.sc;
userData = {
RMXScaler = {
source = Q;
};
};
},
{
glyphname = r.sc;
lastChange = "2017-09-15 19:18:46 +0000";
layers = (
{
anchors = (
{
name = bottom;
position = "{312, 0}";
},
{
name = top;
position = "{312, 559}";
}
);
background = {
anchors = (
{
name = bottom;
position = "{312, 0}";
},
{
name = top;
position = "{312, 559}";
}
);
paths = (
{
closed = 1;
nodes = (
"142 0 LINE",
"142 200 LINE",
"133 190 LINE",
"316 190 LINE SMOOTH",
"455 190 OFFCURVE",
"539 258 OFFCURVE",
"539 375 CURVE SMOOTH",
"539 491 OFFCURVE",
"455 559 OFFCURVE",
"316 559 CURVE SMOOTH",
"122 559 LINE",
"122 0 LINE"
);
},
{
closed = 1;
nodes = (
"547 0 LINE",
"399 203 LINE",
"375 203 LINE",
"523 0 LINE"
);
},
{
closed = 1;
nodes = (
"142 549 LINE",
"133 540 LINE",
"317 540 LINE SMOOTH",
"448 540 OFFCURVE",
"519 480 OFFCURVE",
"519 375 CURVE SMOOTH",
"519 270 OFFCURVE",
"448 209 OFFCURVE",
"317 209 CURVE SMOOTH",
"133 209 LINE",
"142 200 LINE"
);
}
);
};
layerId = UUID0;
paths = (
{
closed = 1;
nodes = (
"142 0 LINE",
"142 200 LINE",
"133 190 LINE",
"316 190 LINE SMOOTH",
"455 190 OFFCURVE",
"539 258 OFFCURVE",
"539 375 CURVE SMOOTH",
"539 491 OFFCURVE",
"455 559 OFFCURVE",
"316 559 CURVE SMOOTH",
"122 559 LINE",
"122 0 LINE"
);
},
{
closed = 1;
nodes = (
"547 0 LINE",
"399 203 LINE",
"375 203 LINE",
"523 0 LINE"
);
},
{
closed = 1;
nodes = (
"142 549 LINE",
"133 540 LINE",
"317 540 LINE SMOOTH",
"448 540 OFFCURVE",
"519 480 OFFCURVE",
"519 375 CURVE SMOOTH",
"519 270 OFFCURVE",
"448 209 OFFCURVE",
"317 209 CURVE SMOOTH",
"133 209 LINE",
"142 200 LINE"
);
}
);
width = 612;
},
{
anchors = (
{
name = bottom;
position = "{337, 0}";
},
{
name = top;
position = "{337, 582}";
}
);
background = {
anchors = (
{
name = bottom;
position = "{337, 0}";
},
{
name = top;
position = "{337, 582}";
}
);
paths = (
{
closed = 1;
nodes = (
"983 0 LINE",
"979 230 LINE",
"880 138 LINE",
"1052 138 LINE SMOOTH",
"1220 138 OFFCURVE",
"1328 221 OFFCURVE",
"1328 358 CURVE SMOOTH",
"1328 495 OFFCURVE",
"1220 582 OFFCURVE",
"1052 582 CURVE SMOOTH",
"753 582 LINE",
"753 0 LINE"
);
},
{
closed = 1;
nodes = (
"1341 0 LINE",
"1195 212 LINE",
"952 212 LINE",
"1096 0 LINE"
);
},
{
closed = 1;
nodes = (
"983 511 LINE",
"880 410 LINE",
"1037 410 LINE SMOOTH",
"1078 410 OFFCURVE",
"1096 390 OFFCURVE",
"1096 358 CURVE SMOOTH",
"1096 326 OFFCURVE",
"1078 306 OFFCURVE",
"1037 306 CURVE SMOOTH",
"880 306 LINE",
"979 205 LINE"
);
},
{
closed = 1;
nodes = (
"283 0 LINE",
"283 230 LINE",
"180 135 LINE",
"352 135 LINE SMOOTH",
"520 135 OFFCURVE",
"628 221 OFFCURVE",
"628 358 CURVE SMOOTH",
"628 495 OFFCURVE",
"520 582 OFFCURVE",
"352 582 CURVE SMOOTH",
"53 582 LINE",
"53 0 LINE"
);
},
{
closed = 1;
nodes = (
"283 511 LINE",
"200 413 LINE",
"334 413 LINE SMOOTH",
"378 413 OFFCURVE",
"398 390 OFFCURVE",
"398 358 CURVE SMOOTH",
"398 326 OFFCURVE",
"378 303 OFFCURVE",
"334 303 CURVE SMOOTH",
"200 303 LINE",
"283 205 LINE"
);
}
);
};
layerId = "5DA6E103-6A94-47F2-987D-4952DB8EA68E";
paths = (
{
closed = 1;
nodes = (
"283 0 LINE",
"283 230 LINE",
"180 138 LINE",
"352 138 LINE SMOOTH",
"520 138 OFFCURVE",
"628 221 OFFCURVE",
"628 358 CURVE SMOOTH",
"628 495 OFFCURVE",
"520 582 OFFCURVE",
"352 582 CURVE SMOOTH",
"53 582 LINE",
"53 0 LINE"
);
},
{
closed = 1;
nodes = (
"641 0 LINE",
"495 212 LINE",
"252 212 LINE",
"396 0 LINE"
);
},
{
closed = 1;
nodes = (
"283 511 LINE",
"200 413 LINE",
"334 413 LINE SMOOTH",
"378 413 OFFCURVE",
"398 390 OFFCURVE",
"398 358 CURVE SMOOTH",
"398 326 OFFCURVE",
"378 303 OFFCURVE",
"334 303 CURVE SMOOTH",
"200 303 LINE",
"283 205 LINE"
);
}
);
width = 661;
}
);
leftKerningGroup = h.sc;
leftMetricsKey = h.sc;
rightKerningGroup = r.sc;
userData = {
RMXScaler = {
source = R;
};
};
},
{
glyphname = s.sc;
lastChange = "2017-09-15 19:18:46 +0000";
layers = (
{
anchors = (
{
name = bottom;
position = "{267, 0}";
},
{
name = top;
position = "{267, 559}";
}
);
background = {
anchors = (
{
name = bottom;
position = "{267, 0}";
},
{
name = top;
position = "{267, 559}";
}
);
paths = (
{
closed = 1;
nodes = (
"451 139 CURVE SMOOTH",
"451 341 OFFCURVE",
"92 235 OFFCURVE",
"92 419 CURVE SMOOTH",
"92 487 OFFCURVE",
"146 543 OFFCURVE",
"264 543 CURVE SMOOTH",
"315 543 OFFCURVE",
"373 527 OFFCURVE",
"418 494 CURVE",
"428 511 LINE",
"387 542 OFFCURVE",
"324 562 OFFCURVE",
"263 562 CURVE SMOOTH",
"129 562 OFFCURVE",
"72 494 OFFCURVE",
"72 420 CURVE SMOOTH",
"72 214 OFFCURVE",
"431 322 OFFCURVE",
"431 138 CURVE SMOOTH",
"431 71 OFFCURVE",
"377 16 OFFCURVE",
"255 16 CURVE SMOOTH",
"177 16 OFFCURVE",
"105 49 OFFCURVE",
"69 90 CURVE",
"56 76 LINE",
"95 30 OFFCURVE",
"173 -3 OFFCURVE",
"256 -3 CURVE SMOOTH",
"391 -3 OFFCURVE",
"451 63 OFFCURVE"
);
}
);
};
layerId = UUID0;
paths = (
{
closed = 1;
nodes = (
"451 139 CURVE SMOOTH",
"451 341 OFFCURVE",
"92 235 OFFCURVE",
"92 419 CURVE SMOOTH",
"92 487 OFFCURVE",
"146 543 OFFCURVE",
"264 543 CURVE SMOOTH",
"317 543 OFFCURVE",
"373 529 OFFCURVE",
"418 494 CURVE",
"428 511 LINE",
"387 544 OFFCURVE",
"326 562 OFFCURVE",
"263 562 CURVE SMOOTH",
"129 562 OFFCURVE",
"72 494 OFFCURVE",
"72 420 CURVE SMOOTH",
"72 214 OFFCURVE",
"431 321 OFFCURVE",
"431 138 CURVE SMOOTH",
"431 71 OFFCURVE",
"377 16 OFFCURVE",
"255 16 CURVE SMOOTH",
"177 16 OFFCURVE",
"105 48 OFFCURVE",
"69 90 CURVE",
"56 76 LINE",
"95 30 OFFCURVE",
"173 -3 OFFCURVE",
"256 -3 CURVE SMOOTH",
"391 -3 OFFCURVE",
"451 63 OFFCURVE"
);
}
);
width = 507;
},
{
anchors = (
{
name = bottom;
position = "{288, 0}";
},
{
name = top;
position = "{288, 582}";
}
);
background = {
anchors = (
{
name = bottom;
position = "{288, 0}";
},
{
name = top;
position = "{288, 582}";
}
);
paths = (
{
closed = 1;
nodes = (
"567 189 CURVE SMOOTH",
"567 404 OFFCURVE",
"248 354 OFFCURVE",
"248 405 CURVE SMOOTH",
"248 417 OFFCURVE",
"260 427 OFFCURVE",
"307 427 CURVE SMOOTH",
"359 427 OFFCURVE",
"413 413 OFFCURVE",
"473 385 CURVE",
"541 546 LINE",
"477 581 OFFCURVE",
"392 597 OFFCURVE",
"309 597 CURVE SMOOTH",
"118 597 OFFCURVE",
"21 506 OFFCURVE",
"21 393 CURVE SMOOTH",
"21 176 OFFCURVE",
"340 227 OFFCURVE",
"340 172 CURVE SMOOTH",
"340 159 OFFCURVE",
"326 155 OFFCURVE",
"281 155 CURVE SMOOTH",
"219 155 OFFCURVE",
"145 173 OFFCURVE",
"86 204 CURVE",
"13 42 LINE",
"75 8 OFFCURVE",
"178 -15 OFFCURVE",
"279 -15 CURVE SMOOTH",
"470 -15 OFFCURVE",
"567 78 OFFCURVE"
);
}
);
};
layerId = "5DA6E103-6A94-47F2-987D-4952DB8EA68E";
paths = (
{
closed = 1;
nodes = (
"567 189 CURVE SMOOTH",
"567 404 OFFCURVE",
"246 353 OFFCURVE",
"246 406 CURVE SMOOTH",
"246 420 OFFCURVE",
"265 430 OFFCURVE",
"305 430 CURVE SMOOTH",
"359 430 OFFCURVE",
"417 417 OFFCURVE",
"473 385 CURVE",
"541 546 LINE",
"477 581 OFFCURVE",
"392 597 OFFCURVE",
"313 597 CURVE SMOOTH",
"128 597 OFFCURVE",
"21 506 OFFCURVE",
"21 395 CURVE SMOOTH",
"21 174 OFFCURVE",
"342 229 OFFCURVE",
"342 171 CURVE SMOOTH",
"342 161 OFFCURVE",
"329 152 OFFCURVE",
"288 152 CURVE SMOOTH",
"218 152 OFFCURVE",
"145 171 OFFCURVE",
"86 204 CURVE",
"13 42 LINE",
"75 8 OFFCURVE",
"178 -15 OFFCURVE",
"275 -15 CURVE SMOOTH",
"470 -15 OFFCURVE",
"567 78 OFFCURVE"
);
}
);
width = 574;
}
);
leftKerningGroup = s.sc;
rightKerningGroup = s.sc;
userData = {
RMXScaler = {
source = S;
};
};
},
{
glyphname = t.sc;
lastChange = "2017-09-15 19:18:46 +0000";
layers = (
{
anchors = (
{
name = bottom;
position = "{224, 0}";
},
{
name = center;
position = "{224, 283}";
},
{
name = top;
position = "{224, 559}";
}
);
background = {
anchors = (
{
name = bottom;
position = "{224, 0}";
},
{
name = center;
position = "{224, 283}";
},
{
name = top;
position = "{224, 559}";
}
);
paths = (
{
closed = 1;
nodes = (
"234 0 LINE",
"234 540 LINE",
"443 540 LINE",
"443 559 LINE",
"4 559 LINE",
"4 540 LINE",
"214 540 LINE",
"214 0 LINE"
);
}
);
};
layerId = UUID0;
paths = (
{
closed = 1;
nodes = (
"234 0 LINE",
"234 540 LINE",
"444 540 LINE",
"444 559 LINE",
"4 559 LINE",
"4 540 LINE",
"214 540 LINE",
"214 0 LINE"
);
}
);
width = 448;
},
{
anchors = (
{
name = bottom;
position = "{284, 0}";
},
{
name = center;
position = "{284, 257}";
},
{
name = top;
position = "{284, 582}";
}
);
background = {
anchors = (
{
name = bottom;
position = "{284, 0}";
},
{
name = center;
position = "{284, 257}";
},
{
name = top;
position = "{284, 582}";
}
);
paths = (
{
closed = 1;
nodes = (
"399 0 LINE",
"399 409 LINE",
"565 409 LINE",
"565 582 LINE",
"3 582 LINE",
"3 409 LINE",
"169 409 LINE",
"169 0 LINE"
);
}
);
};
layerId = "5DA6E103-6A94-47F2-987D-4952DB8EA68E";
paths = (
{
closed = 1;
nodes = (
"399 0 LINE",
"399 412 LINE",
"565 412 LINE",
"565 582 LINE",
"3 582 LINE",
"3 412 LINE",
"169 412 LINE",
"169 0 LINE"
);
}
);
width = 568;
}
);
leftKerningGroup = t.sc;
rightKerningGroup = t.sc;
rightMetricsKey = "=|";
userData = {
RMXScaler = {
source = T;
};
};
},
{
glyphname = u.sc;
lastChange = "2017-09-15 19:18:46 +0000";
layers = (
{
anchors = (
{
name = bottom;
position = "{336, 0}";
},
{
name = ogonek;
position = "{487, 0}";
},
{
name = top;
position = "{336, 559}";
},
{
name = topright;
position = "{561, 559}";
}
);
background = {
anchors = (
{
name = bottom;
position = "{336, 0}";
},
{
name = ogonek;
position = "{487, 0}";
},
{
name = top;
position = "{336, 559}";
},
{
name = topright;
position = "{558, 559}";
}
);
paths = (
{
closed = 1;
nodes = (
"556 235 CURVE SMOOTH",
"556 559 LINE",
"536 559 LINE",
"536 236 LINE SMOOTH",
"536 88 OFFCURVE",
"463 17 OFFCURVE",
"336 17 CURVE SMOOTH",
"209 17 OFFCURVE",
"136 88 OFFCURVE",
"136 236 CURVE SMOOTH",
"136 559 LINE",
"116 559 LINE",
"116 235 LINE SMOOTH",
"116 76 OFFCURVE",
"200 -3 OFFCURVE",
"336 -3 CURVE SMOOTH",
"472 -3 OFFCURVE",
"556 76 OFFCURVE"
);
}
);
};
layerId = UUID0;
paths = (
{
closed = 1;
nodes = (
"556 235 CURVE SMOOTH",
"556 559 LINE",
"536 559 LINE",
"536 236 LINE SMOOTH",
"536 87 OFFCURVE",
"463 16 OFFCURVE",
"336 16 CURVE SMOOTH",
"209 16 OFFCURVE",
"136 87 OFFCURVE",
"136 236 CURVE SMOOTH",
"136 559 LINE",
"116 559 LINE",
"116 235 LINE SMOOTH",
"116 76 OFFCURVE",
"200 -3 OFFCURVE",
"336 -3 CURVE SMOOTH",
"472 -3 OFFCURVE",
"556 76 OFFCURVE"
);
}
);
width = 672;
},
{
anchors = (
{
name = bottom;
position = "{349, 0}";
},
{
name = ogonek;
position = "{546, 0}";
},
{
name = top;
position = "{349, 582}";
},
{
name = topright;
position = "{553, 582}";
}
);
background = {
anchors = (
{
name = bottom;
position = "{349, 0}";
},
{
name = ogonek;
position = "{546, 0}";
},
{
name = top;
position = "{349, 582}";
},
{
name = topright;
position = "{553, 582}";
}
);
paths = (
{
closed = 1;
nodes = (
"645 264 CURVE SMOOTH",
"645 582 LINE",
"419 582 LINE",
"419 271 LINE SMOOTH",
"419 192 OFFCURVE",
"392 165 OFFCURVE",
"349 165 CURVE SMOOTH",
"306 165 OFFCURVE",
"278 192 OFFCURVE",
"278 271 CURVE SMOOTH",
"278 582 LINE",
"48 582 LINE",
"48 264 LINE SMOOTH",
"48 88 OFFCURVE",
"158 -15 OFFCURVE",
"347 -15 CURVE SMOOTH",
"536 -15 OFFCURVE",
"645 88 OFFCURVE"
);
}
);
};
layerId = "5DA6E103-6A94-47F2-987D-4952DB8EA68E";
paths = (
{
closed = 1;
nodes = (
"645 254 CURVE SMOOTH",
"645 582 LINE",
"419 582 LINE",
"419 261 LINE SMOOTH",
"419 197 OFFCURVE",
"396 165 OFFCURVE",
"349 165 CURVE SMOOTH",
"302 165 OFFCURVE",
"278 197 OFFCURVE",
"278 261 CURVE SMOOTH",
"278 582 LINE",
"48 582 LINE",
"48 254 LINE SMOOTH",
"48 92 OFFCURVE",
"158 -15 OFFCURVE",
"347 -15 CURVE SMOOTH",
"536 -15 OFFCURVE",
"645 92 OFFCURVE"
);
}
);
width = 693;
}
);
leftKerningGroup = u.sc;
rightKerningGroup = u.sc;
rightMetricsKey = "=|";
userData = {
RMXScaler = {
source = U;
};
};
},
{
glyphname = v.sc;
lastChange = "2017-09-15 19:18:46 +0000";
layers = (
{
background = {
paths = (
{
closed = 1;
nodes = (
"297 0 LINE",
"552 559 LINE",
"529 559 LINE",
"282 15 LINE",
"292 15 LINE",
"45 559 LINE",
"23 559 LINE",
"277 0 LINE"
);
}
);
};
layerId = UUID0;
paths = (
{
closed = 1;
nodes = (
"298 0 LINE",
"553 559 LINE",
"530 559 LINE",
"283 15 LINE",
"293 15 LINE",
"46 559 LINE",
"23 559 LINE",
"278 0 LINE"
);
}
);
width = 576;
},
{
background = {
paths = (
{
closed = 1;
nodes = (
"456 0 LINE",
"703 582 LINE",
"478 582 LINE",
"276 102 LINE",
"424 102 LINE",
"229 582 LINE",
"-18 582 LINE",
"230 0 LINE"
);
}
);
};
layerId = "5DA6E103-6A94-47F2-987D-4952DB8EA68E";
paths = (
{
closed = 1;
nodes = (
"456 0 LINE",
"703 582 LINE",
"478 582 LINE",
"277 95 LINE",
"419 95 LINE",
"225 582 LINE",
"-18 582 LINE",
"230 0 LINE"
);
}
);
width = 685;
}
);
leftKerningGroup = v.sc;
rightKerningGroup = v.sc;
rightMetricsKey = "=|";
userData = {
RMXScaler = {
source = V;
};
};
},
{
glyphname = w.sc;
lastChange = "2017-09-15 19:18:46 +0000";
layers = (
{
anchors = (
{
name = bottom;
position = "{453, 0}";
},
{
name = top;
position = "{453, 559}";
}
);
background = {
paths = (
{
closed = 1;
nodes = (
"273 0 LINE",
"471 537 LINE",
"466 537 LINE",
"665 0 LINE",
"685 0 LINE",
"887 559 LINE",
"866 559 LINE",
"670 15 LINE",
"680 15 LINE",
"479 559 LINE",
"459 559 LINE",
"257 15 LINE",
"268 15 LINE",
"72 559 LINE",
"50 559 LINE",
"252 0 LINE"
);
}
);
};
layerId = UUID0;
paths = (
{
closed = 1;
nodes = (
"265 0 LINE",
"455 537 LINE",
"450 537 LINE",
"641 0 LINE",
"661 0 LINE",
"855 559 LINE",
"834 559 LINE",
"646 15 LINE",
"656 15 LINE",
"463 559 LINE",
"443 559 LINE",
"249 15 LINE",
"260 15 LINE",
"72 559 LINE",
"50 559 LINE",
"244 0 LINE"
);
}
);
width = 905;
},
{
anchors = (
{
name = bottom;
position = "{524, 0}";
},
{
name = top;
position = "{524, 582}";
}
);
background = {
paths = (
{
closed = 1;
nodes = (
"449 0 LINE",
"574 384 LINE",
"509 384 LINE",
"630 0 LINE",
"876 0 LINE",
"1072 582 LINE",
"849 582 LINE",
"687 97 LINE",
"806 97 LINE",
"655 582 LINE",
"438 582 LINE",
"274 97 LINE",
"399 97 LINE",
"244 582 LINE",
"7 582 LINE",
"203 0 LINE"
);
}
);
};
layerId = "5DA6E103-6A94-47F2-987D-4952DB8EA68E";
paths = (
{
closed = 1;
nodes = (
"441 0 LINE",
"558 384 LINE",
"493 384 LINE",
"606 0 LINE",
"852 0 LINE",
"1040 582 LINE",
"820 582 LINE",
"666 97 LINE",
"779 97 LINE",
"636 582 LINE",
"425 582 LINE",
"269 97 LINE",
"388 97 LINE",
"241 582 LINE",
"7 582 LINE",
"195 0 LINE"
);
}
);
width = 1047;
}
);
leftKerningGroup = v.sc;
rightKerningGroup = v.sc;
rightMetricsKey = "=|";
userData = {
RMXScaler = {
source = W;
};
};
},
{
glyphname = x.sc;
lastChange = "2017-09-15 19:18:46 +0000";
layers = (
{
background = {
paths = (
{
closed = 1;
nodes = (
"48 0 LINE",
"260 279 LINE",
"254 279 LINE",
"466 0 LINE",
"490 0 LINE",
"266 294 LINE",
"266 284 LINE",
"474 559 LINE",
"451 559 LINE",
"255 300 LINE",
"261 300 LINE",
"65 559 LINE",
"41 559 LINE",
"251 281 LINE",
"251 297 LINE",
"25 0 LINE"
);
}
);
};
layerId = UUID0;
paths = (
{
closed = 1;
nodes = (
"48 0 LINE",
"260 279 LINE",
"254 279 LINE",
"466 0 LINE",
"490 0 LINE",
"266 294 LINE",
"266 284 LINE",
"474 559 LINE",
"451 559 LINE",
"255 300 LINE",
"261 300 LINE",
"65 559 LINE",
"41 559 LINE",
"251 281 LINE",
"251 297 LINE",
"25 0 LINE"
);
}
);
width = 515;
},
{
background = {
paths = (
{
closed = 1;
nodes = (
"253 0 LINE",
"385 217 LINE",
"278 216 LINE",
"415 0 LINE",
"678 0 LINE",
"404 379 LINE",
"404 223 LINE",
"666 582 LINE",
"419 582 LINE",
"283 373 LINE",
"394 374 LINE",
"255 582 LINE",
"-3 582 LINE",
"258 215 LINE",
"259 370 LINE",
"-9 0 LINE"
);
}
);
};
layerId = "5DA6E103-6A94-47F2-987D-4952DB8EA68E";
paths = (
{
closed = 1;
nodes = (
"253 0 LINE",
"385 217 LINE",
"278 216 LINE",
"415 0 LINE",
"678 0 LINE",
"404 379 LINE",
"404 223 LINE",
"666 582 LINE",
"419 582 LINE",
"283 373 LINE",
"394 374 LINE",
"255 582 LINE",
"-3 582 LINE",
"258 215 LINE",
"259 370 LINE",
"-9 0 LINE"
);
}
);
width = 669;
}
);
leftKerningGroup = x.sc;
rightKerningGroup = x.sc;
rightMetricsKey = "=|";
userData = {
RMXScaler = {
source = X;
};
};
},
{
glyphname = y.sc;
lastChange = "2017-09-15 19:18:46 +0000";
layers = (
{
anchors = (
{
name = bottom;
position = "{264, 0}";
},
{
name = top;
position = "{264, 559}";
}
);
background = {
paths = (
{
closed = 1;
nodes = (
"274 0 LINE",
"274 157 LINE",
"269 142 LINE",
"529 559 LINE",
"506 559 LINE",
"260 164 LINE",
"269 164 LINE",
"22 559 LINE",
"-1 559 LINE",
"259 142 LINE",
"254 157 LINE",
"254 0 LINE"
);
}
);
};
layerId = UUID0;
paths = (
{
closed = 1;
nodes = (
"274 0 LINE",
"274 192 LINE",
"269 177 LINE",
"508 559 LINE",
"485 559 LINE",
"260 199 LINE",
"269 199 LINE",
"43 559 LINE",
"20 559 LINE",
"259 177 LINE",
"254 192 LINE",
"254 0 LINE"
);
}
);
width = 528;
},
{
anchors = (
{
name = bottom;
position = "{319, 0}";
},
{
name = top;
position = "{319, 582}";
}
);
background = {
paths = (
{
closed = 1;
nodes = (
"434 0 LINE",
"434 221 LINE",
"382 88 LINE",
"680 582 LINE",
"453 582 LINE",
"253 249 LINE",
"401 249 LINE",
"201 582 LINE",
"-42 582 LINE",
"256 88 LINE",
"204 221 LINE",
"204 0 LINE"
);
}
);
};
layerId = "5DA6E103-6A94-47F2-987D-4952DB8EA68E";
paths = (
{
closed = 1;
nodes = (
"434 0 LINE",
"434 261 LINE",
"392 128 LINE",
"665 582 LINE",
"437 582 LINE",
"262 286 LINE",
"390 286 LINE",
"215 582 LINE",
"-27 582 LINE",
"246 128 LINE",
"204 261 LINE",
"204 0 LINE"
);
}
);
width = 638;
}
);
leftKerningGroup = y.sc;
rightKerningGroup = y.sc;
rightMetricsKey = "=|";
userData = {
RMXScaler = {
source = Y;
};
};
},
{
glyphname = z.sc;
lastChange = "2017-09-15 19:18:46 +0000";
layers = (
{
anchors = (
{
name = bottom;
position = "{279, 0}";
},
{
name = top;
position = "{271, 559}";
}
);
background = {
anchors = (
{
name = bottom;
position = "{279, 0}";
},
{
name = top;
position = "{271, 559}";
}
);
paths = (
{
closed = 1;
nodes = (
"495 0 LINE",
"495 19 LINE",
"69 19 LINE",
"71 12 LINE",
"487 544 LINE",
"487 559 LINE",
"52 559 LINE",
"52 540 LINE",
"465 540 LINE",
"464 548 LINE",
"48 15 LINE",
"48 0 LINE"
);
}
);
};
layerId = UUID0;
paths = (
{
closed = 1;
nodes = (
"495 0 LINE",
"495 19 LINE",
"69 19 LINE",
"71 12 LINE",
"487 544 LINE",
"487 559 LINE",
"52 559 LINE",
"52 540 LINE",
"465 540 LINE",
"464 547 LINE",
"48 15 LINE",
"48 0 LINE"
);
}
);
width = 528;
},
{
anchors = (
{
name = bottom;
position = "{306, 0}";
},
{
name = top;
position = "{308, 582}";
}
);
background = {
anchors = (
{
name = bottom;
position = "{306, 0}";
},
{
name = top;
position = "{308, 582}";
}
);
paths = (
{
closed = 1;
nodes = (
"586 0 LINE",
"586 172 LINE",
"231 172 LINE",
"259 95 LINE",
"571 446 LINE",
"571 583 LINE",
"38 583 LINE",
"38 410 LINE",
"369 410 LINE",
"341 488 LINE",
"29 137 LINE",
"29 0 LINE"
);
}
);
};
layerId = "5DA6E103-6A94-47F2-987D-4952DB8EA68E";
paths = (
{
closed = 1;
nodes = (
"586 0 LINE",
"586 169 LINE",
"231 169 LINE",
"259 95 LINE",
"571 446 LINE",
"571 583 LINE",
"38 583 LINE",
"38 413 LINE",
"369 413 LINE",
"341 488 LINE",
"29 137 LINE",
"29 0 LINE"
);
}
);
width = 602;
}
);
leftKerningGroup = z.sc;
rightKerningGroup = z.sc;
userData = {
RMXScaler = {
source = Z;
};
};
},
{
glyphname = a.sc.ss01;
lastChange = "2017-09-15 19:18:46 +0000";
layers = (
{
anchors = (
{
name = bottom;
position = "{340, 0}";
},
{
name = ogonek;
position = "{564, 0}";
},
{
name = top;
position = "{340, 559}";
},
{
name = topleft;
position = "{88, 559}";
}
);
background = {
anchors = (
{
name = bottom;
position = "{340, 0}";
},
{
name = ogonek;
position = "{564, 0}";
},
{
name = top;
position = "{340, 559}";
},
{
name = topleft;
position = "{88, 559}";
}
);
paths = (
{
closed = 1;
nodes = (
"136 0 LINE",
"136 326 LINE SMOOTH",
"136 471 OFFCURVE",
"213 543 OFFCURVE",
"340 543 CURVE SMOOTH",
"467 543 OFFCURVE",
"544 471 OFFCURVE",
"544 326 CURVE SMOOTH",
"544 0 LINE",
"564 0 LINE",
"564 324 LINE SMOOTH",
"564 483 OFFCURVE",
"476 562 OFFCURVE",
"340 562 CURVE SMOOTH",
"204 562 OFFCURVE",
"116 483 OFFCURVE",
"116 324 CURVE SMOOTH",
"116 0 LINE"
);
},
{
closed = 1;
nodes = (
"552 182 LINE",
"552 201 LINE",
"130 201 LINE",
"130 182 LINE"
);
}
);
};
layerId = UUID0;
paths = (
{
closed = 1;
nodes = (
"136 0 LINE",
"136 326 LINE SMOOTH",
"136 471 OFFCURVE",
"213 543 OFFCURVE",
"340 543 CURVE SMOOTH",
"467 543 OFFCURVE",
"544 471 OFFCURVE",
"544 326 CURVE SMOOTH",
"544 0 LINE",
"564 0 LINE",
"564 324 LINE SMOOTH",
"564 483 OFFCURVE",
"476 562 OFFCURVE",
"340 562 CURVE SMOOTH",
"204 562 OFFCURVE",
"116 483 OFFCURVE",
"116 324 CURVE SMOOTH",
"116 0 LINE"
);
},
{
closed = 1;
nodes = (
"552 182 LINE",
"552 201 LINE",
"130 201 LINE",
"130 182 LINE"
);
}
);
width = 680;
},
{
anchors = (
{
name = bottom;
position = "{350, 0}";
},
{
name = ogonek;
position = "{652, 0}";
},
{
name = top;
position = "{350, 582}";
},
{
name = topleft;
position = "{54, 582}";
}
);
background = {
anchors = (
{
name = bottom;
position = "{350, 0}";
},
{
name = ogonek;
position = "{652, 0}";
},
{
name = top;
position = "{350, 582}";
},
{
name = topleft;
position = "{54, 582}";
}
);
paths = (
{
closed = 1;
nodes = (
"278 0 LINE",
"278 325 LINE SMOOTH",
"278 388 OFFCURVE",
"309 417 OFFCURVE",
"350 417 CURVE SMOOTH",
"391 417 OFFCURVE",
"422 388 OFFCURVE",
"422 325 CURVE SMOOTH",
"422 0 LINE",
"652 0 LINE",
"652 306 LINE SMOOTH",
"652 490 OFFCURVE",
"528 597 OFFCURVE",
"350 597 CURVE SMOOTH",
"172 597 OFFCURVE",
"48 490 OFFCURVE",
"48 306 CURVE SMOOTH",
"48 0 LINE"
);
},
{
closed = 1;
nodes = (
"503 106 LINE",
"503 274 LINE",
"192 274 LINE",
"192 106 LINE"
);
}
);
};
layerId = "5DA6E103-6A94-47F2-987D-4952DB8EA68E";
paths = (
{
closed = 1;
nodes = (
"278 0 LINE",
"278 332 LINE SMOOTH",
"278 388 OFFCURVE",
"307 417 OFFCURVE",
"350 417 CURVE SMOOTH",
"393 417 OFFCURVE",
"422 388 OFFCURVE",
"422 332 CURVE SMOOTH",
"422 0 LINE",
"652 0 LINE",
"652 306 LINE SMOOTH",
"652 490 OFFCURVE",
"528 597 OFFCURVE",
"350 597 CURVE SMOOTH",
"172 597 OFFCURVE",
"48 490 OFFCURVE",
"48 306 CURVE SMOOTH",
"48 0 LINE"
);
},
{
closed = 1;
nodes = (
"503 106 LINE",
"503 274 LINE",
"192 274 LINE",
"192 106 LINE"
);
}
);
width = 700;
}
);
leftKerningGroup = a.sc.ss01;
leftMetricsKey = u.sc;
rightKerningGroup = a.sc.ss01;
rightMetricsKey = "=|";
userData = {
RMXScaler = {
source = A.ss01;
};
};
},
{
glyphname = e.sc.ss01;
lastChange = "2017-09-15 19:18:46 +0000";
layers = (
{
anchors = (
{
name = bottom;
position = "{277, 0}";
},
{
name = ogonek;
position = "{461, 0}";
},
{
name = top;
position = "{277, 559}";
},
{
name = topleft;
position = "{58, 559}";
}
);
background = {
anchors = (
{
name = bottom;
position = "{277, 0}";
},
{
name = ogonek;
position = "{461, 0}";
},
{
name = top;
position = "{277, 559}";
},
{
name = topleft;
position = "{58, 559}";
}
);
paths = (
{
closed = 1;
nodes = (
"483 72 CURVE",
"470 87 LINE",
"429 42 OFFCURVE",
"355 16 OFFCURVE",
"268 16 CURVE SMOOTH",
"138 16 OFFCURVE",
"76 70 OFFCURVE",
"76 149 CURVE SMOOTH",
"76 235 OFFCURVE",
"149 275 OFFCURVE",
"252 275 CURVE SMOOTH",
"385 275 LINE",
"385 293 LINE",
"252 293 LINE SMOOTH",
"157 293 OFFCURVE",
"100 337 OFFCURVE",
"100 415 CURVE SMOOTH",
"100 487 OFFCURVE",
"160 543 OFFCURVE",
"280 543 CURVE SMOOTH",
"342 543 OFFCURVE",
"399 527 OFFCURVE",
"447 498 CURVE",
"456 514 LINE",
"412 545 OFFCURVE",
"346 562 OFFCURVE",
"279 562 CURVE SMOOTH",
"148 562 OFFCURVE",
"80 496 OFFCURVE",
"80 416 CURVE SMOOTH",
"80 332 OFFCURVE",
"141 278 OFFCURVE",
"246 278 CURVE",
"243 290 LINE",
"137 290 OFFCURVE",
"56 241 OFFCURVE",
"56 147 CURVE SMOOTH",
"56 61 OFFCURVE",
"127 -3 OFFCURVE",
"267 -3 CURVE SMOOTH",
"361 -3 OFFCURVE",
"440 25 OFFCURVE"
);
}
);
};
layerId = UUID0;
paths = (
{
closed = 1;
nodes = (
"483 72 CURVE",
"470 87 LINE",
"429 42 OFFCURVE",
"355 16 OFFCURVE",
"268 16 CURVE SMOOTH",
"138 16 OFFCURVE",
"76 70 OFFCURVE",
"76 149 CURVE SMOOTH",
"76 235 OFFCURVE",
"149 275 OFFCURVE",
"252 275 CURVE SMOOTH",
"385 275 LINE",
"385 293 LINE",
"252 293 LINE SMOOTH",
"157 293 OFFCURVE",
"100 337 OFFCURVE",
"100 415 CURVE SMOOTH",
"100 487 OFFCURVE",
"160 543 OFFCURVE",
"280 543 CURVE SMOOTH",
"342 543 OFFCURVE",
"399 527 OFFCURVE",
"447 498 CURVE",
"456 514 LINE",
"412 545 OFFCURVE",
"346 562 OFFCURVE",
"279 562 CURVE SMOOTH",
"148 562 OFFCURVE",
"80 496 OFFCURVE",
"80 416 CURVE SMOOTH",
"80 332 OFFCURVE",
"141 278 OFFCURVE",
"246 278 CURVE",
"243 290 LINE",
"137 290 OFFCURVE",
"56 241 OFFCURVE",
"56 147 CURVE SMOOTH",
"56 61 OFFCURVE",
"127 -3 OFFCURVE",
"267 -3 CURVE SMOOTH",
"361 -3 OFFCURVE",
"440 25 OFFCURVE"
);
}
);
width = 519;
},
{
anchors = (
{
name = bottom;
position = "{324, 0}";
},
{
name = ogonek;
position = "{558, 0}";
},
{
name = top;
position = "{324, 582}";
},
{
name = topleft;
position = "{-12, 582}";
}
);
background = {
anchors = (
{
name = bottom;
position = "{324, 0}";
},
{
name = ogonek;
position = "{558, 0}";
},
{
name = top;
position = "{324, 582}";
},
{
name = topleft;
position = "{-12, 582}";
}
);
paths = (
{
closed = 1;
nodes = (
"598 33 CURVE",
"532 194 LINE",
"478 170 OFFCURVE",
"405 155 OFFCURVE",
"352 155 CURVE SMOOTH",
"276 155 OFFCURVE",
"249 167 OFFCURVE",
"249 185 CURVE SMOOTH",
"249 199 OFFCURVE",
"260 211 OFFCURVE",
"295 211 CURVE SMOOTH",
"490 211 LINE",
"490 375 LINE",
"311 375 LINE SMOOTH",
"280 375 OFFCURVE",
"274 384 OFFCURVE",
"274 397 CURVE SMOOTH",
"274 416 OFFCURVE",
"300 427 OFFCURVE",
"364 427 CURVE SMOOTH",
"413 427 OFFCURVE",
"463 419 OFFCURVE",
"521 398 CURVE",
"583 560 LINE",
"521 582 OFFCURVE",
"439 597 OFFCURVE",
"355 597 CURVE SMOOTH",
"138 597 OFFCURVE",
"42 507 OFFCURVE",
"42 411 CURVE SMOOTH",
"42 339 OFFCURVE",
"98 275 OFFCURVE",
"220 275 CURVE",
"216 323 LINE",
"88 323 OFFCURVE",
"18 254 OFFCURVE",
"18 170 CURVE SMOOTH",
"18 62 OFFCURVE",
"129 -15 OFFCURVE",
"343 -15 CURVE SMOOTH",
"435 -15 OFFCURVE",
"532 4 OFFCURVE"
);
}
);
};
layerId = "5DA6E103-6A94-47F2-987D-4952DB8EA68E";
paths = (
{
closed = 1;
nodes = (
"598 33 CURVE",
"532 194 LINE",
"485 167 OFFCURVE",
"405 152 OFFCURVE",
"352 152 CURVE SMOOTH",
"275 152 OFFCURVE",
"248 164 OFFCURVE",
"248 185 CURVE SMOOTH",
"248 202 OFFCURVE",
"259 214 OFFCURVE",
"294 214 CURVE SMOOTH",
"490 214 LINE",
"490 372 LINE",
"309 372 LINE SMOOTH",
"281 372 OFFCURVE",
"272 381 OFFCURVE",
"272 397 CURVE SMOOTH",
"272 417 OFFCURVE",
"298 430 OFFCURVE",
"364 430 CURVE SMOOTH",
"413 430 OFFCURVE",
"471 422 OFFCURVE",
"521 398 CURVE",
"583 560 LINE",
"521 582 OFFCURVE",
"439 597 OFFCURVE",
"355 597 CURVE SMOOTH",
"138 597 OFFCURVE",
"42 507 OFFCURVE",
"42 411 CURVE SMOOTH",
"42 339 OFFCURVE",
"98 275 OFFCURVE",
"220 275 CURVE",
"216 323 LINE",
"88 323 OFFCURVE",
"18 254 OFFCURVE",
"18 170 CURVE SMOOTH",
"18 62 OFFCURVE",
"129 -15 OFFCURVE",
"343 -15 CURVE SMOOTH",
"435 -15 OFFCURVE",
"532 4 OFFCURVE"
);
}
);
width = 606;
}
);
leftKerningGroup = e.sc.ss01;
leftMetricsKey = "=|b.sc";
rightKerningGroup = e.sc.ss01;
userData = {
RMXScaler = {
source = E.ss01;
};
};
},
{
glyphname = f.sc.ss01;
lastChange = "2017-09-15 19:18:46 +0000";
layers = (
{
background = {
paths = (
{
closed = 1;
nodes = (
"136 0 LINE",
"136 381 LINE SMOOTH",
"136 482 OFFCURVE",
"193 543 OFFCURVE",
"317 543 CURVE SMOOTH",
"376 543 OFFCURVE",
"429 529 OFFCURVE",
"471 497 CURVE",
"482 514 LINE",
"440 547 OFFCURVE",
"381 562 OFFCURVE",
"317 562 CURVE SMOOTH",
"180 562 OFFCURVE",
"116 490 OFFCURVE",
"116 383 CURVE SMOOTH",
"116 0 LINE"
);
},
{
closed = 1;
nodes = (
"428 258 LINE",
"428 277 LINE",
"132 277 LINE",
"132 258 LINE"
);
}
);
};
layerId = UUID0;
paths = (
{
closed = 1;
nodes = (
"136 0 LINE",
"136 381 LINE SMOOTH",
"136 482 OFFCURVE",
"193 543 OFFCURVE",
"317 543 CURVE SMOOTH",
"376 543 OFFCURVE",
"429 529 OFFCURVE",
"471 497 CURVE",
"482 514 LINE",
"440 547 OFFCURVE",
"381 562 OFFCURVE",
"317 562 CURVE SMOOTH",
"180 562 OFFCURVE",
"116 490 OFFCURVE",
"116 383 CURVE SMOOTH",
"116 0 LINE"
);
},
{
closed = 1;
nodes = (
"428 258 LINE",
"428 277 LINE",
"132 277 LINE",
"132 258 LINE"
);
}
);
width = 503;
},
{
background = {
paths = (
{
closed = 1;
nodes = (
"278 0 LINE",
"278 327 LINE SMOOTH",
"278 391 OFFCURVE",
"320 417 OFFCURVE",
"386 417 CURVE SMOOTH",
"411 417 OFFCURVE",
"446 410 OFFCURVE",
"477 395 CURVE",
"543 563 LINE",
"500 584 OFFCURVE",
"436 597 OFFCURVE",
"366 597 CURVE SMOOTH",
"166 597 OFFCURVE",
"48 500 OFFCURVE",
"48 322 CURVE SMOOTH",
"48 0 LINE"
);
},
{
closed = 1;
nodes = (
"472 174 LINE",
"472 341 LINE",
"189 341 LINE",
"189 174 LINE"
);
}
);
};
layerId = "5DA6E103-6A94-47F2-987D-4952DB8EA68E";
paths = (
{
closed = 1;
nodes = (
"278 0 LINE",
"278 330 LINE SMOOTH",
"278 395 OFFCURVE",
"320 418 OFFCURVE",
"376 418 CURVE SMOOTH",
"411 418 OFFCURVE",
"446 411 OFFCURVE",
"477 395 CURVE",
"543 563 LINE",
"500 584 OFFCURVE",
"436 597 OFFCURVE",
"364 597 CURVE SMOOTH",
"166 597 OFFCURVE",
"48 496 OFFCURVE",
"48 322 CURVE SMOOTH",
"48 0 LINE"
);
},
{
closed = 1;
nodes = (
"472 174 LINE",
"472 339 LINE",
"189 339 LINE",
"189 174 LINE"
);
}
);
width = 549;
}
);
leftKerningGroup = f.ss01.sc;
leftMetricsKey = "=|u.sc";
rightKerningGroup = f.sc;
userData = {
RMXScaler = {
source = F.ss01;
};
};
},
{
glyphname = g.sc.ss01;
lastChange = "2017-09-15 19:18:46 +0000";
layers = (
{
anchors = (
{
name = bottom;
position = "{334, 0}";
},
{
name = top;
position = "{335, 559}";
}
);
background = {
anchors = (
{
name = bottom;
position = "{334, 0}";
},
{
name = top;
position = "{335, 559}";
}
);
paths = (
{
closed = 1;
nodes = (
"541 81 CURVE",
"533 99 LINE",
"481 42 OFFCURVE",
"408 16 OFFCURVE",
"339 16 CURVE SMOOTH",
"205 16 OFFCURVE",
"76 114 OFFCURVE",
"76 279 CURVE SMOOTH",
"76 429 OFFCURVE",
"193 543 OFFCURVE",
"350 543 CURVE SMOOTH",
"421 543 OFFCURVE",
"482 524 OFFCURVE",
"534 476 CURVE",
"546 490 LINE",
"497 538 OFFCURVE",
"427 562 OFFCURVE",
"350 562 CURVE SMOOTH",
"181 562 OFFCURVE",
"56 441 OFFCURVE",
"56 279 CURVE SMOOTH",
"56 98 OFFCURVE",
"197 -3 OFFCURVE",
"339 -3 CURVE SMOOTH",
"412 -3 OFFCURVE",
"487 23 OFFCURVE"
);
},
{
closed = 1;
nodes = (
"546 0 LINE",
"546 275 LINE",
"527 275 LINE",
"527 80 LINE",
"528 77 LINE",
"528 0 LINE"
);
}
);
};
layerId = UUID0;
paths = (
{
closed = 1;
nodes = (
"412 -3 OFFCURVE",
"487 23 OFFCURVE",
"541 81 CURVE",
"533 99 LINE",
"481 42 OFFCURVE",
"408 16 OFFCURVE",
"339 16 CURVE SMOOTH",
"205 16 OFFCURVE",
"76 114 OFFCURVE",
"76 279 CURVE SMOOTH",
"76 429 OFFCURVE",
"193 543 OFFCURVE",
"350 543 CURVE SMOOTH",
"421 543 OFFCURVE",
"482 524 OFFCURVE",
"534 476 CURVE",
"546 490 LINE",
"497 538 OFFCURVE",
"427 562 OFFCURVE",
"350 562 CURVE SMOOTH",
"181 562 OFFCURVE",
"56 441 OFFCURVE",
"56 279 CURVE SMOOTH",
"56 98 OFFCURVE",
"197 -3 OFFCURVE",
"339 -3 CURVE SMOOTH"
);
},
{
closed = 1;
nodes = (
"546 0 LINE",
"546 275 LINE",
"527 275 LINE",
"527 80 LINE",
"528 77 LINE",
"528 0 LINE"
);
}
);
width = 647;
},
{
anchors = (
{
name = bottom;
position = "{352, 3}";
},
{
name = top;
position = "{366, 583}";
}
);
background = {
paths = (
{
closed = 1;
nodes = (
"443 -15 OFFCURVE",
"528 35 OFFCURVE",
"566 168 CURVE",
"468 225 LINE",
"451 182 OFFCURVE",
"411 161 OFFCURVE",
"361 161 CURVE SMOOTH",
"303 161 OFFCURVE",
"256 197 OFFCURVE",
"256 279 CURVE SMOOTH",
"256 371 OFFCURVE",
"299 417 OFFCURVE",
"374 417 CURVE SMOOTH",
"421 417 OFFCURVE",
"461 397 OFFCURVE",
"495 354 CURVE",
"646 479 LINE",
"586 556 OFFCURVE",
"497 597 OFFCURVE",
"374 597 CURVE SMOOTH",
"168 597 OFFCURVE",
"24 468 OFFCURVE",
"24 281 CURVE SMOOTH",
"24 102 OFFCURVE",
"157 -15 OFFCURVE",
"325 -15 CURVE SMOOTH"
);
},
{
closed = 1;
nodes = (
"626 0 LINE",
"626 304 LINE",
"427 304 LINE",
"427 97 LINE",
"487 74 LINE",
"487 0 LINE"
);
}
);
};
layerId = "5DA6E103-6A94-47F2-987D-4952DB8EA68E";
paths = (
{
closed = 1;
nodes = (
"443 -15 OFFCURVE",
"528 35 OFFCURVE",
"566 148 CURVE",
"468 225 LINE",
"451 182 OFFCURVE",
"411 161 OFFCURVE",
"363 161 CURVE SMOOTH",
"303 161 OFFCURVE",
"256 197 OFFCURVE",
"256 279 CURVE SMOOTH",
"256 371 OFFCURVE",
"299 417 OFFCURVE",
"374 417 CURVE SMOOTH",
"421 417 OFFCURVE",
"461 397 OFFCURVE",
"495 354 CURVE",
"646 479 LINE",
"586 556 OFFCURVE",
"497 597 OFFCURVE",
"374 597 CURVE SMOOTH",
"168 597 OFFCURVE",
"24 468 OFFCURVE",
"24 281 CURVE SMOOTH",
"24 102 OFFCURVE",
"155 -15 OFFCURVE",
"335 -15 CURVE SMOOTH"
);
},
{
closed = 1;
nodes = (
"626 0 LINE",
"626 304 LINE",
"427 304 LINE",
"427 97 LINE",
"487 74 LINE",
"487 0 LINE"
);
}
);
width = 666;
},
{
anchors = (
{
name = bottom;
position = "{348, 2}";
},
{
name = top;
position = "{359, 577}";
}
);
associatedMasterId = UUID0;
background = {
paths = (
{
closed = 1;
nodes = (
"560 148 CURVE",
"483 196 LINE",
"458 150 OFFCURVE",
"410 128 OFFCURVE",
"356 128 CURVE SMOOTH",
"280 128 OFFCURVE",
"214 178 OFFCURVE",
"214 279 CURVE SMOOTH",
"214 384 OFFCURVE",
"274 446 OFFCURVE",
"368 446 CURVE SMOOTH",
"421 446 OFFCURVE",
"466 426 OFFCURVE",
"504 382 CURVE",
"623 482 LINE",
"565 552 OFFCURVE",
"481 589 OFFCURVE",
"368 589 CURVE SMOOTH",
"171 589 OFFCURVE",
"31 462 OFFCURVE",
"31 281 CURVE SMOOTH",
"31 101 OFFCURVE",
"166 -12 OFFCURVE",
"328 -12 CURVE SMOOTH",
"436 -12 OFFCURVE",
"518 32 OFFCURVE"
);
},
{
closed = 1;
nodes = (
"607 0 LINE",
"607 297 LINE",
"450 297 LINE",
"450 93 LINE",
"489 75 LINE",
"489 0 LINE"
);
}
);
};
layerId = "85BD21C6-D996-4154-A41A-0C544BF120B2";
name = "{170}";
paths = (
{
closed = 1;
nodes = (
"436 -12 OFFCURVE",
"510 16 OFFCURVE",
"570 128 CURVE",
"483 196 LINE",
"458 150 OFFCURVE",
"410 128 OFFCURVE",
"356 128 CURVE SMOOTH",
"280 128 OFFCURVE",
"214 178 OFFCURVE",
"214 279 CURVE SMOOTH",
"214 384 OFFCURVE",
"274 446 OFFCURVE",
"368 446 CURVE SMOOTH",
"421 446 OFFCURVE",
"466 426 OFFCURVE",
"504 382 CURVE",
"623 482 LINE",
"565 552 OFFCURVE",
"481 589 OFFCURVE",
"368 589 CURVE SMOOTH",
"171 589 OFFCURVE",
"31 462 OFFCURVE",
"31 281 CURVE SMOOTH",
"31 101 OFFCURVE",
"163 -12 OFFCURVE",
"338 -12 CURVE SMOOTH"
);
},
{
closed = 1;
nodes = (
"607 0 LINE",
"607 297 LINE",
"450 297 LINE",
"450 93 LINE",
"476 75 LINE",
"476 0 LINE"
);
}
);
width = 649;
}
);
leftKerningGroup = o.sc;
leftMetricsKey = o.sc;
rightKerningGroup = g.sc;
userData = {
RMXScaler = {
source = G.ss01;
};
};
},
{
glyphname = i.sc.ss01;
lastChange = "2017-09-15 19:18:46 +0000";
layers = (
{
anchors = (
{
name = bottom;
position = "{201, 0}";
},
{
name = ogonek;
position = "{211, 0}";
},
{
name = top;
position = "{201, 559}";
},
{
name = topleft;
position = "{34, 559}";
}
);
background = {
anchors = (
{
name = bottom;
position = "{201, 0}";
},
{
name = ogonek;
position = "{211, 0}";
},
{
name = top;
position = "{201, 559}";
},
{
name = topleft;
position = "{34, 559}";
}
);
paths = (
{
closed = 1;
nodes = (
"211 8 LINE",
"211 551 LINE",
"191 551 LINE",
"191 8 LINE"
);
},
{
closed = 1;
nodes = (
"334 0 LINE",
"334 19 LINE",
"67 19 LINE",
"67 0 LINE"
);
},
{
closed = 1;
nodes = (
"334 540 LINE",
"334 559 LINE",
"67 559 LINE",
"67 540 LINE"
);
}
);
};
layerId = UUID0;
paths = (
{
closed = 1;
nodes = (
"211 8 LINE",
"211 551 LINE",
"191 551 LINE",
"191 8 LINE"
);
},
{
closed = 1;
nodes = (
"334 0 LINE",
"334 19 LINE",
"68 19 LINE",
"68 0 LINE"
);
},
{
closed = 1;
nodes = (
"334 540 LINE",
"334 559 LINE",
"68 559 LINE",
"68 540 LINE"
);
}
);
width = 402;
},
{
anchors = (
{
name = bottom;
position = "{236, 0}";
},
{
name = ogonek;
position = "{351, 0}";
},
{
name = top;
position = "{236, 582}";
},
{
name = topleft;
position = "{-10, 582}";
}
);
background = {
anchors = (
{
name = bottom;
position = "{236, 0}";
},
{
name = ogonek;
position = "{351, 0}";
},
{
name = top;
position = "{236, 582}";
},
{
name = topleft;
position = "{-10, 582}";
}
);
paths = (
{
closed = 1;
nodes = (
"351 18 LINE",
"351 565 LINE",
"121 565 LINE",
"121 18 LINE"
);
},
{
closed = 1;
nodes = (
"433 0 LINE",
"433 168 LINE",
"39 168 LINE",
"39 0 LINE"
);
},
{
closed = 1;
nodes = (
"433 414 LINE",
"433 582 LINE",
"39 582 LINE",
"39 414 LINE"
);
}
);
};
layerId = "5DA6E103-6A94-47F2-987D-4952DB8EA68E";
paths = (
{
closed = 1;
nodes = (
"351 18 LINE",
"351 565 LINE",
"121 565 LINE",
"121 18 LINE"
);
},
{
closed = 1;
nodes = (
"433 0 LINE",
"433 165 LINE",
"39 165 LINE",
"39 0 LINE"
);
},
{
closed = 1;
nodes = (
"433 417 LINE",
"433 582 LINE",
"39 582 LINE",
"39 417 LINE"
);
}
);
width = 472;
}
);
leftKerningGroup = i.sc.ss01;
rightKerningGroup = i.sc.ss01;
rightMetricsKey = "=|";
userData = {
RMXScaler = {
source = I.ss01;
};
};
},
{
glyphname = ij.sc.ss01;
lastChange = "2017-09-15 19:18:46 +0000";
layers = (
{
anchors = (
{
name = top;
position = "{154, 559}";
}
);
background = {
anchors = (
{
name = top;
position = "{154, 559}";
}
);
paths = (
{
closed = 1;
nodes = (
"496 155 CURVE SMOOTH",
"496 559 LINE",
"475 559 LINE",
"475 156 LINE SMOOTH",
"475 8 OFFCURVE",
"403 -63 OFFCURVE",
"284 -63 CURVE SMOOTH",
"224 -63 OFFCURVE",
"169 -45 OFFCURVE",
"126 -14 CURVE",
"114 -30 LINE",
"159 -61 OFFCURVE",
"218 -82 OFFCURVE",
"284 -82 CURVE SMOOTH",
"412 -82 OFFCURVE",
"496 -4 OFFCURVE"
);
},
{
closed = 1;
nodes = (
"140 153 LINE",
"140 559 LINE",
"120 559 LINE",
"120 153 LINE"
);
}
);
};
layerId = UUID0;
paths = (
{
closed = 1;
nodes = (
"412 -82 OFFCURVE",
"496 -4 OFFCURVE",
"496 155 CURVE SMOOTH",
"496 559 LINE",
"475 559 LINE",
"475 156 LINE SMOOTH",
"475 8 OFFCURVE",
"403 -63 OFFCURVE",
"284 -63 CURVE SMOOTH",
"224 -63 OFFCURVE",
"169 -45 OFFCURVE",
"126 -14 CURVE",
"114 -30 LINE",
"159 -61 OFFCURVE",
"218 -82 OFFCURVE",
"284 -82 CURVE SMOOTH"
);
},
{
closed = 1;
nodes = (
"140 153 LINE",
"140 559 LINE",
"120 559 LINE",
"120 153 LINE"
);
}
);
width = 612;
},
{
anchors = (
{
name = top;
position = "{151, 582}";
}
);
background = {
paths = (
{
closed = 1;
nodes = (
"594 197 CURVE SMOOTH",
"594 582 LINE",
"364 582 LINE",
"364 184 LINE SMOOTH",
"364 115 OFFCURVE",
"340 85 OFFCURVE",
"275 85 CURVE SMOOTH",
"227 85 OFFCURVE",
"163 103 OFFCURVE",
"105 138 CURVE",
"22 -19 LINE",
"86 -64 OFFCURVE",
"178 -92 OFFCURVE",
"286 -92 CURVE SMOOTH",
"471 -92 OFFCURVE",
"594 11 OFFCURVE"
);
},
{
closed = 1;
nodes = (
"270 202 LINE",
"270 582 LINE",
"40 582 LINE",
"40 202 LINE"
);
}
);
};
layerId = "5DA6E103-6A94-47F2-987D-4952DB8EA68E";
paths = (
{
closed = 1;
nodes = (
"472 -92 OFFCURVE",
"594 13 OFFCURVE",
"594 199 CURVE SMOOTH",
"594 582 LINE",
"364 582 LINE",
"364 187 LINE SMOOTH",
"364 115 OFFCURVE",
"330 85 OFFCURVE",
"265 85 CURVE SMOOTH",
"209 85 OFFCURVE",
"155 103 OFFCURVE",
"105 138 CURVE",
"22 -22 LINE",
"85 -65 OFFCURVE",
"166 -92 OFFCURVE",
"276 -92 CURVE SMOOTH"
);
},
{
closed = 1;
nodes = (
"270 202 LINE",
"270 582 LINE",
"40 582 LINE",
"40 202 LINE"
);
}
);
width = 642;
}
);
leftKerningGroup = h.sc;
leftMetricsKey = ij.sc;
rightKerningGroup = h.sc;
rightMetricsKey = u.sc;
},
{
glyphname = j.sc.ss01;
lastChange = "2017-09-15 19:18:46 +0000";
layers = (
{
anchors = (
{
name = top;
position = "{178, 559}";
}
);
background = {
anchors = (
{
name = top;
position = "{178, 559}";
}
);
paths = (
{
closed = 1;
nodes = (
"294 77 CURVE SMOOTH",
"294 559 LINE",
"63 559 LINE",
"63 540 LINE",
"274 540 LINE",
"274 78 LINE SMOOTH",
"274 -18 OFFCURVE",
"235 -63 OFFCURVE",
"153 -63 CURVE SMOOTH",
"101 -63 OFFCURVE",
"55 -37 OFFCURVE",
"24 10 CURVE",
"11 -3 LINE",
"41 -53 OFFCURVE",
"95 -83 OFFCURVE",
"153 -83 CURVE SMOOTH",
"247 -83 OFFCURVE",
"294 -29 OFFCURVE"
);
}
);
};
layerId = UUID0;
paths = (
{
closed = 1;
nodes = (
"247 -83 OFFCURVE",
"294 -29 OFFCURVE",
"294 77 CURVE SMOOTH",
"294 559 LINE",
"63 559 LINE",
"63 540 LINE",
"274 540 LINE",
"274 78 LINE SMOOTH",
"274 -18 OFFCURVE",
"235 -63 OFFCURVE",
"153 -63 CURVE SMOOTH",
"101 -63 OFFCURVE",
"55 -37 OFFCURVE",
"24 10 CURVE",
"11 -3 LINE",
"41 -53 OFFCURVE",
"95 -83 OFFCURVE",
"153 -83 CURVE SMOOTH"
);
}
);
width = 410;
},
{
anchors = (
{
name = top;
position = "{256, 582}";
}
);
background = {
paths = (
{
closed = 1;
nodes = (
"375 -98 OFFCURVE",
"469 -16 OFFCURVE",
"469 151 CURVE SMOOTH",
"469 582 LINE",
"44 582 LINE",
"44 414 LINE",
"242 414 LINE",
"242 141 LINE SMOOTH",
"242 102 OFFCURVE",
"221 82 OFFCURVE",
"187 82 CURVE SMOOTH",
"157 82 OFFCURVE",
"134 98 OFFCURVE",
"106 133 CURVE",
"-23 -8 LINE",
"27 -68 OFFCURVE",
"105 -98 OFFCURVE",
"206 -98 CURVE SMOOTH"
);
}
);
};
layerId = "5DA6E103-6A94-47F2-987D-4952DB8EA68E";
paths = (
{
closed = 1;
nodes = (
"375 -98 OFFCURVE",
"469 -16 OFFCURVE",
"469 161 CURVE SMOOTH",
"469 582 LINE",
"44 582 LINE",
"44 414 LINE",
"242 414 LINE",
"242 138 LINE SMOOTH",
"242 99 OFFCURVE",
"223 77 OFFCURVE",
"189 77 CURVE SMOOTH",
"159 77 OFFCURVE",
"132 95 OFFCURVE",
"106 133 CURVE",
"-23 -8 LINE",
"27 -68 OFFCURVE",
"105 -98 OFFCURVE",
"205 -98 CURVE SMOOTH"
);
}
);
width = 517;
}
);
leftKerningGroup = j.sc.ss01;
leftMetricsKey = j.sc;
rightKerningGroup = h.sc;
rightMetricsKey = j.sc;
userData = {
RMXScaler = {
source = J.ss01;
};
};
},
{
glyphname = m.sc.ss01;
lastChange = "2017-09-15 19:18:46 +0000";
layers = (
{
anchors = (
{
name = bottom;
position = "{472, 0}";
},
{
name = top;
position = "{472, 559}";
}
);
background = {
anchors = (
{
name = bottom;
position = "{472, 0}";
},
{
name = top;
position = "{472, 559}";
}
);
paths = (
{
closed = 1;
nodes = (
"821 0 LINE",
"821 353 LINE SMOOTH",
"821 491 OFFCURVE",
"752 562 OFFCURVE",
"644 562 CURVE SMOOTH",
"535 562 OFFCURVE",
"464 491 OFFCURVE",
"464 332 CURVE SMOOTH",
"464 263 LINE",
"482 263 LINE",
"482 336 LINE SMOOTH",
"482 479 OFFCURVE",
"540 543 OFFCURVE",
"642 543 CURVE SMOOTH",
"744 543 OFFCURVE",
"801 480 OFFCURVE",
"801 352 CURVE SMOOTH",
"801 0 LINE"
);
},
{
closed = 1;
nodes = (
"142 0 LINE",
"142 372 LINE",
"142 386 LINE",
"142 559 LINE",
"122 559 LINE",
"122 0 LINE"
);
},
{
closed = 1;
nodes = (
"482 0 LINE",
"482 353 LINE SMOOTH",
"482 491 OFFCURVE",
"413 562 OFFCURVE",
"304 562 CURVE SMOOTH",
"196 562 OFFCURVE",
"127 491 OFFCURVE",
"127 329 CURVE SMOOTH",
"127 240 LINE",
"142 240 LINE",
"142 336 LINE SMOOTH",
"142 479 OFFCURVE",
"201 543 OFFCURVE",
"302 543 CURVE SMOOTH",
"404 543 OFFCURVE",
"462 480 OFFCURVE",
"462 352 CURVE SMOOTH",
"462 0 LINE"
);
}
);
};
layerId = UUID0;
paths = (
{
closed = 1;
nodes = (
"821 0 LINE",
"821 353 LINE SMOOTH",
"821 491 OFFCURVE",
"752 562 OFFCURVE",
"644 562 CURVE SMOOTH",
"535 562 OFFCURVE",
"464 491 OFFCURVE",
"464 340 CURVE SMOOTH",
"464 263 LINE",
"482 263 LINE",
"482 336 LINE SMOOTH",
"482 479 OFFCURVE",
"540 543 OFFCURVE",
"642 543 CURVE SMOOTH",
"744 543 OFFCURVE",
"801 480 OFFCURVE",
"801 352 CURVE SMOOTH",
"801 0 LINE"
);
},
{
closed = 1;
nodes = (
"142 0 LINE",
"142 372 LINE",
"142 386 LINE",
"142 559 LINE",
"122 559 LINE",
"122 0 LINE"
);
},
{
closed = 1;
nodes = (
"482 0 LINE",
"482 353 LINE SMOOTH",
"482 491 OFFCURVE",
"413 562 OFFCURVE",
"304 562 CURVE SMOOTH",
"196 562 OFFCURVE",
"127 492 OFFCURVE",
"127 339 CURVE SMOOTH",
"127 240 LINE",
"142 240 LINE",
"142 336 LINE SMOOTH",
"142 479 OFFCURVE",
"201 543 OFFCURVE",
"302 543 CURVE SMOOTH",
"404 543 OFFCURVE",
"462 480 OFFCURVE",
"462 352 CURVE SMOOTH",
"462 0 LINE"
);
}
);
width = 937;
},
{
anchors = (
{
name = bottom;
position = "{509, 0}";
},
{
name = top;
position = "{509, 582}";
}
);
background = {
anchors = (
{
name = bottom;
position = "{509, 0}";
},
{
name = top;
position = "{509, 582}";
}
);
paths = (
{
closed = 1;
nodes = (
"966 0 LINE",
"966 351 LINE SMOOTH",
"966 511 OFFCURVE",
"885 597 OFFCURVE",
"751 597 CURVE SMOOTH",
"617 597 OFFCURVE",
"524 508 OFFCURVE",
"524 354 CURVE SMOOTH",
"524 246 LINE",
"624 246 LINE",
"624 339 LINE SMOOTH",
"624 398 OFFCURVE",
"652 417 OFFCURVE",
"683 417 CURVE SMOOTH",
"713 417 OFFCURVE",
"736 399 OFFCURVE",
"736 345 CURVE SMOOTH",
"736 0 LINE"
);
},
{
closed = 1;
nodes = (
"283 0 LINE",
"283 441 LINE",
"276 467 LINE",
"276 582 LINE",
"53 582 LINE",
"53 0 LINE"
);
},
{
closed = 1;
nodes = (
"624 0 LINE",
"624 351 LINE SMOOTH",
"624 511 OFFCURVE",
"549 597 OFFCURVE",
"427 597 CURVE SMOOTH",
"289 597 OFFCURVE",
"224 499 OFFCURVE",
"224 345 CURVE SMOOTH",
"224 249 LINE",
"283 249 LINE",
"283 339 LINE SMOOTH",
"283 398 OFFCURVE",
"311 417 OFFCURVE",
"341 417 CURVE SMOOTH",
"372 417 OFFCURVE",
"394 399 OFFCURVE",
"394 345 CURVE SMOOTH",
"394 0 LINE"
);
}
);
};
layerId = "5DA6E103-6A94-47F2-987D-4952DB8EA68E";
paths = (
{
closed = 1;
nodes = (
"966 0 LINE",
"966 361 LINE SMOOTH",
"966 515 OFFCURVE",
"885 597 OFFCURVE",
"751 597 CURVE SMOOTH",
"617 597 OFFCURVE",
"514 508 OFFCURVE",
"514 354 CURVE SMOOTH",
"514 246 LINE",
"624 246 LINE",
"624 344 LINE SMOOTH",
"624 396 OFFCURVE",
"653 417 OFFCURVE",
"685 417 CURVE SMOOTH",
"714 417 OFFCURVE",
"736 398 OFFCURVE",
"736 350 CURVE SMOOTH",
"736 0 LINE"
);
},
{
closed = 1;
nodes = (
"283 0 LINE",
"283 441 LINE",
"276 467 LINE",
"276 582 LINE",
"53 582 LINE",
"53 0 LINE"
);
},
{
closed = 1;
nodes = (
"624 0 LINE",
"624 361 LINE SMOOTH",
"624 514 OFFCURVE",
"549 597 OFFCURVE",
"427 597 CURVE SMOOTH",
"289 597 OFFCURVE",
"214 499 OFFCURVE",
"214 345 CURVE SMOOTH",
"214 249 LINE",
"283 249 LINE",
"283 344 LINE SMOOTH",
"283 398 OFFCURVE",
"311 417 OFFCURVE",
"341 417 CURVE SMOOTH",
"372 417 OFFCURVE",
"394 398 OFFCURVE",
"394 350 CURVE SMOOTH",
"394 0 LINE"
);
}
);
width = 1014;
}
);
leftKerningGroup = h.sc;
leftMetricsKey = h.sc;
rightKerningGroup = n.sc.ss01;
rightMetricsKey = u.sc;
userData = {
RMXScaler = {
source = M.ss01;
};
};
},
{
glyphname = n.sc.ss01;
lastChange = "2017-09-15 19:18:46 +0000";
layers = (
{
anchors = (
{
name = bottom;
position = "{340, 0}";
},
{
name = top;
position = "{342, 559}";
}
);
background = {
anchors = (
{
name = bottom;
position = "{340, 0}";
},
{
name = top;
position = "{342, 559}";
}
);
paths = (
{
closed = 1;
nodes = (
"562 0 LINE",
"562 337 LINE SMOOTH",
"562 483 OFFCURVE",
"479 562 OFFCURVE",
"344 562 CURVE SMOOTH",
"210 562 OFFCURVE",
"127 483 OFFCURVE",
"127 321 CURVE SMOOTH",
"127 240 LINE",
"142 240 LINE",
"142 320 LINE SMOOTH",
"142 471 OFFCURVE",
"215 543 OFFCURVE",
"342 543 CURVE SMOOTH",
"469 543 OFFCURVE",
"542 472 OFFCURVE",
"542 336 CURVE SMOOTH",
"542 0 LINE"
);
},
{
closed = 1;
nodes = (
"142 0 LINE",
"142 372 LINE",
"142 386 LINE",
"142 559 LINE",
"122 559 LINE",
"122 0 LINE"
);
}
);
};
layerId = UUID0;
paths = (
{
closed = 1;
nodes = (
"562 0 LINE",
"562 337 LINE SMOOTH",
"562 483 OFFCURVE",
"479 562 OFFCURVE",
"344 562 CURVE SMOOTH",
"210 562 OFFCURVE",
"127 483 OFFCURVE",
"127 321 CURVE SMOOTH",
"127 240 LINE",
"142 240 LINE",
"142 320 LINE SMOOTH",
"142 471 OFFCURVE",
"215 543 OFFCURVE",
"342 543 CURVE SMOOTH",
"469 543 OFFCURVE",
"542 472 OFFCURVE",
"542 336 CURVE SMOOTH",
"542 0 LINE"
);
},
{
closed = 1;
nodes = (
"142 0 LINE",
"142 372 LINE",
"142 386 LINE",
"142 559 LINE",
"122 559 LINE",
"122 0 LINE"
);
}
);
width = 678;
},
{
anchors = (
{
name = bottom;
position = "{353, 0}";
},
{
name = top;
position = "{353, 582}";
}
);
background = {
anchors = (
{
name = bottom;
position = "{353, 0}";
},
{
name = top;
position = "{353, 582}";
}
);
paths = (
{
closed = 1;
nodes = (
"653 0 LINE",
"653 334 LINE SMOOTH",
"653 503 OFFCURVE",
"573 597 OFFCURVE",
"434 597 CURVE SMOOTH",
"294 597 OFFCURVE",
"214 490 OFFCURVE",
"214 327 CURVE SMOOTH",
"214 249 LINE",
"283 249 LINE",
"283 323 LINE SMOOTH",
"283 388 OFFCURVE",
"318 417 OFFCURVE",
"356 417 CURVE SMOOTH",
"396 417 OFFCURVE",
"423 391 OFFCURVE",
"423 328 CURVE SMOOTH",
"423 0 LINE"
);
},
{
closed = 1;
nodes = (
"283 0 LINE",
"283 441 LINE",
"276 467 LINE",
"276 582 LINE",
"53 582 LINE",
"53 0 LINE"
);
}
);
};
layerId = "5DA6E103-6A94-47F2-987D-4952DB8EA68E";
paths = (
{
closed = 1;
nodes = (
"653 0 LINE",
"653 346 LINE SMOOTH",
"653 505 OFFCURVE",
"573 597 OFFCURVE",
"434 597 CURVE SMOOTH",
"294 597 OFFCURVE",
"204 500 OFFCURVE",
"204 327 CURVE SMOOTH",
"204 249 LINE",
"283 249 LINE",
"283 326 LINE SMOOTH",
"283 391 OFFCURVE",
"321 417 OFFCURVE",
"359 417 CURVE SMOOTH",
"396 417 OFFCURVE",
"423 394 OFFCURVE",
"423 331 CURVE SMOOTH",
"423 0 LINE"
);
},
{
closed = 1;
nodes = (
"283 0 LINE",
"283 441 LINE",
"276 467 LINE",
"276 582 LINE",
"53 582 LINE",
"53 0 LINE"
);
}
);
width = 701;
}
);
leftKerningGroup = h.sc;
leftMetricsKey = h.sc;
rightKerningGroup = n.sc.ss01;
rightMetricsKey = u.sc;
userData = {
RMXScaler = {
source = N.ss01;
};
};
},
